# Blender 3.3.1
# www.blender.org
mtllib Pryamid Placeholder.mtl
o Cone
v -34.641018 -1.889999 -72.199997
v 34.641014 -1.889999 -72.199997
v 0.000006 -1.889999 -12.199997
v 0.000000 48.110001 -52.199997
vn -0.0000 0.3714 -0.9285
vn -0.0000 -1.0000 -0.0000
vn 0.8041 0.3714 0.4642
vn -0.8041 0.3714 0.4642
vt 0.750000 0.490000
vt 0.250000 0.490000
vt 0.957846 0.130000
vt 0.457846 0.130000
vt 0.542154 0.130000
vt 0.042154 0.130000
vt 0.250000 0.250000
s 0
f 1/2/1 4/7/1 2/4/1
f 1/1/2 2/3/2 3/5/2
f 2/4/3 4/7/3 3/6/3
f 3/6/4 4/7/4 1/2/4
