# Blender 3.3.1
# www.blender.org
mtllib Asteroid1.mtl
o Asteroid_2
v -0.677178 -0.657537 0.730636
v 0.549746 -0.617167 0.633182
v -0.000968 0.339414 0.980052
v -0.553820 -0.620266 -0.639254
v 0.582455 -0.628294 -0.662017
v 0.001818 0.241957 -0.828878
v 0.000653 0.549621 -0.002338
v -0.001144 -1.170610 -0.002777
v 0.002895 -0.804363 0.962702
v -0.330859 -0.024558 0.927447
v -0.867450 -0.759812 -0.005056
v -0.001212 -0.750987 -0.868351
v -0.302123 -0.036983 -0.890069
v 0.469290 -0.001010 0.363926
v -0.402473 -1.065535 0.401684
v 0.369515 -0.010470 0.983866
v 0.374717 -1.005202 -0.384919
v 0.977117 -0.785531 0.000223
v -0.535909 0.035813 0.375611
v 0.000750 0.583881 -0.596855
v 0.406247 -1.072792 0.409074
v 0.000769 0.639362 0.607867
v -0.479108 0.003972 -0.368606
v 0.275661 -0.047693 -0.848540
v -0.362892 -0.971234 -0.374832
v 0.470702 0.001228 -0.366937
v 0.000756 -0.324137 1.120863
v 0.001156 -1.071850 0.671605
v -0.659744 -1.059158 -0.005428
v -0.001836 -0.975066 -0.618860
v 0.703615 -1.125268 -0.001155
v 0.000657 -0.310153 -0.960669
v 0.359585 0.295183 0.646202
v 0.674964 -0.255070 0.000539
v 0.293927 0.243599 -0.621853
v -0.357593 0.296780 0.650726
v -0.677150 -0.256339 -0.004644
v -0.326554 0.269445 -0.637229
vn -0.7888 -0.2188 0.5744
vn 0.0657 -0.4978 0.8648
vn 0.0256 -0.1101 0.9936
vn -0.5901 0.2555 0.7658
vn 0.7858 -0.1730 0.5938
vn 0.6473 0.2089 0.7331
vn -0.0316 0.5907 0.8063
vn -0.3749 -0.8822 0.2850
vn 0.0465 -0.8499 0.5249
vn -0.0400 -0.9950 -0.0913
vn 0.3840 -0.8364 0.3912
vn -0.7406 -0.2231 -0.6338
vn -0.3610 -0.8279 -0.4292
vn -0.5536 -0.8259 -0.1070
vn -0.9667 -0.2362 -0.0984
vn -0.0170 -0.4855 -0.8741
vn -0.0355 -0.8304 -0.5560
vn 0.7146 -0.1776 -0.6767
vn 0.2876 -0.8476 -0.4459
vn 0.5305 -0.8474 -0.0241
vn 0.9820 -0.1887 0.0088
vn -0.5328 0.2181 -0.8176
vn 0.0157 -0.0648 -0.9978
vn 0.0654 0.4904 -0.8690
vn 0.5506 0.2425 -0.7988
vn 0.8804 0.4637 0.0998
vn 0.8110 0.5566 0.1804
vn 0.0199 0.9977 -0.0653
vn 0.0131 0.9790 0.2034
vn 0.8778 0.4787 0.0169
vn 0.8452 0.5007 -0.1869
vn 0.7543 0.5484 -0.3609
vn 0.0245 0.9437 -0.3298
vn -0.7637 0.5895 0.2633
vn -0.8596 0.5006 0.1019
vn -0.9079 0.4097 -0.0891
vn -0.8668 0.4621 -0.1872
vn -0.7417 0.5699 -0.3538
vt 0.030135 0.100248
vt 0.815761 0.015392
vt 1.396981 0.473381
vt 0.619568 0.119642
vt 1.369891 0.516962
vt 0.354997 0.579199
vt 0.500183 0.038424
vt 0.938208 0.274760
vt 0.407401 0.534884
vt -0.082741 0.590047
vt 1.270667 1.127948
vt 0.797076 0.917326
vt 0.446179 0.454960
vt 1.272718 1.139510
vt 0.276020 0.927876
vt 0.759558 0.729648
vt 0.810351 0.494555
vt 1.129958 0.158409
vt 0.356852 0.029711
vt 0.196512 0.404341
vt 1.108742 0.328817
vt 1.387841 0.834592
vt 0.525057 0.797088
vt 0.159831 0.465215
vt 0.970852 1.202168
vt 0.102049 0.832939
vt 1.052838 0.597431
vt 0.803368 0.220911
vt 1.566775 0.663563
vt 0.532983 0.411109
vt 1.106446 0.300622
vt 0.678169 0.036591
vt 0.815787 0.752004
vt 1.153284 0.815915
vt 1.400604 0.834094
vt 1.036089 0.588908
vt 0.696058 1.012291
vt 0.315045 1.087440
vt 0.550629 -0.099247
vt 1.570843 0.660591
vt 1.088487 0.484860
vt 0.501017 0.217227
vt 0.764781 0.429660
vt 0.992468 0.948636
vt 0.979280 1.183082
vt 0.370232 0.761158
vt 1.460052 1.028811
vt 0.561284 0.505382
vt 0.993917 0.948052
vt 0.355825 0.260418
vt 1.033413 0.259587
vt 0.356017 -0.098795
vt 0.579268 0.278424
vt 1.531492 0.858464
vt 0.607064 0.709674
vt 1.563561 0.861645
vt 1.057229 0.726257
vt 0.211660 0.670561
vt 0.933013 0.438501
vt 0.673398 0.198811
vt 1.146020 0.791957
vt 0.412421 0.894877
vt 0.857408 1.051222
vt 0.932605 0.436204
vt 1.146218 0.794545
vt 0.843785 1.056557
vt 0.126077 0.978651
s 1
usemtl Material.002
f 1/1/1 9/19/2 27/50/3 10/20/4
f 2/4/5 16/30/6 27/50/3 9/19/2
f 3/6/7 10/20/4 27/50/3 16/30/6
f 1/2/1 15/28/8 28/51/9 9/18/2
f 8/17/10 21/41/11 28/51/9 15/28/8
f 2/4/5 9/19/2 28/52/9 21/39/11
f 4/11/12 25/47/13 29/54/14 11/22/15
f 8/17/10 15/28/8 29/53/14 25/48/13
f 1/3/1 11/22/15 29/54/14 15/29/8
f 4/9/12 12/23/16 30/55/17 25/48/13
f 5/12/18 17/33/19 30/55/17 12/23/16
f 8/17/10 25/48/13 30/55/17 17/33/19
f 2/5/5 21/40/11 31/56/20 18/35/21
f 8/17/10 17/33/19 31/57/20 21/41/11
f 5/12/18 18/34/21 31/57/20 17/33/19
f 4/10/12 13/26/22 32/58/23 12/24/16
f 6/15/24 24/46/25 32/58/23 13/26/22
f 5/13/18 12/24/16 32/58/23 24/46/25
f 2/5/5 14/27/26 33/59/27 16/31/6
f 7/16/28 22/43/29 33/59/27 14/27/26
f 3/7/7 16/32/6 33/60/27 22/42/29
f 2/5/5 18/35/21 34/61/30 14/27/26
f 5/14/18 26/49/31 34/61/30 18/35/21
f 7/16/28 14/27/26 34/61/30 26/49/31
f 5/14/18 24/45/25 35/63/32 26/49/31
f 6/15/24 20/38/33 35/62/32 24/46/25
f 7/16/28 26/49/31 35/63/32 20/37/33
f 1/3/1 10/21/4 36/64/34 19/36/35
f 3/8/7 22/43/29 36/64/34 10/21/4
f 7/16/28 19/36/35 36/64/34 22/43/29
f 1/3/1 19/36/35 37/65/36 11/22/15
f 7/16/28 23/44/37 37/65/36 19/36/35
f 4/11/12 11/22/15 37/65/36 23/44/37
f 4/11/12 23/44/37 38/66/38 13/25/22
f 7/16/28 20/37/33 38/66/38 23/44/37
f 6/15/24 13/26/22 38/67/38 20/38/33
