<?xml version="1.0" encoding="utf-8"?>
<!-- Generator: Adobe Illustrator 26.5.0, SVG Export Plug-In . SVG Version: 6.00 Build 0)  -->
<svg version="1.1" id="Layer_1" xmlns="http://www.w3.org/2000/svg" xmlns:xlink="http://www.w3.org/1999/xlink" x="0px" y="0px"
	 viewBox="0 0 384 512" style="enable-background:new 0 0 384 512;" xml:space="preserve">
<style type="text/css">
	.st0{fill:#FFFFFF;}
</style>
<path class="st0" d="M173.8,5.5c11-7.3,25.4-7.3,36.4,0L228,17.2c6,3.9,13,5.8,20.1,5.4l21.3-1.3c13.2-0.8,25.6,6.4,31.5,18.2
	l9.6,19.1c3.2,6.4,8.4,11.5,14.7,14.7l19.3,9.7c11.8,5.9,19,18.3,18.2,31.5l-1.3,21.3c-0.4,7.1,1.5,14.2,5.4,20.1l11.8,17.8
	c7.3,11,7.3,25.4,0,36.4L366.8,228c-3.9,6-5.8,13-5.4,20.1l1.3,21.3c0.8,13.2-6.4,25.6-18.2,31.5l-19.1,9.6
	c-6.4,3.2-11.5,8.4-14.7,14.7l-9.7,19.3c-5.9,11.8-18.3,19-31.5,18.2l-21.3-1.3c-7.1-0.4-14.2,1.5-20.1,5.4l-17.8,11.8
	c-11,7.3-25.4,7.3-36.4,0L156,366.8c-6-3.9-13-5.8-20.1-5.4l-21.3,1.3c-13.2,0.8-25.6-6.4-31.5-18.2l-9.6-19.1
	c-3.2-6.4-8.4-11.5-14.7-14.7L39.5,301c-11.8-5.9-19-18.3-18.2-31.5l1.3-21.3c0.4-7.1-1.5-14.2-5.4-20.1L5.5,210.2
	c-7.3-11-7.3-25.4,0-36.4L17.2,156c3.9-6,5.8-13,5.4-20.1l-1.3-21.3c-0.8-13.2,6.4-25.6,18.2-31.5l19.1-9.6
	C65,70.2,70.2,65,73.4,58.6L83,39.5c5.9-11.8,18.3-19,31.5-18.2l21.3,1.3c7.1,0.4,14.2-1.5,20.1-5.4L173.8,5.5z M272,192
	c0-44.2-35.8-80-80-80s-80,35.8-80,80s35.8,80,80,80S272,236.2,272,192z M1.3,441.8l43.1-102.5c0.2,0.1,0.3,0.2,0.4,0.4l9.6,19.1
	c11.7,23.2,36,37.3,62,35.8l21.3-1.3c0.2,0,0.5,0,0.7,0.2l17.8,11.8c5.1,3.3,10.5,5.9,16.1,7.7l-37.6,89.3
	c-2.3,5.5-7.4,9.2-13.3,9.7s-11.6-2.2-14.8-7.2l-32.2-49.3l-56.1,8.3c-5.7,0.8-11.4-1.5-15-6S-1,447.1,1.3,441.8L1.3,441.8z
	 M249.3,502.2L211.7,413c5.6-1.8,11-4.3,16.1-7.7l17.8-11.8c0.2-0.1,0.4-0.2,0.7-0.2l21.3,1.3c26,1.5,50.3-12.6,62-35.8l9.6-19.1
	c0.1-0.2,0.2-0.3,0.4-0.4l43.2,102.5c2.2,5.3,1.4,11.4-2.1,16s-9.3,6.9-15,6l-56.1-8.3l-32.2,49.2c-3.2,5-8.9,7.7-14.8,7.2
	S251.6,507.6,249.3,502.2L249.3,502.2z"/>
</svg>
