<?xml version="1.0" encoding="UTF-8"?><svg id="Layer_2" xmlns="http://www.w3.org/2000/svg" viewBox="0 0 179.9 83.43"><defs><style>.cls-1{fill:#fff;}</style></defs><g id="Layer_1-2"><path class="cls-1" d="M37.28,83.42H0v-23.66l5.64-.02V24.01H0S0,0,0,0H66.73V29.06h-26.33v-5.11h-8.35v7.42l18.11,.04v23.06l-18.11-.04v5.34h5.23v23.65Zm-35.41-1.87H35.41v-19.91h-5.23v-9.08l18.11,.04v-19.32l-18.11-.04v-11.15h12.08v5.11h22.6V1.87H1.87V22.14H7.51s0,39.46,0,39.46l-5.64,.02v19.93Z"/><path class="cls-1" d="M106.01,83.41h-37.28v-23.64h5.56V23.96h-5.56V0h37.32V23.96h-5.43V59.77h5.39v23.64Zm-35.41-1.87h33.54v-19.9h-5.39V22.09h5.43V1.87h-33.58V22.09h5.56V61.64h-5.56v19.9Z"/><path class="cls-1" d="M159.01,83.43h-30.19l-15.51-16.28V23.96h-5.38V0h35.19V23.96h-3.39V59.79h8.35V23.96s-3.79,0-3.79,0V0h35.61s0,23.95,0,23.95h-5.48v43.19l-15.41,16.29Zm-29.39-1.87h28.58l14.34-15.16V22.09h5.48V1.87h-31.87V22.09h3.8s0,39.56,0,39.56h-12.08V22.09h3.39V1.87h-31.45V22.09h5.38v44.31l14.44,15.16Z"/><path class="cls-1" d="M3.57,20.39h5.67V63.37H3.57v16.47h30.18v-16.47h-5.32v-12.61h18.08v-15.76H28.43v-14.61h15.79v5.08h18.84V3.56H3.57V20.39Z"/><path class="cls-1" d="M102.48,3.56h-30.18V20.39h5.56V63.37h-5.44v16.47h30.07v-16.47h-5.44V20.39h5.44V3.56Z"/><path class="cls-1" d="M148.1,20.44h3.58s-.02,41.31-.02,41.31h0s-1.58,1.63-1.58,1.63h0s-12.38,0-12.38,0h0l-1.59-1.63h0V20.39h3.19V3.56h-27.82V20.39h5.44v45.03s13.77,14.42,13.77,14.42h26.38l13.78-14.42V20.39h5.44V3.56l-28.19,.05V20.44Z"/></g></svg>