<?xml version="1.0" encoding="UTF-8"?>
<svg id="Layer_2" data-name="Layer 2" xmlns="http://www.w3.org/2000/svg" viewBox="0 0 396.59 442.32">
  <defs>
    <style>
      .cls-1 {
        fill: #64c5fd;
      }
    </style>
  </defs>
  <g id="Layer_2-2" data-name="Layer 2">
    <path class="cls-1" d="M0,432.32c0,5.5,4.5,10,10,10H96.58c5.5,0,10-4.5,10-10v-135.31c0-5.5-3.18-13.18-7.07-17.07L7.07,187.51c-3.89-3.89-7.07-2.58-7.07,2.92v241.89Z"/>
    <path class="cls-1" d="M7.07,2.24C3.18-1.65,0-.34,0,5.16V136.11c0,5.5,3.18,13.19,7.07,17.08L289.04,435.25c3.89,3.89,11.57,7.07,17.07,7.07h80.48c5.5,0,10-4.5,10-10v-30.57c0-5.5-3.18-13.18-7.07-17.07L7.07,2.24Z"/>
    <path class="cls-1" d="M299.61,96.72c-3.89,3.89-7.64,7.64-8.33,8.33s-1.26,5.76-1.26,11.26v124.54c0,5.5,3.18,13.18,7.07,17.07l92.43,92.43c3.89,3.89,7.07,2.57,7.07-2.93V9.74c0-5.5-3.18-6.82-7.07-2.93l-89.91,89.91Z"/>
  </g>
</svg>