<?xml version="1.0" encoding="UTF-8"?>
<svg id="Layer_2" data-name="Layer 2" xmlns="http://www.w3.org/2000/svg" viewBox="0 0 240 234">
  <defs>
    <style>
      .cls-1 {
        fill: #fff;
      }
    </style>
  </defs>
  <g id="Layer_1-2" data-name="Layer 1">
    <g>
      <path class="cls-1" d="M105,103.9c-1-3.1-1.9-6.1-2.9-9.2s-1.9-6-2.7-8.9c-.8-2.8-1.5-5.4-2.2-7.8h-.2c-.9,4.3-2,8.6-3.4,12.9-1.5,4.8-3,9.8-4.6,14.8-1.4,5.1-2.9,9.8-4.4,14h25.4c-.6-2.1-1.4-4.6-2.3-7.2-.9-2.7-1.8-5.6-2.7-8.6Z"/>
      <path class="cls-1" d="M197.5,0H42.5C19,0,0,19,0,42.5V191.5c0,23.5,19,42.5,42.5,42.5H197.5c23.5,0,42.5-19,42.5-42.5V42.5c0-23.5-19-42.5-42.5-42.5Zm-50.8,164.9h-20.9c-.7,.1-1.4-.4-1.6-1.1l-8.2-23.8h-37.2l-7.6,23.5c-.2,.9-1,1.5-1.9,1.4h-18.8c-1.1,0-1.4-.6-1.1-1.8l32.2-92.7c.3-1,.6-2.1,1-3.3,.4-2.1,.6-4.3,.6-6.5-.1-.5,.3-1,.8-1.1h25.9c.8,0,1.2,.3,1.3,.8l36.5,103c.3,1.1,0,1.6-1,1.6Zm34.5-1.1c0,1.1-.4,1.6-1.3,1.6h-19.6c-1,0-1.5-.6-1.5-1.6V86.8c0-1,.4-1.4,1.3-1.4h19.8c.9,0,1.3,.5,1.3,1.4v77Zm-2.1-90.3c-2.3,2.4-5.7,3.7-9.1,3.5-3.3,.1-6.5-1.2-8.9-3.5-2.3-2.5-3.5-5.8-3.4-9.2-.1-3.4,1.2-6.6,3.6-8.9,2.4-2.3,5.6-3.5,8.9-3.5,3.9,0,6.9,1.2,9.1,3.5,2.2,2.4,3.4,5.6,3.3,8.9,.1,3.4-1.1,6.7-3.5,9.2Z"/>
    </g>
  </g>
</svg>