<?xml version="1.0" encoding="UTF-8"?>
<svg id="Layer_2" data-name="Layer 2" xmlns="http://www.w3.org/2000/svg" viewBox="0 0 2889 756.32">
  <defs>
    <style>
      .cls-1 {
        fill: #fff;
      }
    </style>
  </defs>
  <g id="Layer_1-2" data-name="Layer 1">
    <g id="One_Color_Logo" data-name="One Color Logo">
      <g id="n">
        <g id="n-2" data-name="n">
          <path class="cls-1" d="M2794.47,585.27c-2.46-4.92-8.97-8.94-14.47-8.94h-70c-5.5,0-10,4.5-10,10v160c0,5.5-4.5,10-10,10h-70c-5.5,0-10-4.5-10-10v-232c0-5.5,4.5-10,10-10h223c5.5,0,12.01,4.02,14.47,8.94l27.06,54.11c2.46,4.92,4.47,13.44,4.47,18.94v160c0,5.5-4.5,10-10,10h-70c-5.5,0-10-4.5-10-10v-142c0-5.5-2.01-14.02-4.47-18.94l-.06-.11Z"/>
        </g>
      </g>
      <g id="u">
        <g id="u-2" data-name="u">
          <path class="cls-1" d="M2371.53,675.38c2.46,4.92,8.97,8.94,14.47,8.94h70c5.5,0,10-4.5,10-10v-160c0-5.5,4.5-10,10-10h70c5.5,0,10,4.5,10,10v232c0,5.5-4.5,10-10,10h-223c-5.5,0-12.01-4.02-14.47-8.94l-27.06-54.11c-2.46-4.92-4.47-13.44-4.47-18.94v-160c0-5.5,4.5-10,10-10h70c5.5,0,10,4.5,10,10v142c0,5.5,2.01,14.02,4.47,18.94l.06,.11Z"/>
        </g>
      </g>
      <g id="s">
        <g id="s-2" data-name="s">
          <path class="cls-1" d="M1993.47,585.38c-2.46,4.92,.03,8.94,5.53,8.94h214c5.5,0,10,4.5,10,10v70c0,5.5-2.01,14.02-4.47,18.94l-27.06,54.11c-2.46,4.92-8.97,8.94-14.47,8.94h-304c-5.5,0-7.99-4.02-5.53-8.94l27.06-54.11c2.46-4.92,8.97-8.94,14.47-8.94h205c5.5,0,12.01-4.02,14.47-8.94l.06-.11c2.46-4.92-.03-8.94-5.53-8.94h-214c-5.5,0-10-4.5-10-10v-70c0-5.5,2.01-14.02,4.47-18.94l27.06-54.11c2.46-4.92,8.97-8.94,14.47-8.94h304c5.5,0,7.99,4.02,5.53,8.94l-27.06,54.11c-2.46,4.92-8.97,8.94-14.47,8.94h-205c-5.5,0-12.01,4.02-14.47,8.94l-.06,.11Z"/>
        </g>
      </g>
      <g id="OF_THE" data-name="OF THE">
        <g>
          <g id="OF">
            <g id="O">
              <g id="O-2" data-name="O">
                <path class="cls-1" d="M1518.2,504.32c-2.75,0-6.01,2.01-7.24,4.47l-12.33,24.66c-1.23,2.46-2.24,6.72-2.24,9.47v74c0,2.75,2.25,5,5,5h90.8c2.75,0,6.01-2.01,7.24-4.47l12.33-24.66c1.23-2.46,2.24-6.72,2.24-9.47v-74c0-2.75-2.25-5-5-5h-90.8Zm66.4,70.6c0,2.75-.94,6.89-2.1,9.2s-4.35,4.2-7.1,4.2h-44.6c-2.75,0-5-2.25-5-5v-32c0-2.75,.94-6.89,2.1-9.2s4.35-4.2,7.1-4.2h44.6c2.75,0,5,2.25,5,5v32Z"/>
              </g>
            </g>
            <g id="F">
              <g id="F-2" data-name="F">
                <path class="cls-1" d="M1666.5,542.12q1.15-2.31,0,0t0,0c1.15-2.31,4.35-4.2,7.1-4.2h69.8c2.75,0,5-2.25,5-5v-23.6c0-2.75-2.25-5-5-5h-90.8c-2.75,0-6.01,2.01-7.24,4.47l-12.33,24.66c-1.23,2.46-2.24,6.72-2.24,9.47v74c0,2.75,2.25,5,5,5h23.6c2.75,0,5-2.25,5-5v-23.6c0-2.75,.95-6.89,2.1-9.2s4.35-4.2,7.1-4.2h53c2.75,0,6.01-2.01,7.24-4.47l12.33-24.66c1.23-2.46-.01-4.47-2.76-4.47h-74c-2.75,0-4.06-1.89-2.9-4.2Z"/>
              </g>
            </g>
          </g>
          <g id="THE">
            <g id="T">
              <g id="T-2" data-name="T">
                <path class="cls-1" d="M1416.6,677.32c0-2.75-2.25-5-5-5h-32c-2.75,0-5-2.25-5-5v-15.2c0-2.75,.94-6.89,2.1-9.2s4.35-4.2,7.1-4.2h103.4c2.75,0,5,2.25,5,5v15.2c0,2.75-.94,6.89-2.1,9.2s-4.35,4.2-7.1,4.2h-23.6c-2.75,0-5.94,1.89-7.1,4.2s-2.1,6.45-2.1,9.2v65.6c0,2.75-2.25,5-5,5h-23.6c-2.75,0-5-2.25-5-5v-74Z"/>
              </g>
            </g>
            <g id="H">
              <g id="H-2" data-name="H">
                <path class="cls-1" d="M1509,751.32c0,2.75,2.25,5,5,5h23.6c2.75,0,5-2.25,5-5v-32c0-2.75,2.25-5,5-5h23.6c2.75,0,5.95,1.89,7.1,4.2s2.1,6.45,2.1,9.2v23.6c0,2.75,2.25,5,5,5h23.6c2.75,0,5-2.25,5-5v-32c0-2.75-1.01-7.01-2.24-9.47l-12.33-24.66c-1.23-2.46-4.49-4.47-7.24-4.47h-44.6c-2.75,0-5-2.25-5-5v-23.6c0-2.75-.94-6.89-2.1-9.2s-4.35-4.2-7.1-4.2h-19.4c-2.75,0-5,2.25-5,5v107.6Z"/>
              </g>
            </g>
            <g id="E">
              <g id="E-2" data-name="E">
                <path class="cls-1" d="M1669.4,722.72c-2.75,0-4.06-1.89-2.9-4.2s4.35-4.2,7.1-4.2h53c2.75,0,6.01-2.01,7.24-4.47l12.33-24.66c1.23-2.46,2.24-6.72,2.24-9.47v-32c0-2.75-2.25-5-5-5h-90.8c-2.75,0-6.01,2.01-7.24,4.47l-12.33,24.66c-1.23,2.46-2.24,6.72-2.24,9.47v74c0,2.75,2.25,5,5,5h90.8c2.75,0,6.01-2.01,7.24-4.47l12.33-24.66c1.23-2.46-.01-4.47-2.76-4.47h-74Zm-2.9-46.2c1.15-2.31,4.35-4.2,7.1-4.2h40.4c2.75,0,4.05,1.89,2.9,4.2s-4.35,4.2-7.1,4.2h-40.4c-2.75,0-4.06-1.89-2.9-4.2Z"/>
              </g>
            </g>
          </g>
        </g>
      </g>
      <g id="POWER">
        <g>
          <g id="P">
            <g id="P-2" data-name="P">
              <path class="cls-1" d="M252,514.32c0-5.5-4.5-10-10-10H46c-5.5,0-12.01,4.02-14.47,8.94l-27.06,54.11C2.01,572.3,0,580.82,0,586.32v160c0,5.5,4.5,10,10,10H62c5.5,0,10-4.5,10-10v-70c0-5.5,4.5-10,10-10h124c5.5,0,12.01-4.02,14.47-8.94l27.06-54.11c2.46-4.92,4.47-13.44,4.47-18.94v-70Zm-67.53,71.06c-2.46,4.92-8.97,8.94-14.47,8.94H73c-5.5,0-7.99-4.02-5.53-8.94l.06-.11c2.46-4.92,8.97-8.94,14.47-8.94h97c5.5,0,7.99,4.02,5.53,8.94l-.06,.11Z"/>
            </g>
          </g>
          <g id="O-3" data-name="O">
            <g id="O-4" data-name="O">
              <path class="cls-1" d="M334,504.32c-5.5,0-12.01,4.02-14.47,8.94l-27.06,54.11c-2.46,4.92-4.47,13.44-4.47,18.94v160c0,5.5,4.5,10,10,10h196c5.5,0,12.01-4.02,14.47-8.94l27.06-54.11c2.46-4.92,4.47-13.44,4.47-18.94v-160c0-5.5-4.5-10-10-10h-196Zm143,152c0,5.5-2.01,14.02-4.47,18.94l-.06,.11c-2.46,4.92-8.97,8.94-14.47,8.94h-97c-5.5,0-10-4.5-10-10v-70c0-5.5,2.01-14.02,4.47-18.94l.06-.11c2.46-4.92,8.97-8.94,14.47-8.94h97c5.5,0,10,4.5,10,10v70Z"/>
            </g>
          </g>
          <g id="W">
            <g id="W-2" data-name="W">
              <path class="cls-1" d="M742.5,684.32c2.48,0,6.51-4.02,8.97-8.94l.06-.11c2.46-4.92,4.47-13.44,4.47-18.94v-124c0-5.5,2.01-14.02,4.47-18.94l.06-.11c2.46-4.92,8.97-8.94,14.47-8.94h43c5.5,0,10,4.5,10,10v160c0,5.5-2.01,14.02-4.47,18.94l-27.06,54.11c-2.46,4.92-8.97,8.94-14.47,8.94h-196c-5.5,0-10-4.5-10-10v-214c0-5.5,2.01-14.02,4.47-18.94l.06-.11c2.46-4.92,8.97-8.94,14.47-8.94h43c5.5,0,10,4.5,10,10v160c0,5.5,2.02,10,4.5,10s6.51-4.02,8.97-8.94l.06-.11c2.46-4.92,4.47-13.44,4.47-18.94v-124c0-5.5,2.01-14.02,4.47-18.94l.06-.11c2.46-4.92,8.97-8.94,14.47-8.94h43c5.5,0,10,4.5,10,10v160c0,5.5,2.02,10,4.5,10Z"/>
            </g>
          </g>
          <g id="E-3" data-name="E">
            <g id="E-4" data-name="E">
              <path class="cls-1" d="M946,684.32c-5.5,0-7.99-4.02-5.53-8.94l.06-.11c2.46-4.92,8.97-8.94,14.47-8.94h115c5.5,0,12.01-4.02,14.47-8.94l27.06-54.11c2.46-4.92,4.47-13.44,4.47-18.94v-70c0-5.5-4.5-10-10-10h-196c-5.5,0-12.01,4.02-14.47,8.94l-27.06,54.11c-2.46,4.92-4.47,13.44-4.47,18.94v160c0,5.5,4.5,10,10,10h196c5.5,0,12.01-4.02,14.47-8.94l27.06-54.11c2.46-4.92-.03-8.94-5.53-8.94h-160Zm-5.47-99.06c2.46-4.92,8.97-8.94,14.47-8.94h88c5.5,0,7.99,4.02,5.53,8.94l-.06,.11c-2.46,4.92-8.97,8.94-14.47,8.94h-88c-5.5,0-7.99-4.02-5.53-8.94l.06-.11Z"/>
            </g>
          </g>
          <g id="R">
            <g id="R-2" data-name="R">
              <path class="cls-1" d="M1336.53,513.27c2.46-4.92,4.47-8.94,4.47-8.94l-4.47,8.94-27.06,54.11q-2.46,4.92,0,0l27.06-54.11c2.46-4.92-.03-8.94-5.53-8.94h-133c-5.5,0-12.01,4.02-14.47,8.94l-27.06,54.11c-2.46,4.92-4.47,13.44-4.47,18.94v160c0,5.5,4.5,10,10,10h52c5.5,0,10-4.5,10-10v-142c0-5.5,2.01-14.02,4.47-18.94l.06-.11c2.46-4.92,8.97-8.94,14.47-8.94h52c5.5,0,12.01-4.02,14.47-8.94l27.06-54.11Z"/>
            </g>
          </g>
        </g>
      </g>
      <path class="cls-1" d="M0,432.32C0,437.82,4.5,442.32,10,442.32H96.58c5.5,0,10-4.5,10-10v-135.31c0-5.5-3.18-13.18-7.07-17.07L7.07,187.51C3.18,183.62,0,184.93,0,190.43v241.89Z"/>
      <path class="cls-1" d="M7.07,2.24C3.18-1.65,0-.34,0,5.16V136.11C0,141.61,3.18,149.3,7.07,153.19L289.04,435.25c3.89,3.89,11.57,7.07,17.07,7.07h80.48c5.5,0,10-4.5,10-10v-30.57c0-5.5-3.18-13.18-7.07-17.07L7.07,2.24Z"/>
      <path class="cls-1" d="M299.61,96.72c-3.89,3.89-7.64,7.64-8.33,8.33s-1.26,5.76-1.26,11.26v124.54c0,5.5,3.18,13.18,7.07,17.07l92.43,92.43c3.89,3.89,7.07,2.57,7.07-2.93V9.74c0-5.5-3.18-6.82-7.07-2.93l-89.91,89.91Z"/>
      <g id="I">
        <rect class="cls-1" x="458.6" y="138.97" width="75.12" height="303.35" rx="10" ry="10"/>
      </g>
      <g id="T-3" data-name="T">
        <path class="cls-1" d="M1580.83,138.97c5.5,0,10,4.5,10,10v55.12c0,5.5-4.5,10-10,10h-94.23c-5.5,0-10,4.5-10,10v91.6c0,5.5-3.18,6.82-7.07,2.93l-60.97-60.97c-3.89-3.89-7.07-11.57-7.07-17.07v-16.49c0-5.5-4.5-10-10-10h-94c-5.5,0-10-4.5-10-10v-55.12c0-5.5,4.5-10,10-10h283.35Zm-179.35,155.92c0-5.5,3.18-6.82,7.07-2.93l60.97,60.98c3.89,3.89,7.07,11.57,7.07,17.07v62.31c0,5.5-4.5,10-10,10h-55.12c-5.5,0-10-4.5-10-10v-137.42Z"/>
      </g>
      <path class="cls-1" d="M1160.36,138.97c-5.5,0-10,4.5-10,10v94.4c0,5.5-4.5,10-10,10h-37.29c-5.5,0-13.18-3.18-17.07-7.07l-42.73-42.73c-3.89-3.89-7.07-11.57-7.07-17.07v-37.53c0-5.5-4.5-10-10-10h-55.12c-5.5,0-10,4.5-10,10v68.65c0,5.5,3.18,13.18,7.07,17.07l86.73,86.73c3.89,3.89,11.57,7.07,17.07,7.07h68.41c5.5,0,10,4.5,10,10v93.83c0,5.5,4.5,10,10,10h55.12c5.5,0,10-4.5,10-10V148.97c0-5.5-4.5-10-10-10h-55.12Z"/>
      <path class="cls-1" d="M968.15,269.02c-3.89-3.89-7.07-2.57-7.07,2.93v160.38c0,5.5,4.5,10,10,10h55.12c5.5,0,10-4.5,10-10v-85.26c0-5.5-3.18-13.18-7.07-17.07l-60.98-60.98Z"/>
      <g id="F-3" data-name="F">
        <path class="cls-1" d="M1746.44,166.84c3.89,3.89,11.57,7.07,17.07,7.07h132.65c5.5,0,10,4.5,10,10v86.58c0,5.5-4.5,10-10,10h-126.75c-5.5,0-10,4.5-10,10v141.83c0,5.5-4.5,10-10,10h-86.58c-5.5,0-10-4.5-10-10V83.23c0-5.5,3.18-6.82,7.07-2.93l86.53,86.53Z"/>
      </g>
      <g id="F-4" data-name="F">
        <path class="cls-1" d="M2014.22,24.77c5.5,0,10,4.5,10,10V121.34c0,5.5-4.5,10-10,10h-244.81c-5.5,0-13.18-3.18-17.07-7.07l-92.43-92.43c-3.89-3.89-2.57-7.07,2.93-7.07h351.38Z"/>
      </g>
      <g id="A">
        <path class="cls-1" d="M2092.53,237.29c2.85-4.7,7.51-4.7,10.36,0l33.49,55.46c2.84,4.71,2.84,12.41-.02,17.11l-75.15,123.9c-2.85,4.7-9.69,8.55-15.19,8.55h-67.86c-5.5,0-7.67-3.85-4.81-8.55l119.18-196.48Zm245.27,196.48c2.85,4.7,.69,8.55-4.81,8.55h-67.86c-5.5,0-12.33-3.85-15.17-8.56l-132.86-219.88c-2.84-4.71-2.84-12.41,.01-17.11l33.28-54.88c2.85-4.7,7.52-4.7,10.37,0l177.04,291.88Z"/>
      </g>
      <path class="cls-1" d="M2548.16,435.25c3.89,3.89,2.57,7.07-2.93,7.07h-130.23c-5.5,0-10-4.5-10-10V148.97c0-5.5,4.5-10,10-10h55.12c5.5,0,10,4.5,10,10v208.23c0,5.5,3.18,13.18,7.07,17.07l60.97,60.97Z"/>
      <path class="cls-1" d="M2606,442.32c5.5,0,10-4.5,10-10v-55.12c0-5.5-4.5-10-10-10h-81.56c-5.5,0-6.82,3.18-2.93,7.07l60.97,60.97c3.89,3.89,11.57,7.07,17.07,7.07h6.44Z"/>
      <path class="cls-1" d="M2821.17,435.25c3.89,3.89,2.57,7.07-2.93,7.07h-130.23c-5.5,0-10-4.5-10-10V148.97c0-5.5,4.5-10,10-10h55.12c5.5,0,10,4.5,10,10v208.23c0,5.5,3.18,13.18,7.07,17.07l60.97,60.97Z"/>
      <path class="cls-1" d="M2879,442.32c5.5,0,10-4.5,10-10v-55.12c0-5.5-4.5-10-10-10h-81.56c-5.5,0-6.82,3.18-2.93,7.07l60.97,60.97c3.89,3.89,11.57,7.07,17.07,7.07h6.44Z"/>
      <path class="cls-1" d="M685.95,245.25c2.25-3.03,4.75-5.92,7.44-8.61,14.42-14.43,33.61-22.38,54.01-22.38s39.59,7.95,54.01,22.38c7.13,7.13,12.69,15.4,16.52,24.57h0c.94,2.26,3.15,3.73,5.6,3.73h66c3.88,0,6.76-3.59,5.92-7.38h0c-8.32-37.35-30.32-69.95-61.98-91.8-25.36-17.52-55.13-26.77-86.08-26.77-44.74,0-86.98,19.61-115.88,53.81h0c-2.03,2.41-1.88,5.98,.35,8.21l44.93,44.93c2.62,2.62,6.95,2.3,9.16-.67h0Z"/>
      <path class="cls-1" d="M783.42,301.28l25.35,25.35c2.09,2.09,2.36,5.38,.65,7.81-2.54,3.61-5.41,7.03-8.59,10.22-14.36,14.36-33.43,22.3-53.72,22.37h0c-20.3-.08-39.37-8.01-53.72-22.37-14.43-14.42-22.38-33.61-22.38-54.01,0-3.96,.3-7.92,.9-11.78h0c.3-1.91-.34-3.84-1.7-5.21l-49.98-49.98c-2.96-2.96-7.95-2.1-9.75,1.67h0c-9.78,20.47-14.74,42.44-14.74,65.3,0,40.51,15.78,78.61,44.42,107.25,28.58,28.58,66.56,44.34,106.96,44.42h0c40.41-.07,78.38-15.84,106.96-44.42,2.82-2.82,5.51-5.73,8.08-8.72,2.29-2.67,6.37-2.8,8.86-.31l17.72,17.72c3.82,3.82,10.34,1.11,10.34-4.28v-105.31c0-3.35-2.71-6.06-6.06-6.06h-105.31c-5.4,0-8.1,6.53-4.28,10.34Z"/>
    </g>
  </g>
</svg>