<?xml version="1.0" encoding="utf-8"?>
<!-- Generator: Adobe Illustrator 26.5.0, SVG Export Plug-In . SVG Version: 6.00 Build 0)  -->
<svg version="1.1" id="Layer_1" xmlns="http://www.w3.org/2000/svg" xmlns:xlink="http://www.w3.org/1999/xlink" x="0px" y="0px"
	 viewBox="0 0 448 512" style="enable-background:new 0 0 448 512;" xml:space="preserve">
<style type="text/css">
	.st0{fill:#FFFFFF;}
</style>
<path class="st0" d="M0,160v96c0,123.7,100.3,224,224,224s224-100.3,224-224v-96H320v96c0,53-43,96-96,96s-96-43-96-96v-96H0z
	 M0,128h128V64c0-17.7-14.3-32-32-32H32C14.3,32,0,46.3,0,64V128z M320,128h128V64c0-17.7-14.3-32-32-32h-64c-17.7,0-32,14.3-32,32
	V128z"/>
</svg>
