<?xml version="1.0" encoding="utf-8"?>
<!-- Generator: Adobe Illustrator 26.5.0, SVG Export Plug-In . SVG Version: 6.00 Build 0)  -->
<svg version="1.1" id="Layer_1" xmlns="http://www.w3.org/2000/svg" xmlns:xlink="http://www.w3.org/1999/xlink" x="0px" y="0px"
	 viewBox="0 0 512 512" style="enable-background:new 0 0 512 512;" xml:space="preserve">
<style type="text/css">
	.st0{fill:#FFFFFF;}
</style>
<path class="st0" d="M416,398.9c58.5-41.1,96-104.1,96-174.9C512,100.3,397.4,0,256,0S0,100.3,0,224c0,70.7,37.5,133.8,96,174.9
	c0,0.4,0,0.7,0,1.1v64c0,26.5,21.5,48,48,48h48v-48c0-8.8,7.2-16,16-16s16,7.2,16,16v48h64v-48c0-8.8,7.2-16,16-16s16,7.2,16,16v48
	h48c26.5,0,48-21.5,48-48v-64C416,399.6,416,399.3,416,398.9z M224,256c0,35.3-28.7,64-64,64s-64-28.7-64-64s28.7-64,64-64
	S224,220.7,224,256z M352,320c-35.3,0-64-28.7-64-64s28.7-64,64-64s64,28.7,64,64S387.3,320,352,320z"/>
</svg>
