<?xml version="1.0" encoding="utf-8"?>
<!-- Generator: Adobe Illustrator 26.5.0, SVG Export Plug-In . SVG Version: 6.00 Build 0)  -->
<svg version="1.1" id="Layer_1" xmlns="http://www.w3.org/2000/svg" xmlns:xlink="http://www.w3.org/1999/xlink" x="0px" y="0px"
	 viewBox="0 0 960 540" style="enable-background:new 0 0 960 540;" xml:space="preserve">
<style type="text/css">
	.st0{fill:#F2F2F2;}
	.st1{fill:#64C5FD;}
</style>
<g>
	<g>
		<g id="Layer_1-2">
			<path class="st0" d="M276.4,333.2h-32.7v-20.8l4.9,0v-31.4h-4.9V260h58.6v25.5h-23.1V281h-7.3v6.5l15.9,0v20.2l-15.9,0v4.7h4.6
				C276.4,312.5,276.4,333.2,276.4,333.2z M245.3,331.6h29.4v-17.5h-4.6v-8l15.9,0v-17l-15.9,0v-9.8h10.6v4.5h19.8v-22.2h-55.3v17.8
				h4.9v34.6l-4.9,0C245.3,314.1,245.3,331.6,245.3,331.6z"/>
			<path class="st0" d="M336.7,333.2H304v-20.7h4.9v-31.4H304v-21h32.8v21H332v31.4h4.7V333.2z M305.6,331.6h29.4v-17.5h-4.7v-34.7
				h4.8v-17.7h-29.5v17.7h4.9v34.7h-4.9V331.6z"/>
			<path class="st0" d="M383.2,333.2h-26.5L343.1,319v-37.9h-4.7v-21h30.9v21h-3v31.4h7.3v-31.4h-3.3v-21h31.2v21h-4.8V319
				L383.2,333.2L383.2,333.2z M357.4,331.6h25.1l12.6-13.3v-38.9h4.8v-17.7h-28v17.7h3.3v34.7h-10.6v-34.7h3v-17.7H340v17.7h4.7
				v38.9L357.4,331.6L357.4,331.6z"/>
			<path class="st0" d="M246.8,277.9h5v37.7h-5v14.5h26.5v-14.5h-4.7v-11.1h15.9v-13.8h-15.9v-12.8h13.9v4.5H299v-19.2h-52.2V277.9z
				"/>
			<path class="st0" d="M333.6,263.2h-26.5v14.8h4.9v37.7h-4.8v14.5h26.4v-14.5h-4.8v-37.7h4.8L333.6,263.2L333.6,263.2z"/>
			<path class="st0" d="M373.6,278h3.1l0,36.3l0,0l-1.4,1.4l0,0h-10.9l0,0l-1.4-1.4l0,0v-36.3h2.8v-14.8h-24.4v14.8h4.8v39.5
				l12.1,12.7h23.2l12.1-12.7v-39.5h4.8v-14.8l-24.7,0V278z"/>
		</g>
		<g>
			<path class="st0" d="M511.3,289.2h-3.6v6.9h3.6c1.3,0,2.2-0.3,2.9-0.9c0.6-0.6,0.9-1.5,0.9-2.5c0-1.1-0.3-1.9-0.9-2.5
				S512.5,289.2,511.3,289.2z"/>
			<path class="st0" d="M508.4,246.1c-27.9,0-50.5,22.6-50.5,50.5c0,27.9,22.6,50.5,50.5,50.5s50.5-22.6,50.5-50.5
				C558.9,268.8,536.3,246.1,508.4,246.1z M497,300.2c0,2.5-0.5,4.5-1.6,6.2c-1,1.7-2.5,3-4.2,3.8c-1.8,0.9-3.7,1.3-5.9,1.3
				c-2.2,0-4.1-0.4-5.8-1.3s-3.1-2.1-4.1-3.8c-1-1.7-1.5-3.8-1.5-6.2v-16.4h6.7v16.4c0,1.6,0.4,2.9,1.2,3.8c0.8,0.9,2,1.3,3.6,1.3
				s2.8-0.4,3.6-1.3c0.8-0.9,1.3-2.2,1.3-3.8v-16.4h6.7V300.2z M520.8,297.1c-0.7,1.3-1.9,2.4-3.4,3.2c-1.5,0.8-3.4,1.2-5.6,1.2
				h-4.2v9.9h-6.7v-27.5h10.9c2.2,0,4.1,0.4,5.6,1.1c1.5,0.8,2.6,1.8,3.4,3.1c0.8,1.3,1.1,2.9,1.1,4.6
				C521.9,294.3,521.5,295.7,520.8,297.1z M541.5,289.2h-10.1v5.6h9v5.2h-9v6h10.1v5.4h-16.8v-27.5h16.8V289.2z"/>
		</g>
		<g>
			<g id="Layer_1_00000008834319533774110980000005969609994339056063_">
				<g>
					<path class="st0" d="M697.1,327.2c-2.8,1.2-5.9,2.3-9.4,3.4c-2.8,0.9-5.9,1.7-9.7,2.6c-5.4,1.3-10.9,2.5-16.4,3.5
						c-1.1,0.2-2.3,0.4-3.4,0.6c-1.2,0.2-1.2,1.8-0.1,2.2c0,0,0,0,0,0c5.8,1.6,11.8,3,18.3,2.3c6.5-0.7,13.6-3.7,19.2-9.4
						c1-1,2-2.3,3-3.6c0.7-0.9-0.3-2.1-1.3-1.7C697.3,327.1,697.2,327.2,697.1,327.2z"/>
					<path class="st0" d="M620.2,261.3c-0.2,2.1,0.2,4.6,2.1,5.3c1.9,0.7,3.8-1.1,5.1-2.7c3-3.7,17.6-16.5,8.4-19.4
						C627.3,241.8,620.9,254.8,620.2,261.3z"/>
					<path class="st0" d="M673.2,289.6c-2.5-0.2-4.6,1.6-4.8,4.1c-0.2,2.5,1.6,4.6,4.1,4.8c2.5,0.2,4.6-1.6,4.8-4.1
						C677.5,292,675.7,289.8,673.2,289.6z"/>
					<path class="st0" d="M679.6,251c-3.1,0.6-5,2.6-5.8,5c0,0,0,0,0,0c0,0,0,0.1,0,0.1l0,0c-0.1,0.2-0.1,0.5-0.2,0.7v0
						c0,0,0,0.1,0,0.1c0,0,0,0,0,0c0,0.2-0.1,0.5-0.1,0.7c0,0,0,0,0,0c0,0,0,0.1,0,0.1c0,0,0,0,0,0c0,0,0,0.1,0,0.1c0,0,0,0,0,0
						c0,0.2,0,0.4,0,0.6c0,0,0,0,0,0c0,0,0,0.1,0,0.1c0,0,0,0,0,0c0,0,0,0.1,0,0.1c0,0,0,0,0,0c0,0.1,0,0.3,0,0.4c0,0,0,0,0,0
						c0,0,0,0.1,0,0.1c0,0,0,0,0,0c0,0,0,0.1,0,0.1c0,0,0,0,0,0c0,0,0,0.1,0,0.1c0,0,0,0,0,0c0,0,0,0.1,0,0.1c0,0,0,0,0,0
						c0,0.1,0,0.2,0.1,0.3c0,0,0,0,0,0c0,0,0,0.1,0,0.1c0,0,0,0,0,0c0,0,0,0.1,0,0.1c0,0,0,0,0,0c0,0,0,0.1,0,0.1c0,0,0,0,0,0
						c0,0,0,0.1,0,0.1c0,0,0,0,0,0c0,0.1,0.1,0.2,0.1,0.3c0,0,0,0,0,0c0,0,0,0.1,0,0.1c0,0,0,0,0,0c0,0,0,0.1,0,0.1c0,0,0,0,0,0
						c0,0,0,0.1,0,0.1c0,0,0,0,0,0c0,0,0,0.1,0,0.1c0,0,0,0,0,0c0,0,0,0.1,0,0.1c0,0,0,0,0,0c0,0,0,0.1,0.1,0.1c0,0,0,0,0,0
						c0,0,0,0.1,0.1,0.1c0,0,0,0,0,0c0,0,0,0.1,0,0.1c0,0,0,0,0,0c0,0,0,0.1,0,0.1c0,0,0,0,0,0c0,0,0,0.1,0,0.1c0,0,0,0,0,0
						c0,0,0,0.1,0.1,0.1c0,0,0,0,0,0c0,0,0,0.1,0.1,0.1c0,0,0,0,0,0c0,0,0,0.1,0.1,0.1c0,0,0,0,0,0c0,0,0,0.1,0.1,0.1c0,0,0,0,0,0
						c0,0,0,0,0.1,0.1c0,0,0,0,0,0c0,0,0,0,0.1,0.1c0,0,0,0,0,0c0,0,0,0.1,0.1,0.1c0,0,0,0,0,0c0,0,0.1,0.1,0.1,0.1c0,0,0,0,0,0
						c0,0,0.1,0.1,0.1,0.1c0,0,0,0,0,0c0,0,0,0,0.1,0.1c0,0,0,0,0,0c0,0,0,0,0.1,0.1c0,0,0,0,0,0c0,0,0,0,0.1,0.1c0,0,0,0,0,0
						c0,0,0,0,0.1,0.1c0,0,0,0,0,0c0,0,0.1,0.1,0.1,0.1c0,0,0,0,0,0c0,0,0,0,0,0c0,0,0,0,0,0c0,0,0,0,0,0c0,0,0,0,0,0c0,0,0,0,0,0
						c0,0,0,0,0,0c0,0,0,0,0,0c0,0,0,0,0,0c0,0,0,0,0,0c0,0,0,0,0,0c0,0,0,0,0,0c0,0,0,0,0,0s0,0,0,0s0,0,0,0c0,0,0,0,0,0
						c0,0,0,0,0,0c0,0,0,0,0,0c0,0,0,0,0,0c0,0,0,0,0,0c0,0,0,0,0,0c0,0,0,0,0,0s0,0,0,0c0,0,0,0,0,0c0,0,0,0,0,0c0,0,0,0,0,0
						c0,0,0,0,0,0c0,0,0,0,0,0c0,0,0,0,0,0c0,0,0,0,0,0c0,0,0,0,0,0c0,0,0,0,0,0c0,0,0,0,0,0c0,0,0,0,0,0c0,0,0,0,0,0s0,0,0,0
						c0,0,0,0,0,0c0,0,0,0,0,0c0,0,0,0,0,0c0,0,0,0,0,0c0,0,0,0,0,0c0,0,0,0,0,0c0,0,0,0,0,0c0,0,0,0,0,0c0,0,0,0,0.1,0c0,0,0,0,0,0
						c0,0,0,0,0.1,0c0,0,0,0,0,0c0,0,0,0,0.1,0c0,0,0,0,0,0c0,0,0,0,0.1,0c0,0,0,0,0,0c0,0,0,0,0.1,0c0,0,0,0,0,0c0,0,0,0,0.1,0
						c0,0,0,0,0,0c0,0,0,0,0.1,0c0,0,0,0,0,0c0,0,0,0,0.1,0c0,0,0,0,0,0c0.1,0,0.1,0,0.2,0.1c0,0,0,0,0,0c0,0,0,0,0.1,0c0,0,0,0,0,0
						c0,0,0,0,0.1,0c0,0,0,0,0,0c0,0,0,0,0.1,0c0,0,0,0,0,0c0,0,0,0,0.1,0c0,0,0,0,0,0c0,0,0,0,0.1,0c0,0,0,0,0,0c0,0,0,0,0.1,0
						c0,0,0,0,0.1,0c0,0,0,0,0.1,0c0,0,0,0,0.1,0c0,0,0,0,0.1,0c0,0,0,0,0.1,0c0,0,0,0,0.1,0c0,0,0,0,0.1,0c0,0,0,0,0.1,0s0,0,0.1,0
						c0,0,0,0,0.1,0c0,0,0,0,0.1,0c0,0,0,0,0.1,0c0,0,0,0,0.1,0s0,0,0.1,0c0,0,0,0,0.1,0c0,0,0,0,0.1,0c0,0,0,0,0.1,0c0,0,0,0,0.1,0
						c0,0,0,0,0.1,0c0,0,0,0,0.1,0c0,0,0,0,0.1,0c0,0,0,0,0.1,0c0,0,0,0,0.1,0c0,0,0,0,0.1,0c0,0,0,0,0.1,0c0,0,0,0,0.1,0
						c0,0,0,0,0.1,0c0,0,0,0,0.1,0c0,0,0,0,0.1,0c0,0,0,0,0.1,0c0,0,0,0,0.1,0c0,0,0,0,0.1,0c0,0,0,0,0.1,0c0,0,0,0,0.1,0
						c0,0,0,0,0.1,0c0,0,0,0,0.1,0c0,0,0,0,0.1,0c0,0,0,0,0,0c0,0,0,0,0.1,0c0,0,0,0,0,0c0,0,0,0,0.1,0c0,0,0,0,0,0c0,0,0,0,0.1,0
						c0,0,0,0,0,0c0,0,0.1,0,0.1,0c0,0,0,0,0,0c0.1,0,0.2,0,0.2,0c0,0,0,0,0,0c0,0,0.1,0,0.1,0c0,0,0,0,0,0c0,0,0,0,0.1,0
						c0,0,0,0,0.1,0c0,0,0.1,0,0.1,0c0,0,0,0,0,0c0,0,0.1,0,0.1,0c0,0,0,0,0,0c0,0,0.1,0,0.1,0c0,0,0,0,0,0c0,0,0.1,0,0.1,0
						c0,0,0,0,0.1,0c0,0,0.1,0,0.1,0c0,0,0,0,0,0c0,0,0.1,0,0.1,0c0,0,0,0,0,0c0,0,0.1,0,0.1,0c0,0,0,0,0,0c0,0,0.1,0,0.1,0
						c0,0,0,0,0,0c0,0,0.1,0,0.1,0c0,0,0,0,0.1,0c0,0,0.1,0,0.1,0c0,0,0,0,0,0c0,0,0.1,0,0.1,0c0,0,0,0,0,0c0,0,0.1,0,0.1,0
						c0,0,0,0,0,0c0,0,0.1,0,0.1,0c0,0,0,0,0,0c0,0,0.1,0,0.1,0c0,0,0,0,0.1,0c0,0,0.1,0,0.1,0c0,0,0,0,0.1,0c0,0,0.1,0,0.1,0
						c0,0,0,0,0,0c0,0,0.1,0,0.1,0c0,0,0,0,0,0c0,0,0.1,0,0.1,0c0,0,0,0,0.1,0c0,0,0,0,0.1,0c0,0,0,0,0.1,0c0,0,0,0,0.1,0
						c0,0,0,0,0.1,0c0,0,0,0,0.1,0c0,0,0,0,0.1,0c0,0,0.1,0,0.1,0c0,0,0,0,0.1,0c0,0,0.1,0,0.1,0c0,0,0,0,0.1,0c0,0,0,0,0.1,0
						c0,0,0,0,0.1,0c0,0,0,0,0.1,0c0,0,0,0,0.1,0c0,0,0,0,0.1,0c0,0,0,0,0.1,0c0,0,0,0,0.1,0c0,0,0.1,0,0.1-0.1c0,0,0,0,0,0
						c0,0,0,0,0.1,0c0,0,0,0,0,0c0,0,0,0,0.1,0c0,0,0,0,0,0c0,0,0,0,0.1,0c0,0,0,0,0,0c0,0,0,0,0.1,0c0,0,0,0,0,0
						c0.1-0.1,0.2-0.1,0.2-0.2c0,0,0,0,0,0c0,0,0,0,0.1,0c0,0,0,0,0,0c0,0,0,0,0.1,0c0,0,0,0,0,0c0,0,0,0,0.1-0.1c0,0,0,0,0,0
						c0.1-0.1,0.2-0.1,0.2-0.2c0,0,0,0,0,0c0,0,0,0,0.1-0.1c0,0,0,0,0,0c0,0,0,0,0.1-0.1c0,0,0,0,0,0c0,0,0,0,0.1-0.1c0,0,0,0,0,0
						c0.1-0.1,0.2-0.2,0.3-0.3c0,0,0,0,0,0c0,0,0,0,0.1-0.1c0,0,0,0,0,0c0,0,0,0,0.1-0.1c0,0,0,0,0,0c0,0,0,0,0.1-0.1l0,0
						c0.1-0.1,0.1-0.2,0.2-0.3c0,0,0,0,0,0c0,0,0-0.1,0.1-0.1c0,0,0,0,0,0c0,0,0-0.1,0.1-0.1c0,0,0,0,0,0c0,0,0-0.1,0.1-0.1
						c0,0,0,0,0,0c0.1-0.1,0.1-0.2,0.2-0.3c0,0,0,0,0,0l0,0c0.3-0.4,0.5-0.8,0.6-1.2C691.3,256.9,686,249.8,679.6,251z"/>
					<path class="st0" d="M705.8,276.3c-3.5-3.6-8.7-8-14.8-12c-0.2,0.3-0.4,0.6-0.6,0.8c-0.6,0.8-1.3,1.4-2.2,2
						c-0.8,0.6-1.7,1-2.7,1.3c-1,0.3-2,0.5-3,0.5c-0.1,0-0.2,0-0.3,0c-0.8,0-1.5-0.1-2.3-0.2c-0.7-0.2-1.4-0.4-2.1-0.7
						c-1.3-0.6-2.6-1.4-3.6-2.4c-1.4-1.3-2.3-3-2.8-4.9c-0.4-1.8-0.4-3.7,0.1-5.5c0.1-0.3,0.2-0.7,0.4-1c-13.3-5-27.3-5.7-36.6,4.3
						c-6.3,6.8-7.9,15.7-8,24.1c-0.2,8.5,0.8,17-1.3,25.3c-1.3,5.1-3.8,10.1-4.1,15.3c-0.3,5.2,2.1,11.1,8,13.4
						c4.5,1.7,9.8,1.1,14.6,0.4c11.1-1.7,22.1-3.8,32.9-6.4c12.7-3,26-7.1,33.4-15.9C720.6,303.5,716.4,287.3,705.8,276.3z
						 M638.7,321.1l-0.6-0.6c-0.3-0.3-0.5-0.6-0.5-0.7l9.1-9c0.1-0.1,0.3,0.2,0.7,0.5l0.6,0.6c0.3,0.3,0.5,0.6,0.5,0.7l-9.1,9
						C639.3,321.6,639,321.4,638.7,321.1z M643.3,320.4l7.3-7.2c0,0,0.3,0.2,0.6,0.5l0.6,0.6c0.3,0.3,0.5,0.6,0.5,0.7l-7.3,7.2
						c0,0-0.3-0.2-0.6-0.5l-0.6-0.6C643.5,320.8,643.3,320.5,643.3,320.4z M654.5,318.6l-9.1,9c-0.1,0.1-0.3-0.2-0.7-0.5l-0.6-0.6
						c-0.3-0.3-0.5-0.6-0.5-0.7l9.1-9c0.1-0.1,0.3,0.2,0.7,0.5l0.6,0.6C654.3,318.2,654.5,318.5,654.5,318.6z M691.5,280.1
						c-0.3,3.9-2.3,11.9-12.3,21.5c-1.6,1.6-3.4,3.1-5.2,4.4l-1.9,7.3c0,0.1-0.1,0.2-0.1,0.2l-6.3,5.1c0,0-0.1,0.1-0.2,0.1
						c-0.2,0.1-0.5-0.1-0.5-0.3l-2-7.5c-2.5,0.3-4.1-0.3-4.7-0.6l-2.8,2.6c-0.1,0.1-0.2,0.1-0.3,0.1c-0.1,0-0.2-0.1-0.3-0.1l-2-2.3
						c-0.2-0.2-0.1-0.4,0-0.6l2.5-2.7c-0.7-1.2-0.9-2.6-0.7-4.2l-7.2-2.7c-0.1-0.1-0.2-0.2-0.3-0.3c0,0,0-0.1,0-0.1
						c0-0.1,0.1-0.2,0.1-0.3l5.7-5.8c0.1-0.1,0.1-0.1,0.2-0.1l7.4-1.4c1.3-1.5,2.7-2.9,4.2-4.3c15.3-13.1,26-10.5,26.5-10.4
						c0.2,0,0.3,0.2,0.3,0.4C691.5,278.1,691.6,278.9,691.5,280.1z"/>
				</g>
				<path class="st0" d="M624.6,302.5c0.1-0.9,0.2-1.8,0.2-2.8c-1.2-1-2.3-2.2-3.2-3.5c-1.3-1.9-2.3-4.2-3-6.7
					c-0.6-2.3-1-4.9-1.1-7.6c-0.1-4.7,0.7-9.5,2.5-13.8c0,0,0,0,0,0c-0.3-0.2-0.6-0.5-0.8-0.8c-0.3-0.4-0.6-0.9-0.8-1.4
					c-2.3,4.9-3.4,10.5-3.2,16c0.1,5.5,1.4,11,4.5,15.5C621,299.4,622.7,301.1,624.6,302.5z"/>
				<path class="st0" d="M686.9,344.7c-0.7,0.7-1.5,1.2-2.4,1.6c-0.9,0.3-1.9,0.5-3,0.5c-1.7,0-3.5-0.4-5.3-1.2
					c-0.8-0.4-1.7-0.8-2.4-1.3c-0.3,0-0.7,0-1,0c-1,0-2,0-3.1-0.1c0,0,0.1,0,0.1,0.1c3.2,2.9,7.6,4.9,11.7,4.9
					c2.7,0,5.2-0.8,7.1-2.8c2-2,2.8-4.7,2.9-7.5c-0.8,0.5-1.7,1-2.5,1.5C688.7,342.1,688,343.6,686.9,344.7z"/>
			</g>
			<g>
				<path class="st0" d="M690.2,253.5c0.2,0.3,0.4,0.6,0.5,0.8c2.1,0.8,4.1,1.7,6,2.8c2.4,1.4,4.6,3,6.6,4.8c2,1.9,3.8,3.9,5.2,6.1
					c1.5,2.3,2.6,4.7,3.4,7.2c0.4,1.2,0.7,2.5,0.9,3.9c0.1,0.8,0.2,1.6,0.2,2.3c0.8,1.3,1.6,2.6,2.3,4c0.4-3.7,0-7.4-1.1-10.9
					c-3.4-11.1-13.2-19.4-24.1-23c-0.7-0.2-1.5-0.5-2.2-0.7C688.7,251.7,689.5,252.5,690.2,253.5z"/>
			</g>
		</g>
	</g>
	<g>
		<path class="st1" d="M381.7,200.4c0,1.2-0.4,2.3-1.1,3.3c-0.1,0.2-0.3,0.3-0.4,0.5c-1,1-2.3,1.5-3.7,1.5h-5.6l-4-4v-6.6h9.6
			c1.4,0,2.7,0.5,3.7,1.5c0.7,0.7,1.2,1.6,1.4,2.5C381.6,199.5,381.7,199.9,381.7,200.4z M366.8,203.7l4.5,4.5v4.9h-4.5V203.7z
			 M377.1,200.4c0-0.1,0-0.2,0-0.4c-0.1-0.3-0.2-0.5-0.4-0.7c-0.3-0.3-0.7-0.5-1.1-0.5h-4.2v0.6l2.5,2.5h1.8c0.4,0,0.8-0.2,1.1-0.5
			c0,0,0.1-0.1,0.1-0.1v0C377,201,377.1,200.7,377.1,200.4z"/>
		<path class="st1" d="M402.8,213.1h-7l-0.1-0.1l-6.9-6.9v0l-4.5-4.5V195h12.1c0.4,0,0.7,0,1,0.1c1,0.2,1.9,0.7,2.7,1.4
			c0.7,0.7,1.2,1.6,1.4,2.5c0.1,0.4,0.1,0.8,0.1,1.2c0,0.2,0,0.4,0,0.6c-0.1,1.5-0.6,2.8-1.7,3.8c-1,1-2.4,1.6-3.8,1.6h0l-0.1,0
			c-0.1,0-0.2,0-0.2,0L402.8,213.1z M384.3,203.6l4.5,4.5v5h-4.5V203.6z M395.9,201.8c0.1,0,0.1,0,0.2-0.1c0.2-0.1,0.4-0.2,0.6-0.4
			c0,0,0,0,0.1-0.1c0,0,0,0,0,0l0,0c0,0,0,0,0,0l0,0c0,0,0,0,0.1-0.1c0,0,0,0,0-0.1c0-0.1,0.1-0.1,0.1-0.2c0.1-0.2,0.1-0.4,0.1-0.6
			c0,0,0-0.1,0-0.1c0,0,0-0.1,0-0.1c0-0.1,0-0.1,0-0.2c0-0.1,0-0.2-0.1-0.2h-7.8l2.1,2.1h4.3C395.7,201.8,395.8,201.8,395.9,201.8z"
			/>
		<path class="st1" d="M410.9,206.3l-5.5-5.5V195h15.1v4.5h-10.1l2.3,2.3h7.8v4.5H410.9z M420.6,208.6l0,4.5h-15.1v-10.2l4.5,4.5
			v1.3H420.6z"/>
		<path class="st1" d="M441.1,205.8c0.2,0.5,0.2,1.1,0.2,1.6c0,0.6-0.1,1.1-0.2,1.6c-0.3,1.1-1.1,2.2-2,2.9c-1,0.7-2.2,1.1-3.4,1.1
			h-12.5v-4.5h12.5c0.6,0,1.2-0.5,1.2-1.2c0-0.6-0.5-1.2-1.2-1.2h-6.8c-0.6,0-1.1-0.1-1.6-0.2c-0.9-0.3-1.7-0.8-2.4-1.4
			s-1.1-1.5-1.4-2.4c-0.2-0.5-0.2-1.1-0.2-1.6s0.1-1.1,0.2-1.6c0.3-0.9,0.8-1.7,1.4-2.4s1.5-1.1,2.4-1.4c0.1,0,0.3-0.1,0.4-0.1
			l0.2,0l4.4,4.4h-3.4c-0.6,0-1.2,0.5-1.2,1.2s0.5,1.2,1.2,1.2h6.8c0,0,0.1,0,0.1,0h0c0,0,0,0,0.1,0l0,0c0.1,0,0.1,0,0.2,0
			c0,0,0,0,0,0l0,0c0,0,0,0,0,0c0,0,0,0,0,0l0,0c0.1,0,0.1,0,0.2,0l0,0c0,0,0.1,0,0.1,0l0,0c0.1,0,0.1,0,0.2,0l0.1,0
			c0,0,0.1,0,0.1,0l0,0c0.1,0,0.1,0,0.2,0h0l0,0c0,0,0,0,0,0l0,0c0,0,0.1,0,0.1,0l0,0c0.1,0,0.2,0.1,0.3,0.1l0,0
			c0.1,0,0.1,0,0.2,0.1l0,0c0.1,0,0.1,0.1,0.2,0.1l0,0c0,0,0,0,0.1,0l0,0c0,0,0.1,0,0.1,0.1l0,0c0.1,0,0.2,0.1,0.2,0.1l0,0l0.1,0.1
			c0.1,0,0.1,0.1,0.2,0.1l0,0c0.1,0,0.1,0.1,0.2,0.1l0,0c0.1,0.1,0.2,0.2,0.3,0.3l0,0c0,0,0.1,0.1,0.1,0.1c0,0,0.1,0,0.1,0.1l0,0
			c0,0,0,0,0,0l0,0c0,0,0,0,0,0l0,0c0,0,0,0,0.1,0.1l0,0c0.1,0.1,0.2,0.2,0.2,0.3c0,0,0,0,0,0.1l0,0.1c0,0,0,0,0,0l0,0
			c0,0,0,0,0.1,0.1c0,0,0,0,0,0l0,0c0,0,0.1,0.1,0.1,0.1l0,0c0,0,0,0.1,0.1,0.1l0,0c0,0,0,0.1,0.1,0.1l0,0.1
			c0.1,0.1,0.2,0.3,0.3,0.5l0,0c0,0.1,0.1,0.2,0.1,0.3l0,0.1c0,0,0,0,0,0l0,0l0.1,0.2c0,0,0,0,0,0l0,0c0,0,0,0,0,0.1L441.1,205.8
			L441.1,205.8z M441.3,195v4.5h-7.1l-4.5-4.5H441.3z"/>
		<path class="st1" d="M449.4,206.3l-5.5-5.5V195h15.1v4.5h-10.1l2.3,2.3h7.8v4.5H449.4z M459.1,208.6l0,4.5H444v-10.2l4.5,4.5v1.3
			H459.1z"/>
		<path class="st1" d="M478.4,194.5v18.6h-4.2l-0.2-0.2l-4.9-4.9l-2.9-2.9v0l-4.5-4.5V195h0.7l0.1,0.1l11.4,11.4V199l0.1-0.1
			L478.4,194.5z M461.7,202.7l4.5,4.5v5.9h-4.5V202.7z"/>
		<path class="st1" d="M499.2,195v4.5h-6.8v6.7l-4.5-4.5v-2.2h-6.8V195H499.2z M487.9,203.7l4.5,4.5v4.9h-4.5V203.7z"/>
		<path class="st1" d="M507.3,206.3l-5.5-5.5V195h15.1v4.5h-10.1l2.3,2.3h7.8v4.5H507.3z M516.9,208.6l0,4.5h-15.1v-10.2l4.5,4.5
			v1.3H516.9z"/>
		<path class="st1" d="M537.6,204c0,1.8-0.5,3.6-1.6,5.1c0,0,0,0,0,0.1c-1.7,2.4-4.4,3.9-7.4,3.9h-9v-10.9l4.5,4.5v1.9h4.5
			c0.1,0,0.2,0,0.3,0c1.4-0.1,2.6-0.8,3.4-1.9c0,0,0,0,0,0c0.5-0.8,0.8-1.6,0.8-2.6c0-0.9-0.3-1.8-0.8-2.6c0,0,0,0,0,0l0,0
			c-0.8-1.2-2.2-1.9-3.7-1.9h-4.5v5.1l-4.5-4.5V195h9c2.9,0,5.7,1.5,7.4,3.9c0,0,0,0,0,0C537.1,200.4,537.6,202.2,537.6,204z"/>
		<path class="st1" d="M566.9,204c1,1,1.5,2.3,1.5,3.7c0,0.4-0.1,0.9-0.2,1.3c-0.6,2.2-2.5,3.8-4.7,4c-0.1,0-0.3,0-0.4,0h-10.4v-8.6
			l4.5,4.5v0.2h4.9c0.8,0,1.4-0.6,1.4-1.4c0-0.8-0.6-1.4-1.4-1.4h-4.9v0.5l-4.5-4.5V195h10.4c2.5,0,4.6,1.7,5.2,4
			c0.1,0.4,0.2,0.9,0.2,1.3C568.5,201.7,567.9,203,566.9,204z M557.2,200.6l1.2,1.2h3.7c0.8,0,1.4-0.6,1.4-1.4
			c0-0.8-0.6-1.4-1.4-1.4h-4.9V200.6z"/>
		<path class="st1" d="M593.2,195l-10,10v4.5l-0.6-0.6l-3.9-3.9v0l-10-10h6.3l0.1,0.1l5.8,5.8l5.9-5.9H593.2z M578.7,207l4.5,4.5
			v1.6h-4.5V207z"/>
	</g>
</g>
</svg>
