<?xml version="1.0" encoding="utf-8"?>
<!-- Generator: Adobe Illustrator 27.0.1, SVG Export Plug-In . SVG Version: 6.00 Build 0)  -->
<svg version="1.1" id="Layer_1" xmlns="http://www.w3.org/2000/svg" xmlns:xlink="http://www.w3.org/1999/xlink" x="0px" y="0px"
	 viewBox="0 0 448 512" style="enable-background:new 0 0 448 512;" xml:space="preserve">
<style type="text/css">
	.st0{fill:#FFFFFF;}
</style>
<path class="st0" d="M368,80h32v32h-32V80z M352,32c-17.7,0-32,14.3-32,32H128c0-17.7-14.3-32-32-32H32C14.3,32,0,46.3,0,64v64
	c0,17.7,14.3,32,32,32v192c-17.7,0-32,14.3-32,32v64c0,17.7,14.3,32,32,32h64c17.7,0,32-14.3,32-32h192c0,17.7,14.3,32,32,32h64
	c17.7,0,32-14.3,32-32v-64c0-17.7-14.3-32-32-32V160c17.7,0,32-14.3,32-32V64c0-17.7-14.3-32-32-32H352z M96,160
	c17.7,0,32-14.3,32-32h192c0,17.7,14.3,32,32,32v192c-17.7,0-32,14.3-32,32H128c0-17.7-14.3-32-32-32V160z M48,400h32v32H48V400z
	 M368,432v-32h32v32H368z M48,112V80h32v32H48z"/>
</svg>
