<?xml version="1.0" encoding="utf-8"?>
<!-- Generator: Adobe Illustrator 27.0.1, SVG Export Plug-In . SVG Version: 6.00 Build 0)  -->
<svg version="1.1" id="Layer_1" xmlns="http://www.w3.org/2000/svg" xmlns:xlink="http://www.w3.org/1999/xlink" x="0px" y="0px"
	 viewBox="0 0 1000 1000" style="enable-background:new 0 0 1000 1000;" xml:space="preserve">
<style type="text/css">
	.st0{fill:#FFFFFF;}
</style>
<path class="st0" d="M500,33c63.1,0,124.2,12.3,181.8,36.7c55.6,23.5,105.6,57.2,148.4,100.1c42.9,42.9,76.6,92.8,100.1,148.4
	C954.7,375.8,967,436.9,967,500s-12.3,124.2-36.7,181.8c-23.5,55.6-57.2,105.6-100.1,148.4c-42.9,42.9-92.8,76.6-148.4,100.1
	C624.2,954.7,563.1,967,500,967s-124.2-12.3-181.8-36.7c-55.6-23.5-105.6-57.2-148.4-100.1c-42.9-42.9-76.6-92.8-100.1-148.4
	C45.3,624.2,33,563.1,33,500s12.3-124.2,36.7-181.8c23.5-55.6,57.2-105.6,100.1-148.4c42.9-42.9,92.8-76.6,148.4-100.1
	C375.8,45.3,436.9,33,500,33 M500,10C229.4,10,10,229.4,10,500s219.4,490,490,490s490-219.4,490-490S770.6,10,500,10L500,10z"/>
<g>
	<path class="st0" d="M230.6,375.8v159.6c0,16,3.9,28.3,11.8,36.9c7.8,8.6,19.4,12.9,34.6,12.9c15.2,0,26.8-4.3,35-12.9
		c8.1-8.6,12.2-20.9,12.2-36.9V375.8h65V535c0,23.8-5.1,44-15.2,60.4c-10.1,16.5-23.8,28.9-40.9,37.2s-36.2,12.5-57.2,12.5
		s-39.8-4.1-56.4-12.3s-29.7-20.6-39.3-37.2c-9.6-16.6-14.4-36.8-14.4-60.6V375.8H230.6z"/>
	<path class="st0" d="M620.4,504c-7.1,12.8-18,23.1-32.7,31s-32.9,11.8-54.7,11.8h-40.3v95.8h-65V375.8H533c21.3,0,39.3,3.7,54,11
		c14.7,7.4,25.7,17.5,33.1,30.4c7.3,12.9,11,27.7,11,44.5C631.1,477.1,627.5,491.2,620.4,504z M555.8,486.3
		c6.1-5.8,9.1-14.1,9.1-24.7s-3-18.9-9.1-24.7c-6.1-5.8-15.3-8.7-27.7-8.7h-35.3v66.9h35.3C540.5,495.1,549.8,492.2,555.8,486.3z"/>
	<path class="st0" d="M723,427.8v54h87V532h-87v58.5h98.4v52.1H658V375.8h163.4v52.1H723V427.8z"/>
</g>
</svg>
