<?xml version="1.0" encoding="utf-8"?>
<!-- Generator: Adobe Illustrator 26.0.3, SVG Export Plug-In . SVG Version: 6.00 Build 0)  -->
<svg version="1.1" id="Layer_1" xmlns="http://www.w3.org/2000/svg" xmlns:xlink="http://www.w3.org/1999/xlink" x="0px" y="0px"
	 viewBox="0 0 9489.5 1204.8" style="enable-background:new 0 0 9489.5 1204.8;" xml:space="preserve">
<style type="text/css">
	.st0{fill:url(#U_Circle_00000097477786317281558400000013118873958443298989_);}
	.st1{fill:#161616;}
	.st2{fill:#EAEAEA;}
</style>
<g id="UPE_Logo_00000127733654113110651050000014822685034196537791_">
	
		<linearGradient id="U_Circle_00000165956852778283603830000014587018493129311156_" gradientUnits="userSpaceOnUse" x1="279.508" y1="1127.2845" x2="838.7107" y2="158.7171" gradientTransform="matrix(1 0 0 -1 0 1202.1101)">
		<stop  offset="0" style="stop-color:#F8E704"/>
		<stop  offset="1" style="stop-color:#F1984C"/>
	</linearGradient>
	
		<circle id="U_Circle" style="fill:url(#U_Circle_00000165956852778283603830000014587018493129311156_);" cx="559.1" cy="559.1" r="559.1"/>
	<g id="UPE">
		<g>
			<path id="U_00000088122023958540480640000016389453643249244310_" class="st1" d="M251.7,417.4v182.1c0,18.3,4.5,32.3,13.5,42.1
				c8.9,9.8,22.1,14.7,39.5,14.7c17.3,0,30.6-4.9,39.9-14.7c9.2-9.8,13.9-23.8,13.9-42.1V417.4h74.2V599c0,27.2-5.8,50.2-17.3,68.9
				c-11.5,18.8-27.2,33-46.7,42.4c-19.5,9.5-41.3,14.3-65.3,14.3c-24,0-45.4-4.7-64.4-14c-18.9-9.4-33.9-23.5-44.8-42.4
				c-11-18.9-16.4-42-16.4-69.1V417.4H251.7z"/>
			<path id="P_00000125560852894262131430000009664918971474374052_" class="st1" d="M696.5,563.7c-8.1,14.6-20.5,26.4-37.3,35.4
				c-16.8,9-37.5,13.5-62.4,13.5h-46v109.3h-74.2V417.4h120.2c24.3,0,44.8,4.2,61.6,12.6c16.8,8.4,29.3,20,37.8,34.7
				c8.3,14.7,12.6,31.6,12.6,50.8C708.7,533,704.6,549.1,696.5,563.7z M622.8,543.5c7-6.6,10.4-16.1,10.4-28.2s-3.4-21.6-10.4-28.2
				c-7-6.6-17.5-9.9-31.6-9.9h-40.3v76.3h40.3C605.3,553.5,615.9,550.2,622.8,543.5z"/>
			<path id="E_00000163783329771589518250000012549259215066156729_" class="st1" d="M813.6,476.7v61.6h99.3v57.3h-99.3v66.8h112.3
				v59.4H739.4V417.4h186.4v59.4H813.6V476.7z"/>
		</g>
	</g>
	<g>
		<path class="st2" d="M1437.3,230.3h172.2v422.8c0,83.5,41.3,131.9,122.8,131.9s124.8-48.3,124.8-131.9V230.3h172.2v421.8
			c0,195.3-136.9,291.9-300,291.9c-164.1,0-291.9-96.6-291.9-291.9V230.3z"/>
		<path class="st2" d="M2450.9,367.2c137.9,0,247.7,110.7,247.7,287.9c0,177.2-109.8,289.9-247.7,289.9
			c-82.5,0-141.9-39.3-173.1-86.6v346.3h-172.2V375.2h172.2v79.6C2308.9,405.4,2368.3,367.2,2450.9,367.2z M2399.5,517.2
			c-64.4,0-122.8,49.4-122.8,138.9S2335.1,795,2399.5,795c65.4,0,123.8-50.3,123.8-139.9S2465,517.2,2399.5,517.2z"/>
		<path class="st2" d="M2973.1,945c-150,0-250.7-83.6-258.7-192.3h170.1c4,39.2,39.3,65.4,86.6,65.4c44.3,0,67.5-20.2,67.5-45.3
			c0-90.6-306.1-25.2-306.1-231.5c0-95.6,81.6-174.1,228.5-174.1c145,0,225.5,80.5,236.6,191.3h-159.1c-5-38.3-34.2-63.4-82.6-63.4
			c-40.2,0-62.4,16.1-62.4,43.3c0,89.6,304,26.2,307.1,235.6C3200.6,871.5,3114.1,945,2973.1,945z"/>
		<path class="st2" d="M3245.8,224.2c0-52.3,41.2-93.6,102.6-93.6c60.4,0,101.7,41.3,101.7,93.6c0,51.4-41.2,92.6-101.7,92.6
			C3287,316.8,3245.8,275.6,3245.8,224.2z M3261.9,375.2h172.2V937h-172.2V375.2z"/>
		<path class="st2" d="M3514.5,192h172.2v745h-172.2V192z"/>
		<path class="st2" d="M4022.8,945c-165.1,0-289.9-110.8-289.9-288.9c0-178.2,127.8-288.9,291.9-288.9
			c165.1,0,291.9,110.7,291.9,288.9C4316.7,834.3,4187.9,945,4022.8,945z M4022.8,796c61.4,0,118.8-45.3,118.8-139.9
			c0-95.6-56.4-139.9-116.8-139.9c-62.4,0-116.8,44.3-116.8,139.9C3908,750.8,3960.4,796,4022.8,796z"/>
		<path class="st2" d="M4751.4,631.9c0-76.5-42.3-118.8-107.7-118.8S4536,555.5,4536,631.9V937h-172.2V375.2H4536v74.5
			c34.2-47.3,94.6-80.5,170.1-80.5c129.9,0,216.5,88.6,216.5,239.6V937h-171.2V631.9z"/>
		<path class="st2" d="M5445.8,683.3h-106.7V937h-172.2V230.3h278.8c173.2,0,259.7,97.7,259.7,227.5
			C5705.5,574.6,5626,683.3,5445.8,683.3z M5432.7,546.4c68.5,0,97.7-34.2,97.7-88.6s-29.2-88.6-97.7-88.6h-93.6v177.2H5432.7z"/>
		<path class="st2" d="M5734.6,224.2c0-52.3,41.2-93.6,102.6-93.6c60.4,0,101.7,41.3,101.7,93.6c0,51.4-41.3,92.6-101.7,92.6
			C5775.8,316.8,5734.6,275.6,5734.6,224.2z M5750.7,375.2h172.2V937h-172.2V375.2z"/>
		<path class="st2" d="M6605.2,368.2h-260.7v142.9H6575V644h-230.5v155h260.7V937h-432.9V230.3h432.9V368.2z"/>
		<path class="st2" d="M7017.7,367.2c137.9,0,247.6,110.7,247.6,287.9c0,177.2-109.8,289.9-247.6,289.9c-82.6,0-142-39.3-173.2-86.6
			v346.3h-172.1V375.2h172.1v79.6C6875.7,405.4,6935.1,367.2,7017.7,367.2z M6966.3,517.2c-64.4,0-122.8,49.4-122.8,138.9
			S6901.9,795,6966.3,795c65.4,0,123.9-50.3,123.9-139.9S7031.7,517.2,6966.3,517.2z"/>
		<path class="st2" d="M7540,945c-150,0-250.7-83.6-258.8-192.3h170.1c4,39.2,39.3,65.4,86.6,65.4c44.3,0,67.4-20.2,67.4-45.3
			c0-90.6-306-25.2-306-231.5c0-95.6,81.5-174.1,228.5-174.1c145,0,225.6,80.5,236.6,191.3h-159.1c-5-38.3-34.2-63.4-82.5-63.4
			c-40.3,0-62.4,16.1-62.4,43.3c0,89.6,304,26.2,307,235.6C7767.5,871.5,7680.9,945,7540,945z"/>
		<path class="st2" d="M7812.6,224.2c0-52.3,41.3-93.6,102.7-93.6c60.4,0,101.7,41.3,101.7,93.6c0,51.4-41.3,92.6-101.7,92.6
			C7853.9,316.8,7812.6,275.6,7812.6,224.2z M7828.7,375.2h172.2V937h-172.2V375.2z"/>
		<path class="st2" d="M8081.3,192h172.2v745h-172.2V192z"/>
		<path class="st2" d="M8589.6,945c-165.1,0-289.9-110.8-289.9-288.9c0-178.2,127.8-288.9,291.9-288.9
			c165.1,0,291.9,110.7,291.9,288.9C8883.5,834.3,8754.7,945,8589.6,945z M8589.6,796c61.5,0,118.8-45.3,118.8-139.9
			c0-95.6-56.4-139.9-116.8-139.9c-62.4,0-116.8,44.3-116.8,139.9C8474.9,750.8,8527.2,796,8589.6,796z"/>
		<path class="st2" d="M9318.4,631.9c0-76.5-42.4-118.8-107.7-118.8c-65.5,0-107.7,42.3-107.7,118.8V937h-172.2V375.2h172.2v74.5
			c34.2-47.3,94.6-80.5,170.1-80.5c129.8,0,216.4,88.6,216.4,239.6V937h-171.1V631.9z"/>
	</g>
</g>
</svg>
