<?xml version="1.0" encoding="utf-8"?>
<!-- Generator: Adobe Illustrator 27.0.1, SVG Export Plug-In . SVG Version: 6.00 Build 0)  -->
<svg version="1.1" id="Layer_1" xmlns="http://www.w3.org/2000/svg" xmlns:xlink="http://www.w3.org/1999/xlink" x="0px" y="0px"
	 viewBox="0 0 6776.8 4869.7" style="enable-background:new 0 0 6776.8 4869.7;" xml:space="preserve">
<style type="text/css">
	.st0{fill:#EAEAEA;}
	.st1{fill:url(#SVGID_1_);}
	.st2{fill:#FFFFFF;}
</style>
<g>
	<path class="st0" d="M10.2,4051.2h144.6v355.1c0,70.1,34.7,110.8,103.1,110.8s104.8-40.6,104.8-110.8v-355.1h144.6v354.3
		c0,164-115,245.2-252,245.2c-137.8,0-245.2-81.1-245.2-245.2L10.2,4051.2L10.2,4051.2z"/>
	<path class="st0" d="M861.5,4166.2c115.8,0,208,93,208,241.8c0,148.8-92.2,243.5-208,243.5c-69.3,0-119.2-33-145.4-72.7v290.9
		H571.5v-696.7h144.6v66.9C742.3,4198.3,792.2,4166.2,861.5,4166.2z M818.4,4292.2c-54.1,0-103.1,41.5-103.1,116.7
		c0,75.2,49.1,116.7,103.1,116.7c54.9,0,104-42.2,104-117.5S873.4,4292.2,818.4,4292.2z"/>
	<path class="st0" d="M1300.1,4651.5c-126,0-210.6-70.2-217.3-161.5h142.9c3.4,32.9,33,54.9,72.7,54.9c37.2,0,56.7-17,56.7-38
		c0-76.1-257.1-21.2-257.1-194.4c0-80.3,68.5-146.2,191.9-146.2c121.8,0,189.4,67.6,198.7,160.7h-133.6
		c-4.2-32.2-28.7-53.3-69.4-53.3c-33.8,0-52.4,13.5-52.4,36.4c0,75.3,255.3,22,257.9,197.9
		C1491.2,4589.8,1418.6,4651.5,1300.1,4651.5z"/>
	<path class="st0" d="M1529.2,4046.1c0-43.9,34.6-78.6,86.2-78.6c50.7,0,85.4,34.7,85.4,78.6c0,43.2-34.6,77.8-85.4,77.8
		C1563.8,4123.9,1529.2,4089.3,1529.2,4046.1z M1542.7,4172.9h144.6v471.9h-144.6V4172.9z"/>
	<path class="st0" d="M1754.9,4019.1h144.6v625.7h-144.6V4019.1z"/>
	<path class="st0" d="M2181.8,4651.5c-138.7,0-243.5-93.1-243.5-242.7c0-149.7,107.3-242.7,245.2-242.7
		c138.7,0,245.2,93,245.2,242.7C2428.7,4558.6,2320.5,4651.5,2181.8,4651.5z M2181.8,4526.4c51.6,0,99.8-38,99.8-117.5
		c0-80.3-47.4-117.5-98.1-117.5c-52.4,0-98.1,37.2-98.1,117.5C2085.4,4488.4,2129.4,4526.4,2181.8,4526.4z"/>
	<path class="st0" d="M2793.8,4388.6c0-64.3-35.5-99.8-90.5-99.8s-90.5,35.6-90.5,99.8v256.3h-144.6v-471.9h144.6v62.6
		c28.7-39.7,79.5-67.6,142.9-67.6c109.1,0,181.8,74.4,181.8,201.2v275.7h-143.8V4388.6z"/>
	<path class="st0" d="M3377,4431.7h-89.6v213.1h-144.6v-593.6h234.2c145.5,0,218.1,82.1,218.1,191.1
		C3595.2,4340.4,3528.4,4431.7,3377,4431.7z M3366,4316.7c57.5,0,82.1-28.7,82.1-74.4s-24.5-74.4-82.1-74.4h-78.6v148.8H3366z"/>
	<path class="st0" d="M3619.6,4046.1c0-43.9,34.6-78.6,86.2-78.6c50.7,0,85.4,34.7,85.4,78.6c0,43.2-34.7,77.8-85.4,77.8
		C3654.2,4123.9,3619.6,4089.3,3619.6,4046.1z M3633.1,4172.9h144.6v471.9h-144.6V4172.9z"/>
	<path class="st0" d="M4350.8,4167.1h-219v120h193.6v111.6h-193.6v130.2h219v115.9h-363.6v-593.6h363.6V4167.1z"/>
	<path class="st0" d="M4697.3,4166.2c115.8,0,208,93,208,241.8c0,148.8-92.2,243.5-208,243.5c-69.4,0-119.3-33-145.5-72.7v290.9
		h-144.6v-696.7h144.6v66.9C4578,4198.3,4627.9,4166.2,4697.3,4166.2z M4654.1,4292.2c-54.1,0-103.1,41.5-103.1,116.7
		c0,75.2,49.1,116.7,103.1,116.7c54.9,0,104.1-42.2,104.1-117.5S4709.1,4292.2,4654.1,4292.2z"/>
	<path class="st0" d="M5136,4651.5c-126,0-210.6-70.2-217.4-161.5h142.9c3.4,32.9,33,54.9,72.7,54.9c37.2,0,56.6-17,56.6-38
		c0-76.1-257-21.2-257-194.4c0-80.3,68.5-146.2,191.9-146.2c121.8,0,189.5,67.6,198.7,160.7h-133.6c-4.2-32.2-28.7-53.3-69.3-53.3
		c-33.8,0-52.4,13.5-52.4,36.4c0,75.3,255.3,22,257.9,197.9C5327.1,4589.8,5254.3,4651.5,5136,4651.5z"/>
	<path class="st0" d="M5365,4046.1c0-43.9,34.7-78.6,86.3-78.6c50.7,0,85.4,34.7,85.4,78.6c0,43.2-34.7,77.8-85.4,77.8
		C5399.7,4123.9,5365,4089.3,5365,4046.1z M5378.5,4172.9h144.6v471.9h-144.6V4172.9z"/>
	<path class="st0" d="M5590.7,4019.1h144.6v625.7h-144.6V4019.1z"/>
	<path class="st0" d="M6017.6,4651.5c-138.7,0-243.5-93.1-243.5-242.7c0-149.7,107.3-242.7,245.2-242.7
		c138.7,0,245.2,93,245.2,242.7C6264.4,4558.6,6156.3,4651.5,6017.6,4651.5z M6017.6,4526.4c51.7,0,99.8-38,99.8-117.5
		c0-80.3-47.4-117.5-98.1-117.5c-52.4,0-98.1,37.2-98.1,117.5C5921.2,4488.4,5965.2,4526.4,6017.6,4526.4z"/>
	<path class="st0" d="M6629.7,4388.6c0-64.3-35.6-99.8-90.5-99.8c-55,0-90.5,35.5-90.5,99.8v256.3h-144.6v-471.9h144.6v62.6
		c28.7-39.7,79.5-67.6,142.9-67.6c109,0,181.8,74.4,181.8,201.2v275.7h-143.7V4388.6z"/>
</g>
<g>
	
		<linearGradient id="SVGID_1_" gradientUnits="userSpaceOnUse" x1="2460.3982" y1="4714.2983" x2="4316.4019" y2="1499.6057" gradientTransform="matrix(1 0 0 -1 0 4962.6455)">
		<stop  offset="0" style="stop-color:#FAE910"/>
		<stop  offset="1" style="stop-color:#F2994A"/>
	</linearGradient>
	<circle class="st1" cx="3388.4" cy="1855.7" r="1855.7"/>
	<g>
		<path class="st2" d="M2368.1,1385.3v604.4c0,60.6,14.8,107.2,44.7,139.7c29.5,32.6,73.5,48.9,131,48.9
			c57.6,0,101.5-16.3,132.5-48.9c30.7-32.6,46.2-79.2,46.2-139.7v-604.4h246.2v602.9c0,90.1-19.3,166.6-57.6,228.7
			c-38.2,62.5-90.1,109.4-154.9,140.9s-137.1,47.3-216.6,47.3s-150.7-15.5-213.6-46.6c-62.9-31.1-112.5-78-148.8-140.9
			c-36.4-62.9-54.5-139.4-54.5-229.5v-602.9H2368.1z"/>
		<path class="st2" d="M3844.4,1870.8c-26.9,48.5-68.2,87.5-123.8,117.4c-55.7,29.9-124.6,44.7-207.2,44.7h-152.6v362.8h-246.2
			V1385.3h398.8c80.7,0,148.8,14,204.5,41.7c55.7,28,97.3,66.3,125.4,115.1c27.6,48.9,41.7,104.9,41.7,168.5
			C3884.9,1769,3871.3,1822.4,3844.4,1870.8z M3599.7,1803.8c23.1-22,34.5-53.4,34.5-93.5s-11.4-71.6-34.5-93.5
			s-57.9-32.9-104.9-32.9h-133.7v253.4h133.7C3541.8,1837.1,3577,1826.2,3599.7,1803.8z"/>
		<path class="st2" d="M4232.9,1582.3v204.5h329.5v190.1h-329.5v221.5h372.7v197.3h-618.8V1385.3h618.8v197.3h-372.7V1582.3z"/>
	</g>
</g>
</svg>
