<?xml version="1.0" encoding="utf-8"?>
<!-- Generator: Adobe Illustrator 27.0.1, SVG Export Plug-In . SVG Version: 6.00 Build 0)  -->
<svg version="1.1" id="Layer_1" xmlns="http://www.w3.org/2000/svg" xmlns:xlink="http://www.w3.org/1999/xlink" x="0px" y="0px"
	 viewBox="0 0 1000 1000" style="enable-background:new 0 0 1000 1000;" xml:space="preserve">
<style type="text/css">
	.st0{fill:#FFFFFF;}
</style>
<path class="st0" d="M528.1,428.2h-35.3v66.9h35.3c12.4,0,21.7-2.9,27.7-8.8c6.1-5.8,9.1-14.1,9.1-24.7c0-10.6-3-18.9-9.1-24.7
	S540.5,428.2,528.1,428.2z"/>
<path class="st0" d="M500,10C229.4,10,10,229.4,10,500s219.4,490,490,490s490-219.4,490-490S770.6,10,500,10z M389.2,535
	c0,23.8-5.1,44-15.2,60.4c-10.1,16.5-23.8,28.9-40.9,37.2c-17.1,8.3-36.2,12.5-57.2,12.5s-39.8-4.1-56.4-12.3s-29.7-20.6-39.3-37.2
	c-9.6-16.6-14.4-36.8-14.4-60.6V375.8h64.8v159.6c0,16,3.9,28.3,11.8,36.9c7.8,8.6,19.4,12.9,34.6,12.9c15.2,0,26.8-4.3,35-12.9
	c8.1-8.6,12.2-20.9,12.2-36.9V375.8h65V535z M620.4,504c-7.1,12.8-18,23.1-32.7,31s-32.9,11.8-54.7,11.8h-40.3v95.8h-65V375.8H533
	c21.3,0,39.3,3.7,54,11c14.7,7.4,25.7,17.5,33.1,30.4c7.3,12.9,11,27.7,11,44.5C631.1,477.1,627.5,491.2,620.4,504z M821.4,427.9
	H723v53.9h87V532h-87v58.5h98.4v52.1H658V375.8h163.4V427.9z"/>
</svg>
