<?xml version="1.0" encoding="UTF-8"?>
<svg id="Layer_2" data-name="Layer 2" xmlns="http://www.w3.org/2000/svg" viewBox="0 0 797.76 323.1">
  <defs>
    <style>
      .cls-1 {
        fill: #fff;
      }
    </style>
  </defs>
  <g id="Layer_2-2" data-name="Layer 2">
    <path class="cls-1" d="M202.72,22.78c-24.06,0-44.72,16.9-49.81,40h99.61c-5.09-23.1-25.74-40-49.81-40Z"/>
    <rect class="cls-1" x="445.5" y="112.89" width="162.86" height="53.78" rx="2.87" ry="2.87"/>
    <path class="cls-1" d="M227.31,306.69l-18.01-43.03c-.63-1.5-1.96-1.74-2.5-1.78-.54-.04-1.89,.03-2.71,1.44l-15.7,26.84c-1.95,3.33-5.56,5.4-9.42,5.4H79.9c-4.22,0-7.99-2.36-9.83-6.17-1.84-3.8-1.35-8.22,1.27-11.53l47.62-60.07c.36-.45,.57-.97,.62-1.52l6-64.08c.08-.83-.19-1.62-.75-2.24-.56-.61-1.32-.95-2.15-.95h-42.18c-1.5,0-2.75,1.13-2.9,2.63l-5.58,56.72c-.22,2.29-1.2,4.51-2.76,6.23L.76,290.39c-.75,.83-.79,1.75-.74,2.23,.05,.48,.26,1.38,1.15,2.05l37,27.84c.5,.38,1.13,.59,1.76,.59H216.76c1,0,1.92-.5,2.45-1.34l7.87-12.37c.51-.8,.59-1.81,.22-2.7Z"/>
    <path class="cls-1" d="M796.27,261.01l-38.79-77.58c-.5-1-1.55-1.65-2.67-1.65H439.89c-.45,0-.9,.1-1.3,.3l-46.7,22.46c-1.03,.5-1.69,1.56-1.69,2.7v55.11c0,1.65,1.34,2.99,2.99,2.99h400.42c1.5,0,2.28-.99,2.54-1.42s.8-1.56,.13-2.91Z"/>
    <path class="cls-1" d="M430.49,167.5v-56c0-1.11-.65-2.13-1.64-2.62l-34.5-16.59c-1.3-.62-2.39-.1-2.8,.16-.41,.26-1.36,1.01-1.36,2.45v89.46c.1,1.24,.92,1.92,1.28,2.16,.38,.25,1.39,.78,2.65,.29l34.72-16.7c1-.48,1.64-1.51,1.64-2.62Z"/>
    <path class="cls-1" d="M797.31,15.63c-.26-.42-1.03-1.41-2.52-1.41H393.15c-1.63,0-2.96,1.33-2.96,2.96v54.61c0,1.13,.66,2.18,1.67,2.67l47.88,23.03c.4,.19,.85,.29,1.29,.29h314.94c1.13,0,2.15-.63,2.65-1.64l38.82-77.63c.66-1.33,.13-2.46-.14-2.88Z"/>
    <path class="cls-1" d="M47.3,134H339.66c1.56,0,2.83-1.27,2.83-2.83v-50.56c0-1.56-1.27-2.83-2.83-2.83H48.65c-.25,0-1.12,.05-1.84,.67-.8,.69-.93,1.73-.95,2.07l-1.4,50.58c-.02,.77,.26,1.5,.8,2.05,.54,.55,1.26,.86,2.03,.86Z"/>
    <g>
      <path class="cls-1" d="M243.1,305.38c.44,1.06,1.47,1.74,2.62,1.74h129.49c1.07,0,2.04-.59,2.53-1.55l10.83-21.1c.66-1.28,.14-2.38-.11-2.79-.25-.41-.99-1.36-2.42-1.36-5.98,0-10.84-4.86-10.84-10.84v-80l-.03,.17c-.86,4.91-4.94,8.59-9.91,8.96h-.2s-115.08,2.61-115.08,2.61c-2.96,.06-5.72-1.06-7.8-3.11s-3.24-4.8-3.24-7.73v-38.54c0-1.57-1.27-2.84-2.84-2.84h-54.17c-1.38,0-2.11,.89-2.37,1.27-.25,.38-.78,1.4-.25,2.67l63.79,152.43Z"/>
      <path class="cls-1" d="M375.2,144.04V36.42c0-.08,0-.17-.01-.25l-.69-7.49c-.06-.67-.37-1.31-.86-1.78L346.6,.8c-.53-.51-1.24-.8-1.97-.8H101.99c-.91,0-1.77,.44-2.31,1.18L58.03,58.57c-.67,1.16-.26,2.24-.04,2.67,.24,.47,.96,1.55,2.53,1.55h74.74c1.36,0,2.52-.97,2.8-2.36,6.28-30.5,33.46-52.64,64.64-52.64s58.37,22.14,64.64,52.64c.29,1.39,1.44,2.36,2.8,2.36h69.51c9.84,0,17.84,8,17.84,17.84v50.54c0,1.57,1.27,2.84,2.84,2.84h4.06c5.7,0,10.39,4.43,10.81,10.03Z"/>
    </g>
    <path class="cls-1" d="M256.82,149c-1.58,0-2.87,1.29-2.87,2.87v31.37c0,.78,.3,1.5,.86,2.05,.55,.54,1.29,.85,2.06,.82l100.56-1.65c1.55-.03,2.82-1.32,2.82-2.87v-29.72c0-1.58-1.29-2.87-2.87-2.87h-100.55Z"/>
  </g>
</svg>