<?xml version="1.0" encoding="UTF-8"?>
<svg id="Layer_2" data-name="Layer 2" xmlns="http://www.w3.org/2000/svg" viewBox="0 0 805.75 331.11">
  <defs>
    <style>
      .cls-1 {
        fill: #fff;
      }
    </style>
  </defs>
  <g id="Layer_1-2" data-name="Layer 1">
    <g>
      <rect class="cls-1" x="537.04" y="77.78" width="124" height="0"/>
      <path class="cls-1" d="M599.04,22.78c-27.96,0-51.11,20.97-54.56,48h109.11c-3.45-27.03-26.6-48-54.56-48Z"/>
    </g>
    <rect class="cls-1" x="189.4" y="112.89" width="170.86" height="61.78" rx="6.87" ry="6.87"/>
    <g>
      <polygon class="cls-1" points="564.79 305.29 565.56 303.46 564.74 305.21 564.79 305.29"/>
      <path class="cls-1" d="M733.71,211.95c-1.86-18.91-3.72-37.81-5.58-56.72-.35-3.54-3.32-6.24-6.88-6.24h-42.18c-4.07,0-7.26,3.5-6.88,7.56,2,21.36,4,42.71,6,64.07,.12,1.33,.63,2.6,1.47,3.65l47.62,60.07c3.59,4.53,.36,11.21-5.42,11.21h-99.07c-2.46,0-4.73-1.3-5.97-3.42l-15.7-26.84c-2.88-4.92-10.14-4.44-12.35,.82l-18.01,43.04c-.87,2.09-.67,4.47,.54,6.38l7.87,12.37c1.27,2,3.47,3.2,5.83,3.2h176.84c1.5,0,2.96-.49,4.16-1.39l37-27.84c3.25-2.44,3.7-7.15,.97-10.16-22.84-25.27-45.67-50.54-68.51-75.81-.99-1.1-1.61-2.49-1.75-3.96Z"/>
    </g>
    <path class="cls-1" d="M415.57,266.35v-55.12c0-2.68-1.54-5.13-3.96-6.3l-46.71-22.46c-.94-.45-1.98-.69-3.03-.69H46.95c-2.65,0-5.07,1.5-6.25,3.86L1.91,263.22c-2.32,4.65,1.06,10.11,6.25,10.11H408.58c3.86,0,6.99-3.13,6.99-6.99Z"/>
    <path class="cls-1" d="M415.57,188.1V98.91c0-5.08-5.31-8.42-9.89-6.22l-34.5,16.59c-2.39,1.15-3.91,3.57-3.91,6.22v56c0,2.65,1.52,5.07,3.91,6.22l34.83,16.75h0c4.55,1.91,9.57-1.43,9.57-6.36Z"/>
    <path class="cls-1" d="M415.57,75.79V21.18c0-3.84-3.12-6.96-6.96-6.96H6.97C1.8,14.22-1.57,19.67,.74,24.3L39.56,101.93c1.18,2.36,3.59,3.85,6.23,3.85H360.73c1.04,0,2.08-.24,3.02-.69l47.88-23.03c2.41-1.16,3.94-3.6,3.94-6.27Z"/>
    <path class="cls-1" d="M759.89,84.36c-.02-.44-.15-3.06-2.34-4.95-1.82-1.56-3.88-1.63-4.44-1.63H462.1c-3.77,0-6.83,3.06-6.83,6.83v50.56c0,3.77,3.06,6.83,6.83,6.83h292.36c3.85,0,6.94-3.18,6.83-7.02-.47-16.87-.93-33.75-1.4-50.62Z"/>
    <g>
      <path class="cls-1" d="M746.75,59.92L705.31,2.82c-1.29-1.77-3.35-2.82-5.54-2.82h-242.64c-1.77,0-3.48,.69-4.75,1.92l-27.04,26.1c-1.18,1.14-1.91,2.66-2.06,4.29l-.69,7.48c-.02,.21-.03,.42-.03,.63v233.07c0,3.78-3.06,6.84-6.84,6.84h0c-5.12,0-8.42,5.41-6.09,9.97l10.83,21.1c1.17,2.28,3.52,3.72,6.09,3.72h129.49c2.76,0,5.25-1.66,6.31-4.2l63.79-152.43c1.89-4.51-1.42-9.48-6.31-9.48h-54.17c-3.78,0-6.84,3.06-6.84,6.84v38.54c0,3.82-3.13,6.9-6.95,6.84l-115.08-2.6c-3.16-.23-5.72-2.59-6.26-5.66v-44.12c0-3.78,3.06-6.84,6.84-6.84h4.06c3.78,0,6.84-3.06,6.84-6.84v-50.54c0-7.64,6.2-13.84,13.84-13.84h69.51c3.28,0,6.06-2.34,6.72-5.55,5.8-28.22,30.78-49.45,60.72-49.45s54.91,21.23,60.72,49.45c.66,3.21,3.44,5.55,6.72,5.55h74.74c5.59,0,8.82-6.34,5.54-10.86Z"/>
      <path class="cls-1" d="M444.39,149c-3.79,0-6.87,3.07-6.87,6.87v29.72c0,3.75,3.01,6.8,6.75,6.87l100.56,1.65c3.84,.06,6.98-3.03,6.98-6.87v-31.37c0-3.79-3.07-6.87-6.87-6.87h-100.56Z"/>
    </g>
  </g>
</svg>