<?xml version="1.0" encoding="utf-8"?>
<!-- Generator: Adobe Illustrator 26.5.0, SVG Export Plug-In . SVG Version: 6.00 Build 0)  -->
<svg version="1.1" xmlns="http://www.w3.org/2000/svg" xmlns:xlink="http://www.w3.org/1999/xlink" x="0px" y="0px"
	 viewBox="0 0 1066 600" style="enable-background:new 0 0 1066 600;" xml:space="preserve">
<style type="text/css">
	.st0{fill:url(#SVGID_1_);}
	.st1{fill:url(#SVGID_00000023991152804059002460000009613266624389501838_);}
	.st2{fill:url(#SVGID_00000085228255341304520800000012909995487790882690_);}
	.st3{fill:url(#SVGID_00000144322033276376334310000002996607030485125508_);}
	.st4{fill:url(#SVGID_00000078737580152219132420000010585958593567751341_);}
	.st5{fill:url(#SVGID_00000067951704237773572140000003107804519368689058_);}
	.st6{fill:url(#SVGID_00000137131491342833173340000003816477473429325466_);}
	.st7{fill:url(#SVGID_00000003098068015583369040000012658093518242030996_);}
	.st8{fill:url(#SVGID_00000120546147276079371400000013410340848962283687_);}
	.st9{fill:url(#SVGID_00000029032054488630370010000010206323232225691808_);}
	.st10{fill:url(#SVGID_00000155855427129855431680000000856590692004534953_);}
	.st11{fill:url(#SVGID_00000137120361131209669760000007214904213954940077_);}
	.st12{fill:url(#SVGID_00000137094967635277336590000000496900195126136465_);}
	.st13{fill:url(#SVGID_00000098903589234210063510000017604309245758821309_);}
	.st14{fill:url(#SVGID_00000116938021921278627160000017967762368214832518_);}
	.st15{fill:url(#SVGID_00000039115831480452701940000008399152292486536342_);}
</style>
<g id="Layer_2">
	<radialGradient id="SVGID_1_" cx="-18.6667" cy="637.3333" r="1280.8921" gradientUnits="userSpaceOnUse">
		<stop  offset="1.275023e-02" style="stop-color:#3CC0C4"/>
		<stop  offset="0.2988" style="stop-color:#4AAFC4"/>
		<stop  offset="0.5917" style="stop-color:#51A3C3"/>
		<stop  offset="0.856" style="stop-color:#559CC3"/>
		<stop  offset="1" style="stop-color:#5699C2"/>
	</radialGradient>
	<rect class="st0" width="1066" height="600"/>
</g>
<g id="Layer_1">
	<g>
		<g>
			<g>
				<path d="M229.6,333.7h-150c-14.6,0-26.5,11.9-26.5,26.5V466c0,14.6,11.9,26.5,26.5,26.5h55.4l-4.9,14.7H95.9
					c-8.1,0-14.7,6.6-14.7,14.7c0,8.1,6.6,14.7,14.7,14.7h117.4c8.1,0,14.7-6.6,14.7-14.7c0-8.1-6.6-14.7-14.7-14.7h-34.3l-4.9-14.7
					h55.5c14.6,0,26.5-11.9,26.5-26.5V360.2C256.1,345.6,244.2,333.7,229.6,333.7z M229.6,466h-150V360.2h150V466
					C229.7,466,229.7,466,229.6,466z"/>
				<g>
					<path d="M130.4,389.1h-6.6h-4.3h-3.8l-19.7,31v9.1h23.2v8h11.1v-8h5.7V420h-5.7V389.1z M107.7,419.6l11.5-18.3h0.4V420h-11.9
						V419.6z"/>
					<g>
						<path d="M155.4,394.7c-1.7,0-3.4,0.8-4.5,2c-1,1.1-1.6,2.5-1.5,4c0,1.8,0.7,3.3,2,4.5c1,0.9,2.2,1.4,3.5,1.5
							c1.3,0.1,2.5-0.1,3.6-0.8c0.9-0.5,1.7-1.3,2.2-2.2c0.6-0.9,0.9-1.9,0.9-3.1c0-1.7-0.6-3.1-1.9-4.3
							C158.4,395.3,157,394.7,155.4,394.7z"/>
						<path d="M155.4,419.4c-1.7,0-3.4,0.8-4.5,2c-1,1.1-1.6,2.5-1.5,4c0,1.8,0.6,3.3,2,4.5c1,0.9,2.2,1.4,3.5,1.6
							c1.3,0.1,2.5-0.1,3.6-0.8c0.9-0.5,1.7-1.3,2.2-2.2c0.6-0.9,0.9-1.9,0.9-3.1c0-1.7-0.6-3.1-1.9-4.3
							C158.4,420,157,419.4,155.4,419.4z"/>
					</g>
					<path d="M210.3,416.1c-1.9-2-4.7-3.2-8.4-3.6v-0.4c2.8-0.4,5.1-1.5,6.8-3.2c1.8-1.8,2.7-4,2.6-6.7c0-2.6-0.7-5-2.2-7
						c-1.5-2.1-3.5-3.7-6.1-4.9c-2.6-1.2-5.6-1.8-9.1-1.8c-3.5,0-6.5,0.6-9.2,1.9c-2.7,1.2-4.8,2.9-6.4,5.1
						c-1.6,2.2-2.4,4.7-2.4,7.6h11.1c0-1.1,0.4-2.1,1-2.9c0.6-0.8,1.4-1.5,2.5-1.9c1-0.5,2.2-0.7,3.5-0.7c1.2,0,2.3,0.2,3.2,0.7
						c0.9,0.5,1.7,1.1,2.2,1.9c0.5,0.8,0.8,1.8,0.8,2.9c0,1.1-0.3,2.1-0.9,2.9c-0.6,0.9-1.5,1.5-2.5,2c-1.1,0.5-2.3,0.7-3.8,0.7
						h-4.7v8.3h4.7c1.6,0,3,0.2,4.2,0.7c1.2,0.5,2.1,1.2,2.8,2c0.7,0.9,1,1.9,1,3c0,1.1-0.3,2.1-0.9,3c-0.6,0.9-1.4,1.5-2.5,2
						c-1.1,0.5-2.3,0.7-3.6,0.7c-1.4,0-2.6-0.2-3.7-0.7c-1.1-0.5-1.9-1.1-2.6-1.9c-0.6-0.8-1-1.7-1-2.8H175c0,2.9,0.9,5.5,2.5,7.7
						c1.6,2.2,3.9,4,6.7,5.2c2.8,1.3,6.1,1.9,9.7,1.9c3.8,0,7.1-0.6,10-1.8c2.9-1.2,5.2-2.9,6.8-5.1c1.6-2.2,2.5-4.6,2.5-7.4
						C213.2,420.5,212.2,418.1,210.3,416.1z"/>
				</g>
			</g>
			<g>
				<path d="M631.5,63.5H298.3c-23.3,0-42.2,18.9-42.2,42.2v168.9c0,23.3,18.9,42.2,42.2,42.2h135.3l-7.8,23.4h-54.6
					c-12.9,0-23.4,10.5-23.4,23.4s10.5,23.4,23.4,23.4h187.3c12.9,0,23.4-10.5,23.4-23.4s-10.5-23.4-23.4-23.4h-54.7l-7.8-23.4
					h135.4c23.3,0,42.2-18.9,42.2-42.2V105.7C673.7,82.4,654.8,63.5,631.5,63.5z M631.5,274.6H298.3V105.7h333.1V274.6
					C631.5,274.6,631.5,274.6,631.5,274.6z"/>
				<g>
					<path d="M376.7,151.8v76.7h-18.5v-59.4h-0.4l-17.1,10.5v-16l18.9-11.8H376.7z"/>
					<path d="M435,229.5c-4.2,0-8.2-0.7-12.1-2c-3.8-1.4-7.3-3.5-10.3-6.5c-3-3-5.4-6.9-7.1-11.8c-1.7-4.9-2.6-10.8-2.5-17.8
						c0-6.3,0.8-12,2.3-17c1.5-5,3.7-9.3,6.5-12.8c2.8-3.5,6.2-6.2,10.2-8.1c4-1.9,8.4-2.8,13.3-2.8c5.4,0,10.1,1,14.2,3.1
						c4.1,2.1,7.4,4.9,9.9,8.4c2.5,3.5,3.9,7.4,4.4,11.7h-18.2c-0.5-2.4-1.8-4.3-3.6-5.5c-1.9-1.3-4.1-1.9-6.6-1.9
						c-4.7,0-8.2,2-10.5,6.1c-2.3,4.1-3.5,9.5-3.5,16.3h0.5c1-2.3,2.6-4.3,4.5-5.9s4.2-2.9,6.8-3.8s5.3-1.3,8.1-1.3
						c4.6,0,8.6,1.1,12.2,3.2c3.5,2.1,6.3,5,8.3,8.7c2,3.7,3,7.9,3,12.6c0,5.3-1.2,10.1-3.7,14.1c-2.5,4.1-6,7.3-10.5,9.5
						C446,228.4,440.9,229.5,435,229.5z M434.9,215.3c2.3,0,4.3-0.5,6.1-1.6c1.8-1.1,3.2-2.5,4.2-4.4c1-1.8,1.5-3.9,1.5-6.3
						c0-2.3-0.5-4.4-1.5-6.3c-1-1.8-2.4-3.3-4.2-4.3c-1.8-1.1-3.8-1.6-6.1-1.6c-1.7,0-3.2,0.3-4.7,0.9c-1.4,0.6-2.7,1.5-3.8,2.6
						c-1.1,1.1-1.9,2.4-2.5,3.9c-0.6,1.5-0.9,3.1-0.9,4.8c0,2.3,0.5,4.3,1.6,6.2c1,1.8,2.4,3.3,4.2,4.4
						C430.6,214.8,432.6,215.3,434.9,215.3z"/>
					<path d="M496.2,180.1c-2.7,0-5-0.9-6.9-2.8c-1.9-1.9-2.9-4.2-2.8-6.9c0-2.6,0.9-4.9,2.8-6.8c1.9-1.9,4.2-2.8,6.9-2.8
						c2.5,0,4.8,0.9,6.8,2.8c2,1.9,3,4.2,3,6.8c0,1.8-0.5,3.4-1.4,4.9c-0.9,1.5-2.1,2.6-3.6,3.5
						C499.5,179.7,497.9,180.1,496.2,180.1z M496.2,219.5c-2.7,0-5-0.9-6.9-2.8c-1.9-1.9-2.9-4.2-2.8-6.9c0-2.6,0.9-4.9,2.8-6.8
						c1.9-1.9,4.2-2.8,6.9-2.8c2.5,0,4.8,0.9,6.8,2.8c2,1.9,3,4.1,3,6.8c0,1.8-0.5,3.4-1.4,4.9c-0.9,1.5-2.1,2.6-3.6,3.5
						C499.5,219.1,497.9,219.5,496.2,219.5z"/>
					<path d="M557.3,150.8c4.2,0,8.2,0.7,12,2c3.8,1.4,7.2,3.5,10.2,6.5c3,3,5.4,6.8,7.1,11.7c1.7,4.8,2.6,10.7,2.6,17.6
						c0,6.4-0.7,12.1-2.2,17.2c-1.5,5.1-3.7,9.4-6.5,12.9c-2.8,3.5-6.2,6.2-10.2,8.1c-4,1.9-8.4,2.8-13.3,2.8
						c-5.4,0-10.1-1-14.2-3.1c-4.1-2.1-7.4-4.9-9.8-8.4c-2.5-3.5-3.9-7.5-4.4-11.9h18.2c0.6,2.5,1.8,4.5,3.6,5.7
						c1.8,1.3,4.1,1.9,6.6,1.9c4.7,0,8.2-2,10.5-6.1s3.5-9.6,3.5-16.6h-0.4c-1.1,2.3-2.6,4.3-4.5,5.9c-2,1.6-4.2,2.9-6.8,3.8
						c-2.6,0.9-5.3,1.3-8.1,1.3c-4.6,0-8.6-1-12.1-3.1c-3.5-2.1-6.3-5-8.2-8.6c-2-3.7-3-7.9-3-12.6c0-5.3,1.2-10,3.7-14
						c2.5-4.1,6-7.2,10.4-9.5C546.2,151.9,551.4,150.7,557.3,150.8z M557.4,165c-2.3,0-4.3,0.5-6.1,1.6c-1.8,1.1-3.2,2.5-4.2,4.3
						c-1,1.8-1.5,3.9-1.5,6.1c0,2.3,0.5,4.3,1.6,6.1c1,1.8,2.4,3.3,4.2,4.3c1.8,1.1,3.8,1.6,6,1.6c1.7,0,3.3-0.3,4.7-0.9
						c1.4-0.6,2.7-1.5,3.8-2.6c1.1-1.1,1.9-2.4,2.5-3.9c0.6-1.5,0.9-3,0.9-4.7c0-2.2-0.5-4.2-1.6-6.1c-1-1.8-2.4-3.3-4.2-4.4
						C561.7,165.5,559.6,165,557.4,165z"/>
				</g>
			</g>
			<g>
				<path d="M986.1,331.4H700.5c-14.8,0-26.8,12-26.8,26.8v107.1c0,14.8,12,26.8,26.8,26.8h123l-5,14.8h-34.6
					c-8.2,0-14.8,6.6-14.8,14.8s6.6,14.8,14.8,14.8h118.7c8.2,0,14.8-6.6,14.8-14.8s-6.6-14.8-14.8-14.8H868l-5-14.8h123
					c14.8,0,26.8-12,26.8-26.8V358.1C1012.8,343.4,1000.8,331.4,986.1,331.4z M986.1,465.2l-285.6,0V358.1h285.6V465.2
					C986.1,465.2,986.1,465.2,986.1,465.2z"/>
				<g>
					<path d="M766.2,435.7v-8.5l17.7-15.5c1.3-1.2,2.5-2.3,3.4-3.3c0.9-1,1.6-2,2.1-3c0.5-1,0.7-2.1,0.7-3.3c0-1.3-0.3-2.5-0.9-3.5
						c-0.6-1-1.4-1.7-2.4-2.2c-1-0.5-2.2-0.8-3.5-0.8c-1.3,0-2.5,0.3-3.5,0.8c-1,0.5-1.8,1.3-2.4,2.4c-0.6,1-0.8,2.3-0.8,3.7h-11.1
						c0-3.3,0.7-6.2,2.2-8.6c1.5-2.4,3.6-4.3,6.3-5.6c2.7-1.3,5.8-2,9.4-2c3.7,0,6.9,0.6,9.6,1.9c2.7,1.2,4.8,3,6.3,5.2
						c1.5,2.2,2.2,4.8,2.2,7.7c0,1.9-0.4,3.7-1.1,5.5c-0.7,1.8-2.1,3.8-4,6c-1.9,2.2-4.6,4.8-8.2,7.9l-5.8,5.4v0.3h19.7v9.5H766.2z"
						/>
					<path d="M838,386.8v48.6h-11.7v-37.6H826l-10.9,6.6v-10.2l12-7.5H838z"/>
					<path d="M862.1,404.7c-1.7,0-3.2-0.6-4.4-1.8c-1.2-1.2-1.8-2.7-1.8-4.4c0-1.7,0.6-3.1,1.8-4.3c1.2-1.2,2.7-1.8,4.4-1.8
						c1.6,0,3,0.6,4.3,1.8c1.2,1.2,1.9,2.6,1.9,4.3c0,1.1-0.3,2.2-0.9,3.1c-0.6,0.9-1.3,1.7-2.3,2.2
						C864.2,404.4,863.2,404.7,862.1,404.7z M862.1,429.7c-1.7,0-3.2-0.6-4.4-1.8c-1.2-1.2-1.8-2.7-1.8-4.4c0-1.7,0.6-3.1,1.8-4.3
						c1.2-1.2,2.7-1.8,4.4-1.8c1.6,0,3,0.6,4.3,1.8c1.2,1.2,1.9,2.6,1.9,4.3c0,1.1-0.3,2.2-0.9,3.1c-0.6,0.9-1.3,1.7-2.3,2.2
						C864.2,429.4,863.2,429.7,862.1,429.7z"/>
					<path d="M900.8,386.1c2.7,0,5.2,0.4,7.6,1.3c2.4,0.9,4.6,2.2,6.5,4.1c1.9,1.9,3.4,4.3,4.5,7.4c1.1,3.1,1.6,6.8,1.6,11.2
						c0,4.1-0.5,7.7-1.4,10.9s-2.3,5.9-4.1,8.2c-1.8,2.2-4,4-6.5,5.1c-2.5,1.2-5.3,1.8-8.4,1.8c-3.4,0-6.4-0.7-9-2
						c-2.6-1.3-4.7-3.1-6.2-5.4c-1.6-2.2-2.5-4.8-2.8-7.5h11.6c0.4,1.6,1.1,2.8,2.3,3.6s2.6,1.2,4.2,1.2c3,0,5.2-1.3,6.7-3.9
						s2.2-6.1,2.2-10.5h-0.3c-0.7,1.5-1.6,2.7-2.9,3.7c-1.2,1-2.7,1.8-4.3,2.4c-1.6,0.6-3.3,0.8-5.2,0.8c-2.9,0-5.5-0.7-7.7-2
						c-2.2-1.3-4-3.2-5.2-5.5c-1.3-2.3-1.9-5-1.9-8c0-3.4,0.8-6.3,2.3-8.9c1.6-2.6,3.8-4.6,6.6-6
						C893.8,386.8,897.1,386.1,900.8,386.1z M900.9,395.1c-1.5,0-2.7,0.3-3.9,1c-1.1,0.7-2,1.6-2.7,2.8c-0.6,1.2-1,2.5-0.9,3.9
						c0,1.4,0.3,2.7,1,3.9c0.6,1.2,1.5,2.1,2.6,2.8c1.1,0.7,2.4,1,3.8,1c1.1,0,2.1-0.2,3-0.6c0.9-0.4,1.7-0.9,2.4-1.6
						c0.7-0.7,1.2-1.5,1.6-2.5c0.4-0.9,0.6-1.9,0.6-3c0-1.4-0.3-2.7-1-3.8c-0.6-1.2-1.5-2.1-2.7-2.8
						C903.6,395.5,902.3,395.1,900.9,395.1z"/>
				</g>
			</g>
		</g>
		<g>
			<g>
				
					<radialGradient id="SVGID_00000033342191242628735950000003392627480076961434_" cx="491" cy="602" r="583.1749" gradientUnits="userSpaceOnUse">
					<stop  offset="0" style="stop-color:#505050"/>
					<stop  offset="0.6535" style="stop-color:#262626"/>
				</radialGradient>
				<path style="fill:url(#SVGID_00000033342191242628735950000003392627480076961434_);" d="M229.6,333.7h-150
					c-14.6,0-26.5,11.9-26.5,26.5V466c0,14.6,11.9,26.5,26.5,26.5h55.4l-4.9,14.7H95.9c-8.1,0-14.7,6.6-14.7,14.7
					c0,8.1,6.6,14.7,14.7,14.7h117.4c8.1,0,14.7-6.6,14.7-14.7c0-8.1-6.6-14.7-14.7-14.7h-34.3l-4.9-14.7h55.5
					c14.6,0,26.5-11.9,26.5-26.5V360.2C256.1,345.6,244.2,333.7,229.6,333.7z M229.6,466h-150V360.2h150V466
					C229.7,466,229.7,466,229.6,466z"/>
				<g>
					
						<radialGradient id="SVGID_00000060733529919326934430000000048582213190154383_" cx="491" cy="602" r="583.1749" gradientUnits="userSpaceOnUse">
						<stop  offset="0" style="stop-color:#505050"/>
						<stop  offset="0.6535" style="stop-color:#262626"/>
					</radialGradient>
					<path style="fill:url(#SVGID_00000060733529919326934430000000048582213190154383_);" d="M130.4,389.1h-6.6h-4.3h-3.8l-19.7,31
						v9.1h23.2v8h11.1v-8h5.7V420h-5.7V389.1z M107.7,419.6l11.5-18.3h0.4V420h-11.9V419.6z"/>
					<g>
						
							<radialGradient id="SVGID_00000124874618016105705090000000201055008867835583_" cx="491" cy="602" r="583.1749" gradientUnits="userSpaceOnUse">
							<stop  offset="0" style="stop-color:#505050"/>
							<stop  offset="0.6535" style="stop-color:#262626"/>
						</radialGradient>
						<path style="fill:url(#SVGID_00000124874618016105705090000000201055008867835583_);" d="M155.4,394.7c-1.7,0-3.4,0.8-4.5,2
							c-1,1.1-1.6,2.5-1.5,4c0,1.8,0.7,3.3,2,4.5c1,0.9,2.2,1.4,3.5,1.5c1.3,0.1,2.5-0.1,3.6-0.8c0.9-0.5,1.7-1.3,2.2-2.2
							c0.6-0.9,0.9-1.9,0.9-3.1c0-1.7-0.6-3.1-1.9-4.3C158.4,395.3,157,394.7,155.4,394.7z"/>
						
							<radialGradient id="SVGID_00000082333443812774697900000012361703950476813451_" cx="491" cy="602" r="583.1749" gradientUnits="userSpaceOnUse">
							<stop  offset="0" style="stop-color:#505050"/>
							<stop  offset="0.6535" style="stop-color:#262626"/>
						</radialGradient>
						<path style="fill:url(#SVGID_00000082333443812774697900000012361703950476813451_);" d="M155.4,419.4c-1.7,0-3.4,0.8-4.5,2
							c-1,1.1-1.6,2.5-1.5,4c0,1.8,0.6,3.3,2,4.5c1,0.9,2.2,1.4,3.5,1.6c1.3,0.1,2.5-0.1,3.6-0.8c0.9-0.5,1.7-1.3,2.2-2.2
							c0.6-0.9,0.9-1.9,0.9-3.1c0-1.7-0.6-3.1-1.9-4.3C158.4,420,157,419.4,155.4,419.4z"/>
					</g>
					
						<radialGradient id="SVGID_00000126295630328797165430000003619656542385152897_" cx="491" cy="602" r="583.1749" gradientUnits="userSpaceOnUse">
						<stop  offset="0" style="stop-color:#505050"/>
						<stop  offset="0.6535" style="stop-color:#262626"/>
					</radialGradient>
					<path style="fill:url(#SVGID_00000126295630328797165430000003619656542385152897_);" d="M210.3,416.1c-1.9-2-4.7-3.2-8.4-3.6
						v-0.4c2.8-0.4,5.1-1.5,6.8-3.2c1.8-1.8,2.7-4,2.6-6.7c0-2.6-0.7-5-2.2-7c-1.5-2.1-3.5-3.7-6.1-4.9c-2.6-1.2-5.6-1.8-9.1-1.8
						c-3.5,0-6.5,0.6-9.2,1.9c-2.7,1.2-4.8,2.9-6.4,5.1c-1.6,2.2-2.4,4.7-2.4,7.6h11.1c0-1.1,0.4-2.1,1-2.9c0.6-0.8,1.4-1.5,2.5-1.9
						c1-0.5,2.2-0.7,3.5-0.7c1.2,0,2.3,0.2,3.2,0.7c0.9,0.5,1.7,1.1,2.2,1.9c0.5,0.8,0.8,1.8,0.8,2.9c0,1.1-0.3,2.1-0.9,2.9
						c-0.6,0.9-1.5,1.5-2.5,2c-1.1,0.5-2.3,0.7-3.8,0.7h-4.7v8.3h4.7c1.6,0,3,0.2,4.2,0.7c1.2,0.5,2.1,1.2,2.8,2c0.7,0.9,1,1.9,1,3
						c0,1.1-0.3,2.1-0.9,3c-0.6,0.9-1.4,1.5-2.5,2c-1.1,0.5-2.3,0.7-3.6,0.7c-1.4,0-2.6-0.2-3.7-0.7c-1.1-0.5-1.9-1.1-2.6-1.9
						c-0.6-0.8-1-1.7-1-2.8H175c0,2.9,0.9,5.5,2.5,7.7c1.6,2.2,3.9,4,6.7,5.2c2.8,1.3,6.1,1.9,9.7,1.9c3.8,0,7.1-0.6,10-1.8
						c2.9-1.2,5.2-2.9,6.8-5.1c1.6-2.2,2.5-4.6,2.5-7.4C213.2,420.5,212.2,418.1,210.3,416.1z"/>
				</g>
			</g>
			<g>
				
					<radialGradient id="SVGID_00000031196748367959954790000007763716566256327299_" cx="491" cy="602" r="583.1749" gradientUnits="userSpaceOnUse">
					<stop  offset="0" style="stop-color:#505050"/>
					<stop  offset="0.6535" style="stop-color:#262626"/>
				</radialGradient>
				<path style="fill:url(#SVGID_00000031196748367959954790000007763716566256327299_);" d="M631.5,63.5H298.3
					c-23.3,0-42.2,18.9-42.2,42.2v168.9c0,23.3,18.9,42.2,42.2,42.2h135.3l-7.8,23.4h-54.6c-12.9,0-23.4,10.5-23.4,23.4
					s10.5,23.4,23.4,23.4h187.3c12.9,0,23.4-10.5,23.4-23.4s-10.5-23.4-23.4-23.4h-54.7l-7.8-23.4h135.4c23.3,0,42.2-18.9,42.2-42.2
					V105.7C673.7,82.4,654.8,63.5,631.5,63.5z M631.5,274.6H298.3V105.7h333.1V274.6C631.5,274.6,631.5,274.6,631.5,274.6z"/>
				<g>
					
						<radialGradient id="SVGID_00000060005618189149215990000000654504686517070507_" cx="491" cy="602" r="583.1749" gradientUnits="userSpaceOnUse">
						<stop  offset="0" style="stop-color:#505050"/>
						<stop  offset="0.6535" style="stop-color:#262626"/>
					</radialGradient>
					<path style="fill:url(#SVGID_00000060005618189149215990000000654504686517070507_);" d="M376.7,151.8v76.7h-18.5v-59.4h-0.4
						l-17.1,10.5v-16l18.9-11.8H376.7z"/>
					
						<radialGradient id="SVGID_00000013172846167561158620000014371170565039472037_" cx="491" cy="602" r="583.1749" gradientUnits="userSpaceOnUse">
						<stop  offset="0" style="stop-color:#505050"/>
						<stop  offset="0.6535" style="stop-color:#262626"/>
					</radialGradient>
					<path style="fill:url(#SVGID_00000013172846167561158620000014371170565039472037_);" d="M435,229.5c-4.2,0-8.2-0.7-12.1-2
						c-3.8-1.4-7.3-3.5-10.3-6.5c-3-3-5.4-6.9-7.1-11.8c-1.7-4.9-2.6-10.8-2.5-17.8c0-6.3,0.8-12,2.3-17c1.5-5,3.7-9.3,6.5-12.8
						c2.8-3.5,6.2-6.2,10.2-8.1c4-1.9,8.4-2.8,13.3-2.8c5.4,0,10.1,1,14.2,3.1c4.1,2.1,7.4,4.9,9.9,8.4c2.5,3.5,3.9,7.4,4.4,11.7
						h-18.2c-0.5-2.4-1.8-4.3-3.6-5.5c-1.9-1.3-4.1-1.9-6.6-1.9c-4.7,0-8.2,2-10.5,6.1c-2.3,4.1-3.5,9.5-3.5,16.3h0.5
						c1-2.3,2.6-4.3,4.5-5.9s4.2-2.9,6.8-3.8s5.3-1.3,8.1-1.3c4.6,0,8.6,1.1,12.2,3.2c3.5,2.1,6.3,5,8.3,8.7c2,3.7,3,7.9,3,12.6
						c0,5.3-1.2,10.1-3.7,14.1c-2.5,4.1-6,7.3-10.5,9.5C446,228.4,440.9,229.5,435,229.5z M434.9,215.3c2.3,0,4.3-0.5,6.1-1.6
						c1.8-1.1,3.2-2.5,4.2-4.4c1-1.8,1.5-3.9,1.5-6.3c0-2.3-0.5-4.4-1.5-6.3c-1-1.8-2.4-3.3-4.2-4.3c-1.8-1.1-3.8-1.6-6.1-1.6
						c-1.7,0-3.2,0.3-4.7,0.9c-1.4,0.6-2.7,1.5-3.8,2.6c-1.1,1.1-1.9,2.4-2.5,3.9c-0.6,1.5-0.9,3.1-0.9,4.8c0,2.3,0.5,4.3,1.6,6.2
						c1,1.8,2.4,3.3,4.2,4.4C430.6,214.8,432.6,215.3,434.9,215.3z"/>
					
						<radialGradient id="SVGID_00000119828718518504235180000000136944819570289543_" cx="491" cy="602" r="583.1749" gradientUnits="userSpaceOnUse">
						<stop  offset="0" style="stop-color:#505050"/>
						<stop  offset="0.6535" style="stop-color:#262626"/>
					</radialGradient>
					<path style="fill:url(#SVGID_00000119828718518504235180000000136944819570289543_);" d="M496.2,180.1c-2.7,0-5-0.9-6.9-2.8
						c-1.9-1.9-2.9-4.2-2.8-6.9c0-2.6,0.9-4.9,2.8-6.8c1.9-1.9,4.2-2.8,6.9-2.8c2.5,0,4.8,0.9,6.8,2.8c2,1.9,3,4.2,3,6.8
						c0,1.8-0.5,3.4-1.4,4.9c-0.9,1.5-2.1,2.6-3.6,3.5C499.5,179.7,497.9,180.1,496.2,180.1z M496.2,219.5c-2.7,0-5-0.9-6.9-2.8
						c-1.9-1.9-2.9-4.2-2.8-6.9c0-2.6,0.9-4.9,2.8-6.8c1.9-1.9,4.2-2.8,6.9-2.8c2.5,0,4.8,0.9,6.8,2.8c2,1.9,3,4.1,3,6.8
						c0,1.8-0.5,3.4-1.4,4.9c-0.9,1.5-2.1,2.6-3.6,3.5C499.5,219.1,497.9,219.5,496.2,219.5z"/>
					
						<radialGradient id="SVGID_00000183250775541047093190000009209946331599926931_" cx="491" cy="602" r="583.1749" gradientUnits="userSpaceOnUse">
						<stop  offset="0" style="stop-color:#505050"/>
						<stop  offset="0.6535" style="stop-color:#262626"/>
					</radialGradient>
					<path style="fill:url(#SVGID_00000183250775541047093190000009209946331599926931_);" d="M557.3,150.8c4.2,0,8.2,0.7,12,2
						c3.8,1.4,7.2,3.5,10.2,6.5c3,3,5.4,6.8,7.1,11.7c1.7,4.8,2.6,10.7,2.6,17.6c0,6.4-0.7,12.1-2.2,17.2c-1.5,5.1-3.7,9.4-6.5,12.9
						c-2.8,3.5-6.2,6.2-10.2,8.1c-4,1.9-8.4,2.8-13.3,2.8c-5.4,0-10.1-1-14.2-3.1c-4.1-2.1-7.4-4.9-9.8-8.4
						c-2.5-3.5-3.9-7.5-4.4-11.9h18.2c0.6,2.5,1.8,4.5,3.6,5.7c1.8,1.3,4.1,1.9,6.6,1.9c4.7,0,8.2-2,10.5-6.1s3.5-9.6,3.5-16.6h-0.4
						c-1.1,2.3-2.6,4.3-4.5,5.9c-2,1.6-4.2,2.9-6.8,3.8c-2.6,0.9-5.3,1.3-8.1,1.3c-4.6,0-8.6-1-12.1-3.1c-3.5-2.1-6.3-5-8.2-8.6
						c-2-3.7-3-7.9-3-12.6c0-5.3,1.2-10,3.7-14c2.5-4.1,6-7.2,10.4-9.5C546.2,151.9,551.4,150.7,557.3,150.8z M557.4,165
						c-2.3,0-4.3,0.5-6.1,1.6c-1.8,1.1-3.2,2.5-4.2,4.3c-1,1.8-1.5,3.9-1.5,6.1c0,2.3,0.5,4.3,1.6,6.1c1,1.8,2.4,3.3,4.2,4.3
						c1.8,1.1,3.8,1.6,6,1.6c1.7,0,3.3-0.3,4.7-0.9c1.4-0.6,2.7-1.5,3.8-2.6c1.1-1.1,1.9-2.4,2.5-3.9c0.6-1.5,0.9-3,0.9-4.7
						c0-2.2-0.5-4.2-1.6-6.1c-1-1.8-2.4-3.3-4.2-4.4C561.7,165.5,559.6,165,557.4,165z"/>
				</g>
			</g>
			<g>
				
					<radialGradient id="SVGID_00000030457739076396668400000001801633018074385826_" cx="491" cy="602" r="583.1749" gradientUnits="userSpaceOnUse">
					<stop  offset="0" style="stop-color:#505050"/>
					<stop  offset="0.6535" style="stop-color:#262626"/>
				</radialGradient>
				<path style="fill:url(#SVGID_00000030457739076396668400000001801633018074385826_);" d="M986.1,331.4H700.5
					c-14.8,0-26.8,12-26.8,26.8v107.1c0,14.8,12,26.8,26.8,26.8h123l-5,14.8h-34.6c-8.2,0-14.8,6.6-14.8,14.8s6.6,14.8,14.8,14.8
					h118.7c8.2,0,14.8-6.6,14.8-14.8s-6.6-14.8-14.8-14.8H868l-5-14.8h123c14.8,0,26.8-12,26.8-26.8V358.1
					C1012.8,343.4,1000.8,331.4,986.1,331.4z M986.1,465.2l-285.6,0V358.1h285.6V465.2C986.1,465.2,986.1,465.2,986.1,465.2z"/>
				<g>
					
						<radialGradient id="SVGID_00000168116932611713928490000002692720792310443439_" cx="491" cy="602" r="583.1749" gradientUnits="userSpaceOnUse">
						<stop  offset="0" style="stop-color:#505050"/>
						<stop  offset="0.6535" style="stop-color:#262626"/>
					</radialGradient>
					<path style="fill:url(#SVGID_00000168116932611713928490000002692720792310443439_);" d="M766.2,435.7v-8.5l17.7-15.5
						c1.3-1.2,2.5-2.3,3.4-3.3c0.9-1,1.6-2,2.1-3c0.5-1,0.7-2.1,0.7-3.3c0-1.3-0.3-2.5-0.9-3.5c-0.6-1-1.4-1.7-2.4-2.2
						c-1-0.5-2.2-0.8-3.5-0.8c-1.3,0-2.5,0.3-3.5,0.8c-1,0.5-1.8,1.3-2.4,2.4c-0.6,1-0.8,2.3-0.8,3.7h-11.1c0-3.3,0.7-6.2,2.2-8.6
						c1.5-2.4,3.6-4.3,6.3-5.6c2.7-1.3,5.8-2,9.4-2c3.7,0,6.9,0.6,9.6,1.9c2.7,1.2,4.8,3,6.3,5.2c1.5,2.2,2.2,4.8,2.2,7.7
						c0,1.9-0.4,3.7-1.1,5.5c-0.7,1.8-2.1,3.8-4,6c-1.9,2.2-4.6,4.8-8.2,7.9l-5.8,5.4v0.3h19.7v9.5H766.2z"/>
					
						<radialGradient id="SVGID_00000036966589731819133990000014499246446218880923_" cx="491" cy="602" r="583.1749" gradientUnits="userSpaceOnUse">
						<stop  offset="0" style="stop-color:#505050"/>
						<stop  offset="0.6535" style="stop-color:#262626"/>
					</radialGradient>
					<path style="fill:url(#SVGID_00000036966589731819133990000014499246446218880923_);" d="M838,386.8v48.6h-11.7v-37.6H826
						l-10.9,6.6v-10.2l12-7.5H838z"/>
					
						<radialGradient id="SVGID_00000145773280958987865700000000798795118244215472_" cx="491" cy="602" r="583.1749" gradientUnits="userSpaceOnUse">
						<stop  offset="0" style="stop-color:#505050"/>
						<stop  offset="0.6535" style="stop-color:#262626"/>
					</radialGradient>
					<path style="fill:url(#SVGID_00000145773280958987865700000000798795118244215472_);" d="M862.1,404.7c-1.7,0-3.2-0.6-4.4-1.8
						c-1.2-1.2-1.8-2.7-1.8-4.4c0-1.7,0.6-3.1,1.8-4.3c1.2-1.2,2.7-1.8,4.4-1.8c1.6,0,3,0.6,4.3,1.8c1.2,1.2,1.9,2.6,1.9,4.3
						c0,1.1-0.3,2.2-0.9,3.1c-0.6,0.9-1.3,1.7-2.3,2.2C864.2,404.4,863.2,404.7,862.1,404.7z M862.1,429.7c-1.7,0-3.2-0.6-4.4-1.8
						c-1.2-1.2-1.8-2.7-1.8-4.4c0-1.7,0.6-3.1,1.8-4.3c1.2-1.2,2.7-1.8,4.4-1.8c1.6,0,3,0.6,4.3,1.8c1.2,1.2,1.9,2.6,1.9,4.3
						c0,1.1-0.3,2.2-0.9,3.1c-0.6,0.9-1.3,1.7-2.3,2.2C864.2,429.4,863.2,429.7,862.1,429.7z"/>
					
						<radialGradient id="SVGID_00000066493574677077375520000009277182808466696606_" cx="491" cy="602" r="583.1749" gradientUnits="userSpaceOnUse">
						<stop  offset="0" style="stop-color:#505050"/>
						<stop  offset="0.6535" style="stop-color:#262626"/>
					</radialGradient>
					<path style="fill:url(#SVGID_00000066493574677077375520000009277182808466696606_);" d="M900.8,386.1c2.7,0,5.2,0.4,7.6,1.3
						c2.4,0.9,4.6,2.2,6.5,4.1c1.9,1.9,3.4,4.3,4.5,7.4c1.1,3.1,1.6,6.8,1.6,11.2c0,4.1-0.5,7.7-1.4,10.9s-2.3,5.9-4.1,8.2
						c-1.8,2.2-4,4-6.5,5.1c-2.5,1.2-5.3,1.8-8.4,1.8c-3.4,0-6.4-0.7-9-2c-2.6-1.3-4.7-3.1-6.2-5.4c-1.6-2.2-2.5-4.8-2.8-7.5h11.6
						c0.4,1.6,1.1,2.8,2.3,3.6s2.6,1.2,4.2,1.2c3,0,5.2-1.3,6.7-3.9s2.2-6.1,2.2-10.5h-0.3c-0.7,1.5-1.6,2.7-2.9,3.7
						c-1.2,1-2.7,1.8-4.3,2.4c-1.6,0.6-3.3,0.8-5.2,0.8c-2.9,0-5.5-0.7-7.7-2c-2.2-1.3-4-3.2-5.2-5.5c-1.3-2.3-1.9-5-1.9-8
						c0-3.4,0.8-6.3,2.3-8.9c1.6-2.6,3.8-4.6,6.6-6C893.8,386.8,897.1,386.1,900.8,386.1z M900.9,395.1c-1.5,0-2.7,0.3-3.9,1
						c-1.1,0.7-2,1.6-2.7,2.8c-0.6,1.2-1,2.5-0.9,3.9c0,1.4,0.3,2.7,1,3.9c0.6,1.2,1.5,2.1,2.6,2.8c1.1,0.7,2.4,1,3.8,1
						c1.1,0,2.1-0.2,3-0.6c0.9-0.4,1.7-0.9,2.4-1.6c0.7-0.7,1.2-1.5,1.6-2.5c0.4-0.9,0.6-1.9,0.6-3c0-1.4-0.3-2.7-1-3.8
						c-0.6-1.2-1.5-2.1-2.7-2.8C903.6,395.5,902.3,395.1,900.9,395.1z"/>
				</g>
			</g>
		</g>
	</g>
</g>
</svg>
