<?xml version="1.0" encoding="utf-8"?>
<!-- Generator: Adobe Illustrator 26.5.0, SVG Export Plug-In . SVG Version: 6.00 Build 0)  -->
<svg version="1.1" xmlns="http://www.w3.org/2000/svg" xmlns:xlink="http://www.w3.org/1999/xlink" x="0px" y="0px"
	 viewBox="0 0 1066 600" style="enable-background:new 0 0 1066 600;" xml:space="preserve">
<style type="text/css">
	.st0{fill:url(#SVGID_1_);}
	
		.st1{fill:none;stroke:url(#SVGID_00000132047042416669531150000003783362133780875401_);stroke-width:2.25;stroke-linecap:round;stroke-linejoin:round;}
	
		.st2{fill:none;stroke:url(#SVGID_00000108300099688409152740000016070558092033713805_);stroke-width:2.25;stroke-linecap:round;stroke-linejoin:round;}
	
		.st3{fill:none;stroke:url(#SVGID_00000110433138418186597280000012236269699065622451_);stroke-width:2.25;stroke-linecap:round;stroke-linejoin:round;}
	
		.st4{fill:none;stroke:url(#SVGID_00000129891004442323389080000016143164318182991491_);stroke-width:2.25;stroke-linecap:round;stroke-linejoin:round;}
	
		.st5{fill:none;stroke:url(#SVGID_00000043429156238354063060000018269031016718038412_);stroke-width:2.25;stroke-linecap:round;stroke-linejoin:round;}
	
		.st6{fill:none;stroke:url(#SVGID_00000070101559855480453170000001070194720442255770_);stroke-width:2.25;stroke-linecap:round;stroke-linejoin:round;}
	
		.st7{fill:none;stroke:url(#SVGID_00000158013534818715704890000013078572391978760580_);stroke-width:2.25;stroke-linecap:round;stroke-linejoin:round;}
	
		.st8{fill:none;stroke:url(#SVGID_00000180337343069824012070000011465149406426571394_);stroke-width:2.25;stroke-linecap:round;stroke-linejoin:round;}
	
		.st9{fill:none;stroke:url(#SVGID_00000067233977956076934690000009316365826593354921_);stroke-width:2.25;stroke-linecap:round;stroke-linejoin:round;}
	
		.st10{fill:none;stroke:url(#SVGID_00000173129866569409151510000015520122418643685289_);stroke-width:2.25;stroke-linecap:round;stroke-linejoin:round;}
	
		.st11{fill:none;stroke:url(#SVGID_00000175286955762060075470000003076217718352052655_);stroke-width:2.25;stroke-linecap:round;stroke-linejoin:round;}
	
		.st12{fill:none;stroke:url(#SVGID_00000132090344191327076850000003857771303509293196_);stroke-width:2.25;stroke-linecap:round;stroke-linejoin:round;}
	
		.st13{fill:none;stroke:url(#SVGID_00000096037715093701612450000005880972269590980790_);stroke-width:2.25;stroke-linecap:round;stroke-linejoin:round;}
	
		.st14{fill:none;stroke:url(#SVGID_00000068676986255677567900000000443012356853732256_);stroke-width:2.25;stroke-linecap:round;stroke-linejoin:round;}
	
		.st15{fill:none;stroke:url(#SVGID_00000002365754610632904940000005718883173493723569_);stroke-width:2.25;stroke-linecap:round;stroke-linejoin:round;}
	
		.st16{fill:none;stroke:url(#SVGID_00000009547995461801828210000011072894564868208818_);stroke-width:2.25;stroke-linecap:round;stroke-linejoin:round;}
	
		.st17{fill:none;stroke:url(#SVGID_00000131361358522414275220000008032930434437278354_);stroke-width:2.25;stroke-linecap:round;stroke-linejoin:round;}
	
		.st18{fill:none;stroke:url(#SVGID_00000103240765037111228740000008894760417799769278_);stroke-width:2.25;stroke-linecap:round;stroke-linejoin:round;}
	
		.st19{fill:none;stroke:url(#SVGID_00000098196775108012329710000016201146980048912001_);stroke-width:2.25;stroke-linecap:round;stroke-linejoin:round;}
	
		.st20{fill:none;stroke:url(#SVGID_00000063598626069676064720000001337557181721084288_);stroke-width:2.25;stroke-linecap:round;stroke-linejoin:round;}
	
		.st21{fill:none;stroke:url(#SVGID_00000039842875012613607960000004710462587916289949_);stroke-width:2.25;stroke-linecap:round;stroke-linejoin:round;}
	
		.st22{fill:none;stroke:url(#SVGID_00000007411170217904768660000005562821970628457600_);stroke-width:2.25;stroke-linecap:round;stroke-linejoin:round;}
	
		.st23{fill:none;stroke:url(#SVGID_00000023997268385506954100000003130394984342841241_);stroke-width:2.25;stroke-linecap:round;stroke-linejoin:round;}
	
		.st24{fill:none;stroke:url(#SVGID_00000164501115801406868500000017101781090211409849_);stroke-width:2.25;stroke-linecap:round;stroke-linejoin:round;}
	
		.st25{fill:none;stroke:url(#SVGID_00000058568060432079796460000003777277494085855895_);stroke-width:2.25;stroke-linecap:round;stroke-linejoin:round;}
	
		.st26{fill:none;stroke:url(#SVGID_00000038382948190275688030000016000212302992386186_);stroke-width:2.25;stroke-linecap:round;stroke-linejoin:round;}
	.st27{fill:url(#SVGID_00000155135529916592878590000015867903625596851636_);}
	.st28{fill:url(#SVGID_00000031913211782526210520000006037209033275541924_);}
	.st29{fill:url(#SVGID_00000106114100405149563930000015609273352995684487_);}
	.st30{fill:url(#SVGID_00000080927776431391142550000005934236383092246148_);}
	.st31{fill:url(#SVGID_00000006693402014771320370000003717118774768247443_);}
	.st32{fill:url(#SVGID_00000131342936933719150850000008194240759839015063_);}
	.st33{fill:url(#SVGID_00000047031369887376370900000016826984122471833263_);}
</style>
<g id="Layer_2">
	<radialGradient id="SVGID_1_" cx="-18.6667" cy="637.3333" r="1280.8921" gradientUnits="userSpaceOnUse">
		<stop  offset="1.275023e-02" style="stop-color:#3CC0C4"/>
		<stop  offset="0.2988" style="stop-color:#4AAFC4"/>
		<stop  offset="0.5917" style="stop-color:#51A3C3"/>
		<stop  offset="0.856" style="stop-color:#559CC3"/>
		<stop  offset="1" style="stop-color:#5699C2"/>
	</radialGradient>
	<rect class="st0" width="1066" height="600"/>
</g>
<g id="Layer_1">
	<g>
		<g>
			
				<linearGradient id="SVGID_00000124878210634476695030000010454673469318313877_" gradientUnits="userSpaceOnUse" x1="358.011" y1="293.2304" x2="444.9731" y2="206.2684">
				<stop  offset="0" style="stop-color:#3D3D3D"/>
				<stop  offset="1" style="stop-color:#262626"/>
			</linearGradient>
			
				<path style="fill:none;stroke:url(#SVGID_00000124878210634476695030000010454673469318313877_);stroke-width:2.25;stroke-linecap:round;stroke-linejoin:round;" d="
				M306.1,192.8"/>
			
				<linearGradient id="SVGID_00000167367296654116250420000002957251734715334564_" gradientUnits="userSpaceOnUse" x1="358.011" y1="293.2304" x2="444.9731" y2="206.2684">
				<stop  offset="0" style="stop-color:#3D3D3D"/>
				<stop  offset="1" style="stop-color:#262626"/>
			</linearGradient>
			
				<path style="fill:none;stroke:url(#SVGID_00000167367296654116250420000002957251734715334564_);stroke-width:2.25;stroke-linecap:round;stroke-linejoin:round;" d="
				M306.1,192.8l10.3,7.8c-0.5,1-1.2,2.5-1.4,4.5c-0.4,3.4,0.8,6.1,1.4,7.3c-3.4-2.9-6.8-5.8-10.3-8.8v13.8l34.3,40.8l2.5,12.8
				l30.3,37.5l18-24l12.1,10.8l26.5,13.3h81.1v-17.3l-48.5-67.6l-93.6-31.8h-10.3l-41.8-14.8h-10.5V192.8z"/>
			
				<linearGradient id="SVGID_00000042000183313569068250000014040057763701627056_" gradientUnits="userSpaceOnUse" x1="358.011" y1="293.2304" x2="444.9731" y2="206.2684">
				<stop  offset="0" style="stop-color:#3D3D3D"/>
				<stop  offset="1" style="stop-color:#262626"/>
			</linearGradient>
			
				<polyline style="fill:none;stroke:url(#SVGID_00000042000183313569068250000014040057763701627056_);stroke-width:2.25;stroke-linecap:round;stroke-linejoin:round;" points="
				316.4,200.6 331.3,211.8 344.1,210.8 344.1,197.8 349.2,192.2 358.4,191.8 			"/>
			
				<linearGradient id="SVGID_00000061461989260225709680000018283044788726301087_" gradientUnits="userSpaceOnUse" x1="358.011" y1="293.2304" x2="444.9731" y2="206.2684">
				<stop  offset="0" style="stop-color:#3D3D3D"/>
				<stop  offset="1" style="stop-color:#262626"/>
			</linearGradient>
			
				<polyline style="fill:none;stroke:url(#SVGID_00000061461989260225709680000018283044788726301087_);stroke-width:2.25;stroke-linecap:round;stroke-linejoin:round;" points="
				306.1,177.1 344.2,193.4 348,193.4 			"/>
			
				<linearGradient id="SVGID_00000088101611925661191860000003027830428597813662_" gradientUnits="userSpaceOnUse" x1="358.011" y1="293.2304" x2="444.9731" y2="206.2684">
				<stop  offset="0" style="stop-color:#3D3D3D"/>
				<stop  offset="1" style="stop-color:#262626"/>
			</linearGradient>
			
				<line style="fill:none;stroke:url(#SVGID_00000088101611925661191860000003027830428597813662_);stroke-width:2.25;stroke-linecap:round;stroke-linejoin:round;" x1="344.2" y1="193.4" x2="344.1" y2="197.8"/>
			
				<linearGradient id="SVGID_00000069359218205384079110000014677642594797159842_" gradientUnits="userSpaceOnUse" x1="358.011" y1="293.2304" x2="444.9731" y2="206.2684">
				<stop  offset="0" style="stop-color:#3D3D3D"/>
				<stop  offset="1" style="stop-color:#262626"/>
			</linearGradient>
			
				<polyline style="fill:none;stroke:url(#SVGID_00000069359218205384079110000014677642594797159842_);stroke-width:2.25;stroke-linecap:round;stroke-linejoin:round;" points="
				349.2,192.2 428.6,224.6 462.3,223.6 			"/>
			
				<linearGradient id="SVGID_00000150824890620489483310000014730081387417898639_" gradientUnits="userSpaceOnUse" x1="358.011" y1="293.2304" x2="444.9731" y2="206.2684">
				<stop  offset="0" style="stop-color:#3D3D3D"/>
				<stop  offset="1" style="stop-color:#262626"/>
			</linearGradient>
			
				<path style="fill:none;stroke:url(#SVGID_00000150824890620489483310000014730081387417898639_);stroke-width:2.25;stroke-linecap:round;stroke-linejoin:round;" d="
				M428.6,224.6"/>
			
				<linearGradient id="SVGID_00000020377470718836879830000016553317689362067119_" gradientUnits="userSpaceOnUse" x1="358.011" y1="293.2304" x2="444.9731" y2="206.2684">
				<stop  offset="0" style="stop-color:#3D3D3D"/>
				<stop  offset="1" style="stop-color:#262626"/>
			</linearGradient>
			
				<polyline style="fill:none;stroke:url(#SVGID_00000020377470718836879830000016553317689362067119_);stroke-width:2.25;stroke-linecap:round;stroke-linejoin:round;" points="
				510.9,291.2 470.6,291.2 470.6,308.4 			"/>
			
				<linearGradient id="SVGID_00000136386586429599044230000001023420403374318997_" gradientUnits="userSpaceOnUse" x1="358.011" y1="293.2304" x2="444.9731" y2="206.2684">
				<stop  offset="0" style="stop-color:#3D3D3D"/>
				<stop  offset="1" style="stop-color:#262626"/>
			</linearGradient>
			
				<path style="fill:none;stroke:url(#SVGID_00000136386586429599044230000001023420403374318997_);stroke-width:2.25;stroke-linecap:round;stroke-linejoin:round;" d="
				M428.6,224.6l41.9,66.6L402.1,264l-59.7-44.8l7.3-5.8c4.1,2.3,8.2,4.6,12.3,6.9c1.9-3.1,6.5-9.4,13.5-10.4
				c12.8-1.8,22.5,15.5,24.1,18.4c4.6,8.3,5.5,16.2,5.6,20.8c21.8,14,43.6,28,65.4,42"/>
			
				<linearGradient id="SVGID_00000013174869713598655960000005681142799924957867_" gradientUnits="userSpaceOnUse" x1="358.011" y1="293.2304" x2="444.9731" y2="206.2684">
				<stop  offset="0" style="stop-color:#3D3D3D"/>
				<stop  offset="1" style="stop-color:#262626"/>
			</linearGradient>
			
				<line style="fill:none;stroke:url(#SVGID_00000013174869713598655960000005681142799924957867_);stroke-width:2.25;stroke-linecap:round;stroke-linejoin:round;" x1="316.4" y1="212.3" x2="331.8" y2="226"/>
			
				<linearGradient id="SVGID_00000013163178084554046750000015165149847339525805_" gradientUnits="userSpaceOnUse" x1="358.011" y1="293.2304" x2="444.9731" y2="206.2684">
				<stop  offset="0" style="stop-color:#3D3D3D"/>
				<stop  offset="1" style="stop-color:#262626"/>
			</linearGradient>
			
				<path style="fill:none;stroke:url(#SVGID_00000013163178084554046750000015165149847339525805_);stroke-width:2.25;stroke-linecap:round;stroke-linejoin:round;" d="
				M334.4,211.8c-1.2,1.9-3.1,5.6-3,10.4c0.2,10.9,10.3,17.1,11,17.5c-1.2-2-4.7-8.4-3.5-16.9c0.8-5.9,3.6-10.1,5.1-12l0.1,7
				l-1.8,1.4l0,20.5l48.8,44.7"/>
			
				<linearGradient id="SVGID_00000171712567640773093360000000018218213854330005_" gradientUnits="userSpaceOnUse" x1="358.011" y1="293.2304" x2="444.9731" y2="206.2684">
				<stop  offset="0" style="stop-color:#3D3D3D"/>
				<stop  offset="1" style="stop-color:#262626"/>
			</linearGradient>
			
				<line style="fill:none;stroke:url(#SVGID_00000171712567640773093360000000018218213854330005_);stroke-width:2.25;stroke-linecap:round;stroke-linejoin:round;" x1="340.4" y1="258.1" x2="336.8" y2="235"/>
			
				<linearGradient id="SVGID_00000008137739973316394710000000829060100742372480_" gradientUnits="userSpaceOnUse" x1="358.011" y1="293.2304" x2="444.9731" y2="206.2684">
				<stop  offset="0" style="stop-color:#3D3D3D"/>
				<stop  offset="1" style="stop-color:#262626"/>
			</linearGradient>
			
				<path style="fill:none;stroke:url(#SVGID_00000008137739973316394710000000829060100742372480_);stroke-width:2.25;stroke-linecap:round;stroke-linejoin:round;" d="
				M362,220.3c0,0.9,0.1,2.3,0.6,4c2.9,11.1,16.3,16.5,24.7,19.9c4.1,1.6,10.1,3.7,17.9,4.9"/>
		</g>
	</g>
	<g>
		<g>
			
				<linearGradient id="SVGID_00000108271308891242590520000003662929411571440779_" gradientUnits="userSpaceOnUse" x1="798.7107" y1="505.5023" x2="885.6728" y2="418.5403">
				<stop  offset="0" style="stop-color:#323232"/>
				<stop  offset="5.907977e-02" style="stop-color:#2F2F2F"/>
				<stop  offset="0.345" style="stop-color:#282828"/>
				<stop  offset="1" style="stop-color:#262626"/>
			</linearGradient>
			
				<path style="fill:none;stroke:url(#SVGID_00000108271308891242590520000003662929411571440779_);stroke-width:2.25;stroke-linecap:round;stroke-linejoin:round;" d="
				M746.8,405.1"/>
			
				<linearGradient id="SVGID_00000148639106810998780910000000850459355150191010_" gradientUnits="userSpaceOnUse" x1="798.7107" y1="505.5023" x2="885.6728" y2="418.5403">
				<stop  offset="0" style="stop-color:#323232"/>
				<stop  offset="5.907977e-02" style="stop-color:#2F2F2F"/>
				<stop  offset="0.345" style="stop-color:#282828"/>
				<stop  offset="1" style="stop-color:#262626"/>
			</linearGradient>
			
				<path style="fill:none;stroke:url(#SVGID_00000148639106810998780910000000850459355150191010_);stroke-width:2.25;stroke-linecap:round;stroke-linejoin:round;" d="
				M746.8,405.1l10.3,7.8c-0.5,1-1.2,2.5-1.4,4.5c-0.4,3.4,0.8,6.1,1.4,7.3c-3.4-2.9-6.8-5.8-10.3-8.8v13.8l34.3,40.8l2.5,12.8
				l30.3,37.5l18-24l12.1,10.8l26.5,13.3h81.1v-17.3L903,435.9l-93.6-31.8h-10.3l-41.8-14.8h-10.5V405.1z"/>
			
				<linearGradient id="SVGID_00000011010053638866827680000000227878508935937923_" gradientUnits="userSpaceOnUse" x1="798.7107" y1="505.5023" x2="885.6728" y2="418.5403">
				<stop  offset="0" style="stop-color:#323232"/>
				<stop  offset="5.907977e-02" style="stop-color:#2F2F2F"/>
				<stop  offset="0.345" style="stop-color:#282828"/>
				<stop  offset="1" style="stop-color:#262626"/>
			</linearGradient>
			
				<polyline style="fill:none;stroke:url(#SVGID_00000011010053638866827680000000227878508935937923_);stroke-width:2.25;stroke-linecap:round;stroke-linejoin:round;" points="
				757.1,412.8 772,424.1 784.8,423.1 784.8,410.1 789.9,404.5 799.1,404.1 			"/>
			
				<linearGradient id="SVGID_00000125584363487872245210000011864500269070617765_" gradientUnits="userSpaceOnUse" x1="798.7107" y1="505.5023" x2="885.6728" y2="418.5403">
				<stop  offset="0" style="stop-color:#323232"/>
				<stop  offset="5.907977e-02" style="stop-color:#2F2F2F"/>
				<stop  offset="0.345" style="stop-color:#282828"/>
				<stop  offset="1" style="stop-color:#262626"/>
			</linearGradient>
			
				<polyline style="fill:none;stroke:url(#SVGID_00000125584363487872245210000011864500269070617765_);stroke-width:2.25;stroke-linecap:round;stroke-linejoin:round;" points="
				746.8,389.3 784.9,405.7 788.7,405.7 			"/>
			
				<linearGradient id="SVGID_00000111190493614896117630000014736367248665075618_" gradientUnits="userSpaceOnUse" x1="798.7107" y1="505.5023" x2="885.6728" y2="418.5403">
				<stop  offset="0" style="stop-color:#323232"/>
				<stop  offset="5.907977e-02" style="stop-color:#2F2F2F"/>
				<stop  offset="0.345" style="stop-color:#282828"/>
				<stop  offset="1" style="stop-color:#262626"/>
			</linearGradient>
			
				<line style="fill:none;stroke:url(#SVGID_00000111190493614896117630000014736367248665075618_);stroke-width:2.25;stroke-linecap:round;stroke-linejoin:round;" x1="784.9" y1="405.7" x2="784.8" y2="410.1"/>
			
				<linearGradient id="SVGID_00000028321750546239450910000017895636730429387649_" gradientUnits="userSpaceOnUse" x1="798.7107" y1="505.5023" x2="885.6728" y2="418.5403">
				<stop  offset="0" style="stop-color:#323232"/>
				<stop  offset="5.907977e-02" style="stop-color:#2F2F2F"/>
				<stop  offset="0.345" style="stop-color:#282828"/>
				<stop  offset="1" style="stop-color:#262626"/>
			</linearGradient>
			
				<polyline style="fill:none;stroke:url(#SVGID_00000028321750546239450910000017895636730429387649_);stroke-width:2.25;stroke-linecap:round;stroke-linejoin:round;" points="
				789.9,404.5 869.3,436.9 903,435.9 			"/>
			
				<linearGradient id="SVGID_00000119804251964220870600000015526664718186194581_" gradientUnits="userSpaceOnUse" x1="798.7107" y1="505.5023" x2="885.6728" y2="418.5403">
				<stop  offset="0" style="stop-color:#323232"/>
				<stop  offset="5.907977e-02" style="stop-color:#2F2F2F"/>
				<stop  offset="0.345" style="stop-color:#282828"/>
				<stop  offset="1" style="stop-color:#262626"/>
			</linearGradient>
			
				<path style="fill:none;stroke:url(#SVGID_00000119804251964220870600000015526664718186194581_);stroke-width:2.25;stroke-linecap:round;stroke-linejoin:round;" d="
				M869.3,436.9"/>
			
				<linearGradient id="SVGID_00000103963001996568157930000002180376452903383480_" gradientUnits="userSpaceOnUse" x1="798.7107" y1="505.5023" x2="885.6728" y2="418.5403">
				<stop  offset="0" style="stop-color:#323232"/>
				<stop  offset="5.907977e-02" style="stop-color:#2F2F2F"/>
				<stop  offset="0.345" style="stop-color:#282828"/>
				<stop  offset="1" style="stop-color:#262626"/>
			</linearGradient>
			
				<polyline style="fill:none;stroke:url(#SVGID_00000103963001996568157930000002180376452903383480_);stroke-width:2.25;stroke-linecap:round;stroke-linejoin:round;" points="
				951.6,503.4 911.3,503.4 911.3,520.7 			"/>
			
				<linearGradient id="SVGID_00000171713191737495621680000011448935367075369602_" gradientUnits="userSpaceOnUse" x1="798.7107" y1="505.5023" x2="885.6728" y2="418.5403">
				<stop  offset="0" style="stop-color:#323232"/>
				<stop  offset="5.907977e-02" style="stop-color:#2F2F2F"/>
				<stop  offset="0.345" style="stop-color:#282828"/>
				<stop  offset="1" style="stop-color:#262626"/>
			</linearGradient>
			
				<path style="fill:none;stroke:url(#SVGID_00000171713191737495621680000011448935367075369602_);stroke-width:2.25;stroke-linecap:round;stroke-linejoin:round;" d="
				M869.3,436.9l41.9,66.6l-68.4-27.2l-59.7-44.8l7.3-5.8c4.1,2.3,8.2,4.6,12.3,6.9c1.9-3.1,6.5-9.4,13.5-10.4
				c12.8-1.8,22.5,15.5,24.1,18.4c4.6,8.3,5.5,16.2,5.6,20.8c21.8,14,43.6,28,65.4,42"/>
			
				<linearGradient id="SVGID_00000000920235138131979620000004421509549117514115_" gradientUnits="userSpaceOnUse" x1="798.7107" y1="505.5023" x2="885.6728" y2="418.5403">
				<stop  offset="0" style="stop-color:#323232"/>
				<stop  offset="5.907977e-02" style="stop-color:#2F2F2F"/>
				<stop  offset="0.345" style="stop-color:#282828"/>
				<stop  offset="1" style="stop-color:#262626"/>
			</linearGradient>
			
				<line style="fill:none;stroke:url(#SVGID_00000000920235138131979620000004421509549117514115_);stroke-width:2.25;stroke-linecap:round;stroke-linejoin:round;" x1="757.1" y1="424.6" x2="772.5" y2="438.2"/>
			
				<linearGradient id="SVGID_00000026877666200198070730000004411432618713198011_" gradientUnits="userSpaceOnUse" x1="798.7107" y1="505.5023" x2="885.6728" y2="418.5403">
				<stop  offset="0" style="stop-color:#323232"/>
				<stop  offset="5.907977e-02" style="stop-color:#2F2F2F"/>
				<stop  offset="0.345" style="stop-color:#282828"/>
				<stop  offset="1" style="stop-color:#262626"/>
			</linearGradient>
			
				<path style="fill:none;stroke:url(#SVGID_00000026877666200198070730000004411432618713198011_);stroke-width:2.25;stroke-linecap:round;stroke-linejoin:round;" d="
				M775.1,424.1c-1.2,1.9-3.1,5.6-3,10.4c0.2,10.9,10.3,17.1,11,17.5c-1.2-2-4.7-8.4-3.5-16.9c0.8-5.9,3.6-10.1,5.1-12l0.1,7
				l-1.8,1.4V452l48.8,44.7"/>
			
				<linearGradient id="SVGID_00000165224625663063948260000010282727724356740744_" gradientUnits="userSpaceOnUse" x1="798.7107" y1="505.5023" x2="885.6728" y2="418.5403">
				<stop  offset="0" style="stop-color:#323232"/>
				<stop  offset="5.907977e-02" style="stop-color:#2F2F2F"/>
				<stop  offset="0.345" style="stop-color:#282828"/>
				<stop  offset="1" style="stop-color:#262626"/>
			</linearGradient>
			
				<line style="fill:none;stroke:url(#SVGID_00000165224625663063948260000010282727724356740744_);stroke-width:2.25;stroke-linecap:round;stroke-linejoin:round;" x1="781.1" y1="470.4" x2="777.5" y2="447.3"/>
			
				<linearGradient id="SVGID_00000010294010971210039920000006391181277371338682_" gradientUnits="userSpaceOnUse" x1="798.7107" y1="505.5023" x2="885.6728" y2="418.5403">
				<stop  offset="0" style="stop-color:#323232"/>
				<stop  offset="5.907977e-02" style="stop-color:#2F2F2F"/>
				<stop  offset="0.345" style="stop-color:#282828"/>
				<stop  offset="1" style="stop-color:#262626"/>
			</linearGradient>
			
				<path style="fill:none;stroke:url(#SVGID_00000010294010971210039920000006391181277371338682_);stroke-width:2.25;stroke-linecap:round;stroke-linejoin:round;" d="
				M802.7,432.6c0,0.9,0.1,2.3,0.6,4c2.9,11.1,16.3,16.5,24.7,19.9c4.1,1.6,10.1,3.7,17.9,4.9"/>
		</g>
	</g>
	<g>
		
			<radialGradient id="SVGID_00000052102981519511983870000013316837535437729981_" cx="77.0415" cy="543.7824" r="1032.6846" gradientUnits="userSpaceOnUse">
			<stop  offset="0" style="stop-color:#505050"/>
			<stop  offset="0.6535" style="stop-color:#262626"/>
		</radialGradient>
		<path style="fill:url(#SVGID_00000052102981519511983870000013316837535437729981_);" d="M506.3,113h-59c-4.4,0-8-3.6-8-8
			s3.6-8,8-8h59c4.4,0,8,3.6,8,8S510.8,113,506.3,113z"/>
		<g>
			
				<radialGradient id="SVGID_00000015322645296105895870000011480914173752849035_" cx="77.0415" cy="543.7824" r="1032.6846" gradientUnits="userSpaceOnUse">
				<stop  offset="0" style="stop-color:#505050"/>
				<stop  offset="0.6535" style="stop-color:#262626"/>
			</radialGradient>
			<path style="fill:url(#SVGID_00000015322645296105895870000011480914173752849035_);" d="M514.3,308.3H105.7c-6.6,0-12-5.4-12-12
				V91.4c0-6.6,5.4-12,12-12h414c6.6,0,12,5.4,12,12v183.9c4.4-2.3,9.4-3.6,14.7-3.6h5.3V91.4c0-17.7-14.3-32-32-32h-414
				c-17.7,0-32,14.3-32,32v204.9c0,17.7,14.3,32,32,32h408.7V308.3z"/>
		</g>
		
			<radialGradient id="SVGID_00000036224543410999959460000002963749802335078556_" cx="77.0415" cy="543.7824" r="1032.6846" gradientUnits="userSpaceOnUse">
			<stop  offset="0" style="stop-color:#505050"/>
			<stop  offset="0.6535" style="stop-color:#262626"/>
		</radialGradient>
		<path style="fill:url(#SVGID_00000036224543410999959460000002963749802335078556_);" d="M213,291.2h-93.7c-4.4,0-8-3.6-8-8
			s3.6-8,8-8H213c4.4,0,8,3.6,8,8S217.4,291.2,213,291.2z"/>
		
			<radialGradient id="SVGID_00000056397489449753089270000010040954317721110974_" cx="77.0415" cy="543.7824" r="1032.6846" gradientUnits="userSpaceOnUse">
			<stop  offset="0" style="stop-color:#505050"/>
			<stop  offset="0.6535" style="stop-color:#262626"/>
		</radialGradient>
		<path style="fill:url(#SVGID_00000056397489449753089270000010040954317721110974_);" d="M506.3,164.6h-24c-4.4,0-8-3.6-8-8
			s3.6-8,8-8h24c4.4,0,8,3.6,8,8S510.8,164.6,506.3,164.6z"/>
		
			<radialGradient id="SVGID_00000162322356978471034330000005958329649903188882_" cx="77.0415" cy="543.7824" r="1032.6846" gradientUnits="userSpaceOnUse">
			<stop  offset="0" style="stop-color:#505050"/>
			<stop  offset="0.6535" style="stop-color:#262626"/>
		</radialGradient>
		<path style="fill:url(#SVGID_00000162322356978471034330000005958329649903188882_);" d="M506.3,190.5h-24c-4.4,0-8-3.6-8-8
			s3.6-8,8-8h24c4.4,0,8,3.6,8,8S510.8,190.5,506.3,190.5z"/>
		
			<radialGradient id="SVGID_00000172410786444427694800000005020154732225771925_" cx="77.0415" cy="543.7824" r="1032.6846" gradientUnits="userSpaceOnUse">
			<stop  offset="0" style="stop-color:#505050"/>
			<stop  offset="0.6535" style="stop-color:#262626"/>
		</radialGradient>
		<path style="fill:url(#SVGID_00000172410786444427694800000005020154732225771925_);" d="M506.3,138.8h-24c-4.4,0-8-3.6-8-8
			s3.6-8,8-8h24c4.4,0,8,3.6,8,8S510.8,138.8,506.3,138.8z"/>
		
			<radialGradient id="SVGID_00000043446406558145488820000008097897273318834096_" cx="77.0415" cy="543.7824" r="1032.6846" gradientUnits="userSpaceOnUse">
			<stop  offset="0" style="stop-color:#505050"/>
			<stop  offset="0.6535" style="stop-color:#262626"/>
		</radialGradient>
		<path style="fill:url(#SVGID_00000043446406558145488820000008097897273318834096_);" d="M960.3,291.7c6.6,0,12,5.4,12,12v204.9
			c0,6.6-5.4,12-12,12h-414c-6.6,0-12-5.4-12-12V303.7c0-6.6,5.4-12,12-12H960.3 M960.3,271.7h-414c-17.7,0-32,14.3-32,32v204.9
			c0,17.7,14.3,32,32,32h414c17.7,0,32-14.3,32-32V303.7C992.3,286,978,271.7,960.3,271.7L960.3,271.7z"/>
	</g>
</g>
</svg>
