<?xml version="1.0" encoding="utf-8"?>
<!-- Generator: Adobe Illustrator 26.5.0, SVG Export Plug-In . SVG Version: 6.00 Build 0)  -->
<svg version="1.1" id="Layer_1" xmlns="http://www.w3.org/2000/svg" xmlns:xlink="http://www.w3.org/1999/xlink" x="0px" y="0px"
	 viewBox="0 0 1066 600" style="enable-background:new 0 0 1066 600;" xml:space="preserve">
<style type="text/css">
	.st0{fill:url(#SVGID_1_);}
	.st1{fill:url(#SVGID_00000021801119802142544930000018299514038581478079_);}
	.st2{opacity:0.84;fill:url(#SVGID_00000112631135651979330890000011671345551590984354_);enable-background:new    ;}
	.st3{opacity:0.7;fill:url(#SVGID_00000147918781234806510070000004102626726070081959_);enable-background:new    ;}
	.st4{opacity:0.56;fill:url(#SVGID_00000132083124327688733180000009855286958505892509_);enable-background:new    ;}
	.st5{opacity:0.42;fill:url(#SVGID_00000065048870163938104770000013632712430287794574_);enable-background:new    ;}
	.st6{opacity:0.28;fill:url(#SVGID_00000019649343018808191480000017785277413653393065_);enable-background:new    ;}
	.st7{opacity:0.14;fill:url(#SVGID_00000041976276644480223130000001146652999444185765_);enable-background:new    ;}
	.st8{opacity:0.45;}
	.st9{fill:url(#SVGID_00000008124043154401664150000003485630457249067946_);}
	.st10{opacity:0.54;}
	.st11{fill:url(#SVGID_00000093174651107161309640000014270788265187428231_);}
	.st12{opacity:0.63;}
	.st13{fill:url(#SVGID_00000011023679521319045160000006724493892828604802_);}
	.st14{fill:url(#SVGID_00000145037330027958891560000018280961517897285296_);}
	.st15{fill:url(#SVGID_00000079475570844840595410000009833839880015489159_);}
	.st16{opacity:0.9;fill:url(#SVGID_00000174588863335617628860000015586406657090077117_);}
	.st17{opacity:9.000000e-02;fill:url(#SVGID_00000073001640410927854020000001996090419408341920_);enable-background:new    ;}
	.st18{opacity:0.18;fill:url(#SVGID_00000031195211889963265770000010793615496748743341_);}
	.st19{opacity:0.26;fill:url(#SVGID_00000119839867993349812280000007141024256173946271_);}
	.st20{opacity:0.36;fill:url(#SVGID_00000129894187621402667500000010982567278373309336_);enable-background:new    ;}
	.st21{opacity:0.81;fill:url(#SVGID_00000165954198462650196590000001451057923360837052_);}
	.st22{opacity:0.72;fill:url(#SVGID_00000160173743792441527040000011603785016255824059_);}
</style>
<g id="Layer_2_00000006681894956437441280000006358314910274014852_">
	
		<radialGradient id="SVGID_1_" cx="-18.6667" cy="-35.3333" r="1280.8921" gradientTransform="matrix(1 0 0 -1 0 602)" gradientUnits="userSpaceOnUse">
		<stop  offset="1.275023e-02" style="stop-color:#3CC0C4"/>
		<stop  offset="0.2988" style="stop-color:#4AAFC4"/>
		<stop  offset="0.5917" style="stop-color:#51A3C3"/>
		<stop  offset="0.856" style="stop-color:#559CC3"/>
		<stop  offset="1" style="stop-color:#5699C2"/>
	</radialGradient>
	<rect class="st0" width="1066" height="600"/>
</g>
<g>
	
		<radialGradient id="SVGID_00000091735706624382351270000017301928257725624991_" cx="64.3333" cy="88.3333" r="1017.9863" gradientTransform="matrix(1 0 0 -1 0 602)" gradientUnits="userSpaceOnUse">
		<stop  offset="0" style="stop-color:#505050"/>
		<stop  offset="0.6535" style="stop-color:#262626"/>
	</radialGradient>
	<path style="fill:url(#SVGID_00000091735706624382351270000017301928257725624991_);" d="M168.7,443.9c0,25.5-20.7,46.1-46.1,46.1
		s-46.1-20.7-46.1-46.1c0-25.5,20.7-46.1,46.1-46.1S168.7,418.4,168.7,443.9z"/>
	
		<radialGradient id="SVGID_00000099662151983265271750000015098601116508651446_" cx="64.3333" cy="88.3333" r="1017.9863" gradientTransform="matrix(1 0 0 -1 0 602)" gradientUnits="userSpaceOnUse">
		<stop  offset="0" style="stop-color:#505050"/>
		<stop  offset="0.6535" style="stop-color:#262626"/>
	</radialGradient>
	<path style="opacity:0.84;fill:url(#SVGID_00000099662151983265271750000015098601116508651446_);enable-background:new    ;" d="
		M284.7,421.1c0,25.5-20.7,46.1-46.1,46.1s-46.1-20.7-46.1-46.1s20.7-46.1,46.1-46.1S284.7,395.6,284.7,421.1z"/>
	
		<radialGradient id="SVGID_00000140724663558755227250000011940947811128131233_" cx="64.3333" cy="88.3333" r="1017.9863" gradientTransform="matrix(1 0 0 -1 0 602)" gradientUnits="userSpaceOnUse">
		<stop  offset="0" style="stop-color:#505050"/>
		<stop  offset="0.6535" style="stop-color:#262626"/>
	</radialGradient>
	<path style="opacity:0.7;fill:url(#SVGID_00000140724663558755227250000011940947811128131233_);enable-background:new    ;" d="
		M429.3,407c0,25.5-20.7,46.1-46.1,46.1s-46.1-20.7-46.1-46.1s20.7-46.1,46.1-46.1S429.3,381.5,429.3,407z"/>
	
		<radialGradient id="SVGID_00000061443327970165227020000014635920065424309376_" cx="64.3333" cy="88.3333" r="1017.9863" gradientTransform="matrix(1 0 0 -1 0 602)" gradientUnits="userSpaceOnUse">
		<stop  offset="0" style="stop-color:#505050"/>
		<stop  offset="0.6535" style="stop-color:#262626"/>
	</radialGradient>
	<path style="opacity:0.56;fill:url(#SVGID_00000061443327970165227020000014635920065424309376_);enable-background:new    ;" d="
		M598.5,410.1c0,25.5-20.7,46.1-46.1,46.1c-25.5,0-46.1-20.7-46.1-46.1c0-25.5,20.7-46.1,46.1-46.1
		C577.8,363.9,598.5,384.6,598.5,410.1z"/>
	
		<radialGradient id="SVGID_00000088855483334518129440000014804935956436621716_" cx="64.3333" cy="88.3333" r="1017.9863" gradientTransform="matrix(1 0 0 -1 0 602)" gradientUnits="userSpaceOnUse">
		<stop  offset="0" style="stop-color:#505050"/>
		<stop  offset="0.6535" style="stop-color:#262626"/>
	</radialGradient>
	
		<circle style="opacity:0.42;fill:url(#SVGID_00000088855483334518129440000014804935956436621716_);enable-background:new    ;" cx="706.8" cy="431.6" r="46.1"/>
	
		<radialGradient id="SVGID_00000076573944696422026410000006881632986384235905_" cx="64.3333" cy="88.3333" r="1017.9863" gradientTransform="matrix(1 0 0 -1 0 602)" gradientUnits="userSpaceOnUse">
		<stop  offset="0" style="stop-color:#505050"/>
		<stop  offset="0.6535" style="stop-color:#262626"/>
	</radialGradient>
	
		<circle style="opacity:0.28;fill:url(#SVGID_00000076573944696422026410000006881632986384235905_);enable-background:new    ;" cx="837.9" cy="464.4" r="46.1"/>
	
		<radialGradient id="SVGID_00000131362107426091047840000000656015660636295059_" cx="64.3333" cy="88.3333" r="1017.9863" gradientTransform="matrix(1 0 0 -1 0 602)" gradientUnits="userSpaceOnUse">
		<stop  offset="0" style="stop-color:#505050"/>
		<stop  offset="0.6535" style="stop-color:#262626"/>
	</radialGradient>
	
		<circle style="opacity:0.14;fill:url(#SVGID_00000131362107426091047840000000656015660636295059_);enable-background:new    ;" cx="943.4" cy="501.2" r="46.1"/>
</g>
<g class="st8">
	
		<radialGradient id="SVGID_00000093152984491053364350000009944572367265856935_" cx="64.3333" cy="88.3333" r="1017.9863" gradientTransform="matrix(1 0 0 -1 0 602)" gradientUnits="userSpaceOnUse">
		<stop  offset="0" style="stop-color:#505050"/>
		<stop  offset="0.6535" style="stop-color:#262626"/>
	</radialGradient>
	<circle style="fill:url(#SVGID_00000093152984491053364350000009944572367265856935_);" cx="647.7" cy="114.3" r="46.1"/>
</g>
<g class="st10">
	
		<radialGradient id="SVGID_00000085222928961119267790000003488422359989208974_" cx="64.3333" cy="88.3333" r="1017.9863" gradientTransform="matrix(1 0 0 -1 0 602)" gradientUnits="userSpaceOnUse">
		<stop  offset="0" style="stop-color:#505050"/>
		<stop  offset="0.6535" style="stop-color:#262626"/>
	</radialGradient>
	<path style="fill:url(#SVGID_00000085222928961119267790000003488422359989208974_);" d="M598.5,103.2c0,25.5-20.7,46.1-46.1,46.1
		c-25.5,0-46.1-20.7-46.1-46.1s20.6-46.2,46-46.2C577.8,57,598.5,77.7,598.5,103.2z"/>
</g>
<g class="st12">
	
		<radialGradient id="SVGID_00000089568707537900928350000001913081841869204122_" cx="64.3333" cy="88.3333" r="1017.9863" gradientTransform="matrix(1 0 0 -1 0 602)" gradientUnits="userSpaceOnUse">
		<stop  offset="0" style="stop-color:#505050"/>
		<stop  offset="0.6535" style="stop-color:#262626"/>
	</radialGradient>
	<path style="fill:url(#SVGID_00000089568707537900928350000001913081841869204122_);" d="M494.3,98.8c0,25.5-20.7,46.1-46.1,46.1
		c-25.5,0-46.1-20.7-46.1-46.1s20.7-46.1,46.1-46.1C473.6,52.6,494.3,73.3,494.3,98.8z"/>
</g>
<radialGradient id="SVGID_00000036239114463001823700000002852990977660487060_" cx="64.3333" cy="88.3333" r="1017.9863" gradientTransform="matrix(1 0 0 -1 0 602)" gradientUnits="userSpaceOnUse">
	<stop  offset="0" style="stop-color:#505050"/>
	<stop  offset="0.6535" style="stop-color:#262626"/>
</radialGradient>
<path style="fill:url(#SVGID_00000036239114463001823700000002852990977660487060_);" d="M168.7,137c0,25.5-20.7,46.1-46.1,46.1
	S76.4,162.5,76.4,137s20.7-46.1,46.1-46.1S168.7,111.5,168.7,137z"/>
<radialGradient id="SVGID_00000104695703323026653330000008839857356834179969_" cx="533" cy="172.6571" r="330.0813" gradientTransform="matrix(1 0 0 -0.65 0 412.8777)" gradientUnits="userSpaceOnUse">
	<stop  offset="0" style="stop-color:#DCDDDE"/>
	<stop  offset="1" style="stop-color:#D4D4D4"/>
</radialGradient>
<path style="fill:url(#SVGID_00000104695703323026653330000008839857356834179969_);" d="M989.7,307.2H76.3c-5.5,0-10-2.9-10-6.5
	s4.5-6.5,10-6.5h913.4c5.5,0,10,2.9,10,6.5C999.7,304.2,995.2,307.2,989.7,307.2z"/>
<radialGradient id="SVGID_00000147193974937066655810000014733113701285476501_" cx="76.2655" cy="-268.2668" r="1008.8708" gradientUnits="userSpaceOnUse">
	<stop  offset="0" style="stop-color:#505050"/>
	<stop  offset="0.6535" style="stop-color:#262626"/>
</radialGradient>
<path style="opacity:0.9;fill:url(#SVGID_00000147193974937066655810000014733113701285476501_);" d="M188.6,76.6
	c-16.8,0-31.6,9.1-39.6,22.6c11.9,8.3,19.7,22.2,19.7,37.8c0,8.6-2.4,16.6-6.4,23.5c7.5,5.2,16.6,8.3,26.3,8.3
	c25.4,0,46.1-20.6,46.1-46.1C234.7,97.3,214,76.6,188.6,76.6z"/>
<radialGradient id="SVGID_00000160179255286519421460000004866634910319988114_" cx="110.4451" cy="-125.0666" r="974.2512" gradientUnits="userSpaceOnUse">
	<stop  offset="0" style="stop-color:#505050"/>
	<stop  offset="0.6535" style="stop-color:#262626"/>
</radialGradient>
<path style="opacity:9.000000e-02;fill:url(#SVGID_00000160179255286519421460000004866634910319988114_);enable-background:new    ;" d="
	M943.4,148.2c-6.6,0-12.9,1.4-18.6,3.9c2.9,6.1,4.6,12.9,4.6,20.1c0,18.8-11.3,35-27.5,42.2c7.5,15.4,23.2,26,41.5,26
	c25.5,0,46.1-20.6,46.1-46.1S968.9,148.2,943.4,148.2z"/>
<radialGradient id="SVGID_00000039823955649345624340000017622119804656876470_" cx="91.1706" cy="-169.2668" r="991.7544" gradientUnits="userSpaceOnUse">
	<stop  offset="0" style="stop-color:#505050"/>
	<stop  offset="0.6535" style="stop-color:#262626"/>
</radialGradient>
<path style="opacity:0.18;fill:url(#SVGID_00000039823955649345624340000017622119804656876470_);" d="M883.3,126.1
	c-9.8,0-18.9,3.1-26.4,8.3c1.8,5,2.9,10.4,2.9,16c0,15.7-7.8,29.5-19.7,37.8c6.5,17.6,23.4,30.1,43.2,30.1
	c25.5,0,46.1-20.6,46.1-46.1S908.8,126.1,883.3,126.1z"/>
<radialGradient id="SVGID_00000050633817426734770360000001023956241199564936_" cx="76.4569" cy="-212.8667" r="1005.7397" gradientUnits="userSpaceOnUse">
	<stop  offset="0" style="stop-color:#505050"/>
	<stop  offset="0.6535" style="stop-color:#262626"/>
</radialGradient>
<path style="opacity:0.26;fill:url(#SVGID_00000050633817426734770360000001023956241199564936_);" d="M813.7,104.3
	c-13.5,0-25.6,5.8-34,15c0.9,3.6,1.4,7.4,1.4,11.3c0,12-4.6,22.9-12.1,31.1c5,20,23.1,34.8,44.7,34.8c25.5,0,46.1-20.6,46.1-46.1
	S839.2,104.3,813.7,104.3z"/>
<radialGradient id="SVGID_00000119818688808134910660000014615549507672410013_" cx="65.7715" cy="-252.4667" r="1016.4832" gradientUnits="userSpaceOnUse">
	<stop  offset="0" style="stop-color:#505050"/>
	<stop  offset="0.6535" style="stop-color:#262626"/>
</radialGradient>
<path style="opacity:0.36;fill:url(#SVGID_00000119818688808134910660000014615549507672410013_);enable-background:new    ;" d="
	M735,84.5c-18.2,0-33.9,10.5-41.4,25.8c0.1,1.3,0.2,2.7,0.2,4c0,7.3-1.7,14.2-4.7,20.3c2,23.6,21.8,42.1,45.9,42.1
	c25.5,0,46.1-20.6,46.1-46.1S760.5,84.5,735,84.5z"/>
<radialGradient id="SVGID_00000085252653673114688040000000878243267812431746_" cx="74.459" cy="-292.8668" r="1008.4538" gradientUnits="userSpaceOnUse">
	<stop  offset="0" style="stop-color:#505050"/>
	<stop  offset="0.6535" style="stop-color:#262626"/>
</radialGradient>
<path style="opacity:0.81;fill:url(#SVGID_00000085252653673114688040000000878243267812431746_);" d="M265.4,64.3
	c-18.9,0-35.2,11.5-42.3,27.9c7.2,8.1,11.6,18.8,11.6,30.5c0,6.5-1.3,12.7-3.8,18.3c8.5,9.5,20.8,15.5,34.5,15.5
	c25.4,0,46.1-20.6,46.1-46.1C311.5,84.9,290.8,64.3,265.4,64.3z"/>
<radialGradient id="SVGID_00000152227358339807418150000007836101622754635686_" cx="68.8005" cy="-310.0669" r="1013.2795" gradientUnits="userSpaceOnUse">
	<stop  offset="0" style="stop-color:#505050"/>
	<stop  offset="0.6535" style="stop-color:#262626"/>
</radialGradient>
<path style="opacity:0.72;fill:url(#SVGID_00000152227358339807418150000007836101622754635686_);" d="M352.2,55.7
	c-21.8,0-40.1,15.2-44.9,35.6c2.7,5.8,4.2,12.3,4.2,19.1c0,3.6-0.4,7.2-1.2,10.5c7.3,15.9,23.3,27,41.9,27
	c25.4,0,46.1-20.6,46.1-46.1S377.7,55.6,352.2,55.7z"/>
</svg>
