<?xml version="1.0" encoding="utf-8"?>
<!-- Generator: Adobe Illustrator 26.5.0, SVG Export Plug-In . SVG Version: 6.00 Build 0)  -->
<svg version="1.1" id="Layer_1" xmlns="http://www.w3.org/2000/svg" xmlns:xlink="http://www.w3.org/1999/xlink" x="0px" y="0px"
	 viewBox="0 0 1066 600" style="enable-background:new 0 0 1066 600;" xml:space="preserve">
<style type="text/css">
	.st0{fill:url(#SVGID_1_);}
	.st1{fill:url(#SVGID_00000047042112811952700250000013113539203110271391_);}
</style>
<g id="Layer_2_00000131331377615148242160000009491310361004492173_">
	
		<radialGradient id="SVGID_1_" cx="-18.6667" cy="-35.3333" r="1280.8921" gradientTransform="matrix(1 0 0 -1 0 602)" gradientUnits="userSpaceOnUse">
		<stop  offset="1.275023e-02" style="stop-color:#3CC0C4"/>
		<stop  offset="0.2988" style="stop-color:#4AAFC4"/>
		<stop  offset="0.5917" style="stop-color:#51A3C3"/>
		<stop  offset="0.856" style="stop-color:#559CC3"/>
		<stop  offset="1" style="stop-color:#5699C2"/>
	</radialGradient>
	<rect class="st0" width="1066" height="600"/>
</g>
<radialGradient id="SVGID_00000078025986478060683200000007727540720278272694_" cx="303" cy="495" r="559.883" gradientUnits="userSpaceOnUse">
	<stop  offset="0" style="stop-color:#505050"/>
	<stop  offset="0.6535" style="stop-color:#262626"/>
</radialGradient>
<path style="fill:url(#SVGID_00000078025986478060683200000007727540720278272694_);" d="M720.5,224.7c2.7,7.4,0.4,15.6-5.4,20.9
	L678.4,279c0.9,7,1.4,14.2,1.4,21.5s-0.5,14.5-1.4,21.5l36.7,33.4c5.9,5.3,8.1,13.5,5.4,20.9c-3.7,10.1-8.2,19.8-13.4,29.1l-4,6.9
	c-5.6,9.3-11.9,18.2-18.7,26.5c-5,6.1-13.3,8.1-20.8,5.8l-47.2-15c-11.4,8.7-23.9,16-37.3,21.5l-10.6,48.4
	c-1.7,7.7-7.6,13.8-15.4,15.1c-11.7,2-23.7,3-36,3c-12.3,0-24.3-1-36-3c-7.8-1.3-13.7-7.4-15.4-15.1l-10.6-48.4
	c-13.4-5.5-26-12.8-37.3-21.5l-47.2,15.1c-7.5,2.4-15.8,0.3-20.8-5.8c-6.9-8.3-13.1-17.1-18.7-26.5l-4-6.9
	c-5.2-9.3-9.7-19-13.4-29.1c-2.7-7.4-0.4-15.6,5.4-20.9l36.7-33.4c-0.9-7.1-1.4-14.3-1.4-21.6s0.5-14.5,1.4-21.5l-36.7-33.4
	c-5.9-5.3-8.1-13.5-5.4-20.9c3.7-10.1,8.2-19.8,13.4-29.1l4-6.9c5.6-9.3,11.9-18.2,18.7-26.5c5-6.1,13.3-8.1,20.8-5.8l47.2,15
	c11.4-8.7,23.9-16,37.3-21.5l10.6-48.4c1.7-7.7,7.6-13.8,15.4-15.1c11.7-2,23.7-3.1,36-3.1c12.3,0,24.3,1,36,3
	c7.8,1.3,13.7,7.4,15.4,15.1l10.6,48.4c13.4,5.5,26,12.8,37.3,21.5l47.2-15c7.5-2.4,15.8-0.3,20.8,5.8c6.9,8.3,13.1,17.1,18.7,26.5
	l4,6.9C712.4,204.9,716.9,214.5,720.5,224.7L720.5,224.7z M517,368.4c37.5,0,67.9-30.4,67.9-67.9s-30.4-67.9-67.9-67.9
	s-67.9,30.4-67.9,67.9S479.6,368.4,517,368.4z"/>
</svg>
