<?xml version="1.0" encoding="utf-8"?>
<!-- Generator: Adobe Illustrator 26.5.0, SVG Export Plug-In . SVG Version: 6.00 Build 0)  -->
<svg version="1.1" id="Layer_1" xmlns="http://www.w3.org/2000/svg" xmlns:xlink="http://www.w3.org/1999/xlink" x="0px" y="0px"
	 viewBox="0 0 1066 600" style="enable-background:new 0 0 1066 600;" xml:space="preserve">
<style type="text/css">
	.st0{fill:url(#SVGID_1_);}
	
		.st1{fill:none;stroke:url(#SVGID_00000092422259008660546270000010394328572579530163_);stroke-width:2.25;stroke-linecap:round;stroke-linejoin:round;}
	
		.st2{fill:none;stroke:url(#SVGID_00000137133140865323325140000012081556418513067443_);stroke-width:2.25;stroke-linecap:round;stroke-linejoin:round;}
	
		.st3{fill:none;stroke:url(#SVGID_00000142883877040767686580000013014618763878630571_);stroke-width:2.25;stroke-linecap:round;stroke-linejoin:round;}
	
		.st4{fill:none;stroke:url(#SVGID_00000155144773888965878230000008178324178037832093_);stroke-width:2.25;stroke-linecap:round;stroke-linejoin:round;}
	
		.st5{fill:none;stroke:url(#SVGID_00000040557795072020416930000009944420437056639627_);stroke-width:2.25;stroke-linecap:round;stroke-linejoin:round;}
	
		.st6{fill:none;stroke:url(#SVGID_00000070810731212323350510000010226757196510013354_);stroke-width:2.25;stroke-linecap:round;stroke-linejoin:round;}
	
		.st7{fill:none;stroke:url(#SVGID_00000121994532261074065620000008478964493501986697_);stroke-width:2.25;stroke-linecap:round;stroke-linejoin:round;}
	
		.st8{fill:none;stroke:url(#SVGID_00000055705329948829354970000004944487656612346046_);stroke-width:2.25;stroke-linecap:round;stroke-linejoin:round;}
	
		.st9{fill:none;stroke:url(#SVGID_00000132058524451301697590000015619427309041163929_);stroke-width:2.25;stroke-linecap:round;stroke-linejoin:round;}
	
		.st10{fill:none;stroke:url(#SVGID_00000088814145425989866220000008747058604730920626_);stroke-width:2.25;stroke-linecap:round;stroke-linejoin:round;}
	
		.st11{fill:none;stroke:url(#SVGID_00000005268351180864315420000007890896014589105300_);stroke-width:2.25;stroke-linecap:round;stroke-linejoin:round;}
	
		.st12{fill:none;stroke:url(#SVGID_00000166643615237358182300000016155395087119644810_);stroke-width:2.25;stroke-linecap:round;stroke-linejoin:round;}
	
		.st13{fill:none;stroke:url(#SVGID_00000169528186427458985230000008608426947227836047_);stroke-width:2.25;stroke-linecap:round;stroke-linejoin:round;}
	
		.st14{fill:none;stroke:url(#SVGID_00000099660589282692736030000011695615643998584208_);stroke-width:2.25;stroke-linecap:round;stroke-linejoin:round;}
	
		.st15{fill:none;stroke:url(#SVGID_00000177477749759697380200000015375865218977758896_);stroke-width:2.25;stroke-linecap:round;stroke-linejoin:round;}
	
		.st16{fill:none;stroke:url(#SVGID_00000124878509860947561850000012075936382707616388_);stroke-width:2.25;stroke-linecap:round;stroke-linejoin:round;}
	
		.st17{fill:none;stroke:url(#SVGID_00000112622207670025534300000010965554417622980240_);stroke-width:2.25;stroke-linecap:round;stroke-linejoin:round;}
	
		.st18{fill:none;stroke:url(#SVGID_00000011004943531146376130000013880592945364534203_);stroke-width:2.25;stroke-linecap:round;stroke-linejoin:round;}
	
		.st19{fill:none;stroke:url(#SVGID_00000105413364768763491000000007238930371532840879_);stroke-width:2.25;stroke-linecap:round;stroke-linejoin:round;}
	
		.st20{fill:none;stroke:url(#SVGID_00000178886873616579723260000014318583023075385728_);stroke-width:2.25;stroke-linecap:round;stroke-linejoin:round;}
	
		.st21{fill:none;stroke:url(#SVGID_00000122709838906494423180000001412238692526464647_);stroke-width:2.25;stroke-linecap:round;stroke-linejoin:round;}
	
		.st22{fill:none;stroke:url(#SVGID_00000047760371773228038740000011591351196781818006_);stroke-width:2.25;stroke-linecap:round;stroke-linejoin:round;}
	
		.st23{fill:none;stroke:url(#SVGID_00000118377307902733773570000015273198345421822130_);stroke-width:2.25;stroke-linecap:round;stroke-linejoin:round;}
	
		.st24{fill:none;stroke:url(#SVGID_00000003796496967707290060000010935389149556931477_);stroke-width:2.25;stroke-linecap:round;stroke-linejoin:round;}
	
		.st25{fill:none;stroke:url(#SVGID_00000034084898340690820790000011391105189139938708_);stroke-width:2.25;stroke-linecap:round;stroke-linejoin:round;}
	
		.st26{fill:none;stroke:url(#SVGID_00000027603951837018445740000006895346952216171931_);stroke-width:2.25;stroke-linecap:round;stroke-linejoin:round;}
	.st27{fill:#231F20;}
	.st28{fill:url(#SVGID_00000150786115019548473860000010375202416344932265_);}
	.st29{fill:url(#SVGID_00000099657101387887127910000001437577930966409881_);}
	.st30{fill:url(#SVGID_00000095330624023501394030000014629417911725765013_);}
	.st31{fill:url(#SVGID_00000005960899569071210760000006055400442640097718_);}
	.st32{fill:url(#SVGID_00000095318612671362898790000000496813275978171070_);}
	.st33{fill:url(#SVGID_00000093860219957978822130000014898597982195311540_);}
	.st34{fill:url(#SVGID_00000127740633052063562590000012571212674893240227_);}
	.st35{fill:url(#SVGID_00000049206479566674809490000000464395298085554346_);}
	.st36{fill:url(#SVGID_00000072963752490759063410000009894021584769436593_);}
	.st37{fill:url(#SVGID_00000078044608137252391920000002554407405270310036_);}
	.st38{fill:url(#SVGID_00000100347312497498444610000001769476596739145117_);}
	.st39{fill:url(#SVGID_00000023269983679213116280000015796506210323807165_);}
	.st40{fill:url(#SVGID_00000123410092507505791890000006637525061515327401_);}
	.st41{fill:url(#SVGID_00000178892720903879422380000009759195215775007886_);}
	.st42{fill:url(#SVGID_00000103968412074278069750000003249912316861076370_);}
	.st43{fill:url(#SVGID_00000179621281753172747030000017972382672646695831_);}
	.st44{fill:url(#SVGID_00000134219031929346762180000002382091625383201165_);}
	.st45{fill:url(#SVGID_00000098222587792531082720000013387510662523257790_);}
	.st46{fill:url(#SVGID_00000170962772470544081400000002074921925005619593_);}
	.st47{fill:url(#SVGID_00000095341069941512593440000008981326965016226222_);}
	.st48{fill:url(#SVGID_00000164478784774864736650000011308665777780199102_);}
	.st49{fill:url(#SVGID_00000156590008487815374860000002956530603794250895_);}
	.st50{fill:url(#SVGID_00000060725074871513090060000005658884711474871462_);}
	.st51{fill:url(#SVGID_00000098195296983076553380000004640635608872490138_);}
	.st52{fill:url(#SVGID_00000114776473279632379230000003303965884872410021_);}
	.st53{fill:url(#SVGID_00000055682800665989017040000016335963150963256724_);}
</style>
<g id="Layer_2_00000014629766015427524210000000429453702907818372_">
	
		<radialGradient id="SVGID_1_" cx="-18.6667" cy="-35.3333" r="1280.8921" gradientTransform="matrix(1 0 0 -1 0 602)" gradientUnits="userSpaceOnUse">
		<stop  offset="1.275023e-02" style="stop-color:#3CC0C4"/>
		<stop  offset="0.2988" style="stop-color:#4AAFC4"/>
		<stop  offset="0.5917" style="stop-color:#51A3C3"/>
		<stop  offset="0.856" style="stop-color:#559CC3"/>
		<stop  offset="1" style="stop-color:#5699C2"/>
	</radialGradient>
	<rect class="st0" width="1066" height="600"/>
</g>
<g>
	<g>
		
			<linearGradient id="SVGID_00000080923115055659675160000009986939631558492592_" gradientUnits="userSpaceOnUse" x1="306.1" y1="409.2" x2="306.1" y2="409.2" gradientTransform="matrix(1 0 0 -1 0 602)">
			<stop  offset="0" style="stop-color:#3D3D3D"/>
			<stop  offset="1" style="stop-color:#262626"/>
		</linearGradient>
		
			<path style="fill:none;stroke:url(#SVGID_00000080923115055659675160000009986939631558492592_);stroke-width:2.25;stroke-linecap:round;stroke-linejoin:round;" d="
			M306.1,192.8"/>
		
			<linearGradient id="SVGID_00000168822449135010854050000007171279167494422404_" gradientUnits="userSpaceOnUse" x1="358.0902" y1="308.6903" x2="445.0524" y2="395.6523" gradientTransform="matrix(1 0 0 -1 0 602)">
			<stop  offset="0" style="stop-color:#3D3D3D"/>
			<stop  offset="1" style="stop-color:#262626"/>
		</linearGradient>
		
			<path style="fill:none;stroke:url(#SVGID_00000168822449135010854050000007171279167494422404_);stroke-width:2.25;stroke-linecap:round;stroke-linejoin:round;" d="
			M306.1,192.8l10.3,7.8c-0.5,1-1.2,2.5-1.4,4.5c-0.4,3.4,0.8,6.1,1.4,7.3c-3.4-2.9-6.8-5.8-10.3-8.8v13.8l34.3,40.8l2.5,12.8
			l30.3,37.5l18-24l12.1,10.8l26.5,13.3h81.1v-17.3l-48.5-67.6l-93.6-31.8h-10.3l-41.8-14.8h-10.5v15.7H306.1z"/>
		
			<linearGradient id="SVGID_00000132777496663715712490000007954130021055689630_" gradientUnits="userSpaceOnUse" x1="300.3653" y1="366.4153" x2="387.3275" y2="453.3773" gradientTransform="matrix(1 0 0 -1 0 602)">
			<stop  offset="0" style="stop-color:#3D3D3D"/>
			<stop  offset="1" style="stop-color:#262626"/>
		</linearGradient>
		
			<polyline style="fill:none;stroke:url(#SVGID_00000132777496663715712490000007954130021055689630_);stroke-width:2.25;stroke-linecap:round;stroke-linejoin:round;" points="
			316.4,200.6 331.3,211.8 344.1,210.8 344.1,197.8 349.2,192.2 358.4,191.8 		"/>
		
			<linearGradient id="SVGID_00000008864666389506995710000011026742433073384113_" gradientUnits="userSpaceOnUse" x1="288.5403" y1="378.2404" x2="375.5024" y2="465.2024" gradientTransform="matrix(1 0 0 -1 0 602)">
			<stop  offset="0" style="stop-color:#3D3D3D"/>
			<stop  offset="1" style="stop-color:#262626"/>
		</linearGradient>
		
			<polyline style="fill:none;stroke:url(#SVGID_00000008864666389506995710000011026742433073384113_);stroke-width:2.25;stroke-linecap:round;stroke-linejoin:round;" points="
			306.1,177.1 344.2,193.4 348,193.4 		"/>
		
			<linearGradient id="SVGID_00000056422425079193933080000003567445265427845310_" gradientUnits="userSpaceOnUse" x1="302.2653" y1="364.5154" x2="389.2274" y2="451.4774" gradientTransform="matrix(1 0 0 -1 0 602)">
			<stop  offset="0" style="stop-color:#3D3D3D"/>
			<stop  offset="1" style="stop-color:#262626"/>
		</linearGradient>
		
			<line style="fill:none;stroke:url(#SVGID_00000056422425079193933080000003567445265427845310_);stroke-width:2.25;stroke-linecap:round;stroke-linejoin:round;" x1="344.2" y1="193.4" x2="344.1" y2="197.8"/>
		
			<linearGradient id="SVGID_00000183216696835048075440000001983886611818586808_" gradientUnits="userSpaceOnUse" x1="339.2152" y1="327.5653" x2="426.1774" y2="414.5273" gradientTransform="matrix(1 0 0 -1 0 602)">
			<stop  offset="0" style="stop-color:#3D3D3D"/>
			<stop  offset="1" style="stop-color:#262626"/>
		</linearGradient>
		
			<polyline style="fill:none;stroke:url(#SVGID_00000183216696835048075440000001983886611818586808_);stroke-width:2.25;stroke-linecap:round;stroke-linejoin:round;" points="
			349.2,192.2 428.6,224.6 462.3,223.6 		"/>
		
			<linearGradient id="SVGID_00000132768103909547011050000005770399083877126834_" gradientUnits="userSpaceOnUse" x1="428.6" y1="377.4" x2="428.6" y2="377.4" gradientTransform="matrix(1 0 0 -1 0 602)">
			<stop  offset="0" style="stop-color:#3D3D3D"/>
			<stop  offset="1" style="stop-color:#262626"/>
		</linearGradient>
		
			<path style="fill:none;stroke:url(#SVGID_00000132768103909547011050000005770399083877126834_);stroke-width:2.25;stroke-linecap:round;stroke-linejoin:round;" d="
			M428.6,224.6"/>
		
			<linearGradient id="SVGID_00000078732383462480409580000001710256126146929297_" gradientUnits="userSpaceOnUse" x1="423.3652" y1="243.4153" x2="510.3273" y2="330.3773" gradientTransform="matrix(1 0 0 -1 0 602)">
			<stop  offset="0" style="stop-color:#3D3D3D"/>
			<stop  offset="1" style="stop-color:#262626"/>
		</linearGradient>
		
			<polyline style="fill:none;stroke:url(#SVGID_00000078732383462480409580000001710256126146929297_);stroke-width:2.25;stroke-linecap:round;stroke-linejoin:round;" points="
			510.9,291.2 470.6,291.2 470.6,308.4 		"/>
		
			<linearGradient id="SVGID_00000170979745864518166380000008677604728857753482_" gradientUnits="userSpaceOnUse" x1="363.2152" y1="303.5653" x2="450.1774" y2="390.5273" gradientTransform="matrix(1 0 0 -1 0 602)">
			<stop  offset="0" style="stop-color:#3D3D3D"/>
			<stop  offset="1" style="stop-color:#262626"/>
		</linearGradient>
		
			<path style="fill:none;stroke:url(#SVGID_00000170979745864518166380000008677604728857753482_);stroke-width:2.25;stroke-linecap:round;stroke-linejoin:round;" d="
			M428.6,224.6l41.9,66.6L402.1,264l-59.7-44.8l7.3-5.8c4.1,2.3,8.2,4.6,12.3,6.9c1.9-3.1,6.5-9.4,13.5-10.4
			c12.8-1.8,22.5,15.5,24.1,18.4c4.6,8.3,5.5,16.2,5.6,20.8c21.8,14,43.6,28,65.4,42"/>
		
			<linearGradient id="SVGID_00000174601621976590336550000018254239610699437711_" gradientUnits="userSpaceOnUse" x1="304.0153" y1="362.7654" x2="390.9774" y2="449.7274" gradientTransform="matrix(1 0 0 -1 0 602)">
			<stop  offset="0" style="stop-color:#3D3D3D"/>
			<stop  offset="1" style="stop-color:#262626"/>
		</linearGradient>
		
			<line style="fill:none;stroke:url(#SVGID_00000174601621976590336550000018254239610699437711_);stroke-width:2.25;stroke-linecap:round;stroke-linejoin:round;" x1="316.4" y1="212.3" x2="331.8" y2="226"/>
		
			<linearGradient id="SVGID_00000026161370616640461010000015252704710749939101_" gradientUnits="userSpaceOnUse" x1="337.8153" y1="328.9653" x2="424.7774" y2="415.9273" gradientTransform="matrix(1 0 0 -1 0 602)">
			<stop  offset="0" style="stop-color:#3D3D3D"/>
			<stop  offset="1" style="stop-color:#262626"/>
		</linearGradient>
		
			<path style="fill:none;stroke:url(#SVGID_00000026161370616640461010000015252704710749939101_);stroke-width:2.25;stroke-linecap:round;stroke-linejoin:round;" d="
			M334.4,211.8c-1.2,1.9-3.1,5.6-3,10.4c0.2,10.9,10.3,17.1,11,17.5c-1.2-2-4.7-8.4-3.5-16.9c0.8-5.9,3.6-10.1,5.1-12l0.1,7
			l-1.8,1.4v20.5l48.8,44.7"/>
		
			<linearGradient id="SVGID_00000171698836300305866300000015502230337542864537_" gradientUnits="userSpaceOnUse" x1="324.9653" y1="341.8153" x2="411.9274" y2="428.7773" gradientTransform="matrix(1 0 0 -1 0 602)">
			<stop  offset="0" style="stop-color:#3D3D3D"/>
			<stop  offset="1" style="stop-color:#262626"/>
		</linearGradient>
		
			<line style="fill:none;stroke:url(#SVGID_00000171698836300305866300000015502230337542864537_);stroke-width:2.25;stroke-linecap:round;stroke-linejoin:round;" x1="340.4" y1="258.1" x2="336.8" y2="235"/>
		
			<linearGradient id="SVGID_00000090287783503206689990000015200513985035857083_" gradientUnits="userSpaceOnUse" x1="341.5403" y1="325.2403" x2="428.5024" y2="412.2023" gradientTransform="matrix(1 0 0 -1 0 602)">
			<stop  offset="0" style="stop-color:#3D3D3D"/>
			<stop  offset="1" style="stop-color:#262626"/>
		</linearGradient>
		
			<path style="fill:none;stroke:url(#SVGID_00000090287783503206689990000015200513985035857083_);stroke-width:2.25;stroke-linecap:round;stroke-linejoin:round;" d="
			M362,220.3c0,0.9,0.1,2.3,0.6,4c2.9,11.1,16.3,16.5,24.7,19.9c4.1,1.6,10.1,3.7,17.9,4.9"/>
	</g>
</g>
<g>
	<g>
		
			<linearGradient id="SVGID_00000173842601133431235160000017875266127209649062_" gradientUnits="userSpaceOnUse" x1="746.8" y1="196.9" x2="746.8" y2="196.9" gradientTransform="matrix(1 0 0 -1 0 602)">
			<stop  offset="0" style="stop-color:#323232"/>
			<stop  offset="5.907977e-02" style="stop-color:#2F2F2F"/>
			<stop  offset="0.345" style="stop-color:#282828"/>
			<stop  offset="1" style="stop-color:#262626"/>
		</linearGradient>
		
			<path style="fill:none;stroke:url(#SVGID_00000173842601133431235160000017875266127209649062_);stroke-width:2.25;stroke-linecap:round;stroke-linejoin:round;" d="
			M746.8,405.1"/>
		
			<linearGradient id="SVGID_00000060726853396055370940000000237368320597149108_" gradientUnits="userSpaceOnUse" x1="798.7542" y1="96.4543" x2="885.7162" y2="183.4162" gradientTransform="matrix(1 0 0 -1 0 602)">
			<stop  offset="0" style="stop-color:#323232"/>
			<stop  offset="5.907977e-02" style="stop-color:#2F2F2F"/>
			<stop  offset="0.345" style="stop-color:#282828"/>
			<stop  offset="1" style="stop-color:#262626"/>
		</linearGradient>
		
			<path style="fill:none;stroke:url(#SVGID_00000060726853396055370940000000237368320597149108_);stroke-width:2.25;stroke-linecap:round;stroke-linejoin:round;" d="
			M746.8,405.1l10.3,7.8c-0.5,1-1.2,2.5-1.4,4.5c-0.4,3.4,0.8,6.1,1.4,7.3c-3.4-2.9-6.8-5.8-10.3-8.8v13.8l34.3,40.8l2.5,12.8
			l30.3,37.5l18-24l12.1,10.8l26.5,13.3h81.1v-17.3L903,435.9l-93.6-31.8h-10.3l-41.8-14.8h-10.5L746.8,405.1L746.8,405.1z"/>
		
			<linearGradient id="SVGID_00000090260261770800470890000003586764248090002090_" gradientUnits="userSpaceOnUse" x1="741.0542" y1="154.1543" x2="828.0163" y2="241.1162" gradientTransform="matrix(1 0 0 -1 0 602)">
			<stop  offset="0" style="stop-color:#323232"/>
			<stop  offset="5.907977e-02" style="stop-color:#2F2F2F"/>
			<stop  offset="0.345" style="stop-color:#282828"/>
			<stop  offset="1" style="stop-color:#262626"/>
		</linearGradient>
		
			<polyline style="fill:none;stroke:url(#SVGID_00000090260261770800470890000003586764248090002090_);stroke-width:2.25;stroke-linecap:round;stroke-linejoin:round;" points="
			757.1,412.8 772,424.1 784.8,423.1 784.8,410.1 789.9,404.5 799.1,404.1 		"/>
		
			<linearGradient id="SVGID_00000110459337746709178020000016066543865346048429_" gradientUnits="userSpaceOnUse" x1="729.2292" y1="165.9793" x2="816.1913" y2="252.9413" gradientTransform="matrix(1 0 0 -1 0 602)">
			<stop  offset="0" style="stop-color:#323232"/>
			<stop  offset="5.907977e-02" style="stop-color:#2F2F2F"/>
			<stop  offset="0.345" style="stop-color:#282828"/>
			<stop  offset="1" style="stop-color:#262626"/>
		</linearGradient>
		
			<polyline style="fill:none;stroke:url(#SVGID_00000110459337746709178020000016066543865346048429_);stroke-width:2.25;stroke-linecap:round;stroke-linejoin:round;" points="
			746.8,389.3 784.9,405.7 788.7,405.7 		"/>
		
			<linearGradient id="SVGID_00000125603614188170382240000006151477235246053793_" gradientUnits="userSpaceOnUse" x1="742.9792" y1="152.2293" x2="829.9413" y2="239.1912" gradientTransform="matrix(1 0 0 -1 0 602)">
			<stop  offset="0" style="stop-color:#323232"/>
			<stop  offset="5.907977e-02" style="stop-color:#2F2F2F"/>
			<stop  offset="0.345" style="stop-color:#282828"/>
			<stop  offset="1" style="stop-color:#262626"/>
		</linearGradient>
		
			<line style="fill:none;stroke:url(#SVGID_00000125603614188170382240000006151477235246053793_);stroke-width:2.25;stroke-linecap:round;stroke-linejoin:round;" x1="784.9" y1="405.7" x2="784.8" y2="410.1"/>
		
			<linearGradient id="SVGID_00000027567016911380816090000010980636166393131661_" gradientUnits="userSpaceOnUse" x1="779.9292" y1="115.2793" x2="866.8913" y2="202.2412" gradientTransform="matrix(1 0 0 -1 0 602)">
			<stop  offset="0" style="stop-color:#323232"/>
			<stop  offset="5.907977e-02" style="stop-color:#2F2F2F"/>
			<stop  offset="0.345" style="stop-color:#282828"/>
			<stop  offset="1" style="stop-color:#262626"/>
		</linearGradient>
		
			<polyline style="fill:none;stroke:url(#SVGID_00000027567016911380816090000010980636166393131661_);stroke-width:2.25;stroke-linecap:round;stroke-linejoin:round;" points="
			789.9,404.5 869.3,436.9 903,435.9 		"/>
		
			<linearGradient id="SVGID_00000152237186448394409000000007359367635420085643_" gradientUnits="userSpaceOnUse" x1="869.3" y1="165.1" x2="869.3" y2="165.1" gradientTransform="matrix(1 0 0 -1 0 602)">
			<stop  offset="0" style="stop-color:#323232"/>
			<stop  offset="5.907977e-02" style="stop-color:#2F2F2F"/>
			<stop  offset="0.345" style="stop-color:#282828"/>
			<stop  offset="1" style="stop-color:#262626"/>
		</linearGradient>
		
			<path style="fill:none;stroke:url(#SVGID_00000152237186448394409000000007359367635420085643_);stroke-width:2.25;stroke-linecap:round;stroke-linejoin:round;" d="
			M869.3,436.9"/>
		
			<linearGradient id="SVGID_00000160184947113854983300000005559562716900498852_" gradientUnits="userSpaceOnUse" x1="864.0291" y1="31.1792" x2="950.9912" y2="118.1412" gradientTransform="matrix(1 0 0 -1 0 602)">
			<stop  offset="0" style="stop-color:#323232"/>
			<stop  offset="5.907977e-02" style="stop-color:#2F2F2F"/>
			<stop  offset="0.345" style="stop-color:#282828"/>
			<stop  offset="1" style="stop-color:#262626"/>
		</linearGradient>
		
			<polyline style="fill:none;stroke:url(#SVGID_00000160184947113854983300000005559562716900498852_);stroke-width:2.25;stroke-linecap:round;stroke-linejoin:round;" points="
			951.6,503.4 911.3,503.4 911.3,520.7 		"/>
		
			<linearGradient id="SVGID_00000011004290923637052140000012441849079725615534_" gradientUnits="userSpaceOnUse" x1="803.9291" y1="91.2792" x2="890.8912" y2="178.2412" gradientTransform="matrix(1 0 0 -1 0 602)">
			<stop  offset="0" style="stop-color:#323232"/>
			<stop  offset="5.907977e-02" style="stop-color:#2F2F2F"/>
			<stop  offset="0.345" style="stop-color:#282828"/>
			<stop  offset="1" style="stop-color:#262626"/>
		</linearGradient>
		
			<path style="fill:none;stroke:url(#SVGID_00000011004290923637052140000012441849079725615534_);stroke-width:2.25;stroke-linecap:round;stroke-linejoin:round;" d="
			M869.3,436.9l41.9,66.6l-68.4-27.2l-59.7-44.8l7.3-5.8c4.1,2.3,8.2,4.6,12.3,6.9c1.9-3.1,6.5-9.4,13.5-10.4
			c12.8-1.8,22.5,15.5,24.1,18.4c4.6,8.3,5.5,16.2,5.6,20.8c21.8,14,43.6,28,65.4,42"/>
		
			<linearGradient id="SVGID_00000024711818871778362620000002302900928918810017_" gradientUnits="userSpaceOnUse" x1="744.7042" y1="150.5043" x2="831.6663" y2="237.4662" gradientTransform="matrix(1 0 0 -1 0 602)">
			<stop  offset="0" style="stop-color:#323232"/>
			<stop  offset="5.907977e-02" style="stop-color:#2F2F2F"/>
			<stop  offset="0.345" style="stop-color:#282828"/>
			<stop  offset="1" style="stop-color:#262626"/>
		</linearGradient>
		
			<line style="fill:none;stroke:url(#SVGID_00000024711818871778362620000002302900928918810017_);stroke-width:2.25;stroke-linecap:round;stroke-linejoin:round;" x1="757.1" y1="424.6" x2="772.5" y2="438.2"/>
		
			<linearGradient id="SVGID_00000025421530282698778400000000260203308096982167_" gradientUnits="userSpaceOnUse" x1="778.5292" y1="116.6793" x2="865.4913" y2="203.6412" gradientTransform="matrix(1 0 0 -1 0 602)">
			<stop  offset="0" style="stop-color:#323232"/>
			<stop  offset="5.907977e-02" style="stop-color:#2F2F2F"/>
			<stop  offset="0.345" style="stop-color:#282828"/>
			<stop  offset="1" style="stop-color:#262626"/>
		</linearGradient>
		
			<path style="fill:none;stroke:url(#SVGID_00000025421530282698778400000000260203308096982167_);stroke-width:2.25;stroke-linecap:round;stroke-linejoin:round;" d="
			M775.1,424.1c-1.2,1.9-3.1,5.6-3,10.4c0.2,10.9,10.3,17.1,11,17.5c-1.2-2-4.7-8.4-3.5-16.9c0.8-5.9,3.6-10.1,5.1-12l0.1,7
			l-1.8,1.4V452l48.8,44.7"/>
		
			<linearGradient id="SVGID_00000078754526070862088250000009067211698513806983_" gradientUnits="userSpaceOnUse" x1="765.6792" y1="129.5293" x2="852.6413" y2="216.4912" gradientTransform="matrix(1 0 0 -1 0 602)">
			<stop  offset="0" style="stop-color:#323232"/>
			<stop  offset="5.907977e-02" style="stop-color:#2F2F2F"/>
			<stop  offset="0.345" style="stop-color:#282828"/>
			<stop  offset="1" style="stop-color:#262626"/>
		</linearGradient>
		
			<line style="fill:none;stroke:url(#SVGID_00000078754526070862088250000009067211698513806983_);stroke-width:2.25;stroke-linecap:round;stroke-linejoin:round;" x1="781.1" y1="470.4" x2="777.5" y2="447.3"/>
		
			<linearGradient id="SVGID_00000038384602728548338450000007837897082189842081_" gradientUnits="userSpaceOnUse" x1="782.2542" y1="112.9542" x2="869.2163" y2="199.9162" gradientTransform="matrix(1 0 0 -1 0 602)">
			<stop  offset="0" style="stop-color:#323232"/>
			<stop  offset="5.907977e-02" style="stop-color:#2F2F2F"/>
			<stop  offset="0.345" style="stop-color:#282828"/>
			<stop  offset="1" style="stop-color:#262626"/>
		</linearGradient>
		
			<path style="fill:none;stroke:url(#SVGID_00000038384602728548338450000007837897082189842081_);stroke-width:2.25;stroke-linecap:round;stroke-linejoin:round;" d="
			M802.7,432.6c0,0.9,0.1,2.3,0.6,4c2.9,11.1,16.3,16.5,24.7,19.9c4.1,1.6,10.1,3.7,17.9,4.9"/>
	</g>
</g>
<g>
	<g>
		<g>
			<path class="st27" d="M506.3,113h-59c-4.4,0-8-3.6-8-8s3.6-8,8-8h59c4.4,0,8,3.6,8,8S510.8,113,506.3,113z"/>
		</g>
		<g>
			<g>
				
					<radialGradient id="SVGID_00000047778455677349879990000009957334953252148096_" cx="77.0415" cy="58.2176" r="1032.6846" gradientTransform="matrix(1 0 0 -1 0 602)" gradientUnits="userSpaceOnUse">
					<stop  offset="0" style="stop-color:#505050"/>
					<stop  offset="0.6535" style="stop-color:#262626"/>
				</radialGradient>
				<path style="fill:url(#SVGID_00000047778455677349879990000009957334953252148096_);" d="M514.3,308.3H105.7
					c-6.6,0-12-5.4-12-12V91.4c0-6.6,5.4-12,12-12h414c6.6,0,12,5.4,12,12v183.9c4.4-2.3,9.4-3.6,14.7-3.6h5.3V91.4
					c0-17.7-14.3-32-32-32h-414c-17.7,0-32,14.3-32,32v204.9c0,17.7,14.3,32,32,32h408.7v-20H514.3z"/>
			</g>
			<g>
				<path class="st27" d="M514.3,308.3H105.7c-6.6,0-12-5.4-12-12V91.4c0-6.6,5.4-12,12-12h414c6.6,0,12,5.4,12,12v183.9
					c4.4-2.3,9.4-3.6,14.7-3.6h5.3V91.4c0-17.7-14.3-32-32-32h-414c-17.7,0-32,14.3-32,32v204.9c0,17.7,14.3,32,32,32h408.7v-20
					H514.3z"/>
			</g>
		</g>
		<g>
			<path class="st27" d="M213,291.2h-93.7c-4.4,0-8-3.6-8-8s3.6-8,8-8H213c4.4,0,8,3.6,8,8S217.4,291.2,213,291.2z"/>
		</g>
		<g>
			<path class="st27" d="M506.3,164.6h-24c-4.4,0-8-3.6-8-8s3.6-8,8-8h24c4.4,0,8,3.6,8,8S510.8,164.6,506.3,164.6z"/>
		</g>
		<g>
			<path class="st27" d="M506.3,190.5h-24c-4.4,0-8-3.6-8-8s3.6-8,8-8h24c4.4,0,8,3.6,8,8S510.8,190.5,506.3,190.5z"/>
		</g>
		<g>
			<path class="st27" d="M506.3,138.8h-24c-4.4,0-8-3.6-8-8s3.6-8,8-8h24c4.4,0,8,3.6,8,8C514.3,135.2,510.8,138.8,506.3,138.8z"/>
		</g>
		<g>
			<path class="st27" d="M960.3,291.7c6.6,0,12,5.4,12,12v204.9c0,6.6-5.4,12-12,12h-414c-6.6,0-12-5.4-12-12V303.7
				c0-6.6,5.4-12,12-12H960.3 M960.3,271.7h-414c-17.7,0-32,14.3-32,32v204.9c0,17.7,14.3,32,32,32h414c17.7,0,32-14.3,32-32V303.7
				C992.3,286,978,271.7,960.3,271.7L960.3,271.7z"/>
		</g>
		<g>
			<path class="st27" d="M944.4,330.4h-77.8c-5.8,0-10.5-4.7-10.5-10.5c0-5.8,4.7-10.5,10.5-10.5h77.8c5.8,0,10.5,4.7,10.5,10.5
				C954.9,325.7,950.3,330.4,944.4,330.4z"/>
		</g>
		<g>
			<path class="st27" d="M944.4,398.4h-31.6c-5.8,0-10.5-4.7-10.5-10.5c0-5.8,4.7-10.5,10.5-10.5h31.6c5.8,0,10.5,4.7,10.5,10.5
				C954.9,393.7,950.3,398.4,944.4,398.4z"/>
		</g>
		<g>
			<path class="st27" d="M944.4,432.6h-31.6c-5.8,0-10.5-4.7-10.5-10.5c0-5.8,4.7-10.5,10.5-10.5h31.6c5.8,0,10.5,4.7,10.5,10.5
				C954.9,427.9,950.3,432.6,944.4,432.6z"/>
		</g>
		<g>
			<path class="st27" d="M944.4,364.4h-31.6c-5.8,0-10.5-4.7-10.5-10.5c0-5.8,4.7-10.5,10.5-10.5h31.6c5.8,0,10.5,4.7,10.5,10.5
				C954.9,359.7,950.3,364.4,944.4,364.4z"/>
		</g>
		<g>
			<path class="st27" d="M691.2,503.5H562.9c-6,0-11-4.9-11-11s4.9-11,11-11h128.3c6,0,11,4.9,11,11S697.2,503.5,691.2,503.5z"/>
		</g>
	</g>
	<g>
		<g>
			
				<radialGradient id="SVGID_00000071523549140661186800000010906966487711580558_" cx="30" cy="573" r="1041.7269" gradientUnits="userSpaceOnUse">
				<stop  offset="0" style="stop-color:#505050"/>
				<stop  offset="0.6535" style="stop-color:#262626"/>
			</radialGradient>
			<path style="fill:url(#SVGID_00000071523549140661186800000010906966487711580558_);" d="M506.3,113h-59c-4.4,0-8-3.6-8-8
				s3.6-8,8-8h59c4.4,0,8,3.6,8,8S510.8,113,506.3,113z"/>
			
				<radialGradient id="SVGID_00000113345780591409456670000010603081186457574570_" cx="30" cy="573" r="1041.7269" gradientUnits="userSpaceOnUse">
				<stop  offset="0" style="stop-color:#505050"/>
				<stop  offset="0.6535" style="stop-color:#262626"/>
			</radialGradient>
			<path style="fill:url(#SVGID_00000113345780591409456670000010603081186457574570_);" d="M506.3,113h-59c-4.4,0-8-3.6-8-8
				s3.6-8,8-8h59c4.4,0,8,3.6,8,8S510.8,113,506.3,113z"/>
		</g>
		<g>
			<g>
				
					<radialGradient id="SVGID_00000065764788980525280450000002008074379625160374_" cx="30" cy="573" r="1041.7269" gradientUnits="userSpaceOnUse">
					<stop  offset="0" style="stop-color:#505050"/>
					<stop  offset="0.6535" style="stop-color:#262626"/>
				</radialGradient>
				<path style="fill:url(#SVGID_00000065764788980525280450000002008074379625160374_);" d="M514.3,308.3H105.7
					c-6.6,0-12-5.4-12-12V91.4c0-6.6,5.4-12,12-12h414c6.6,0,12,5.4,12,12v183.9c4.4-2.3,9.4-3.6,14.7-3.6h5.3V91.4
					c0-17.7-14.3-32-32-32h-414c-17.7,0-32,14.3-32,32v204.9c0,17.7,14.3,32,32,32h408.7v-20H514.3z"/>
			</g>
			<g>
				
					<radialGradient id="SVGID_00000114039880155715535960000000195109790744530844_" cx="30" cy="573" r="1041.7269" gradientUnits="userSpaceOnUse">
					<stop  offset="0" style="stop-color:#505050"/>
					<stop  offset="0.6535" style="stop-color:#262626"/>
				</radialGradient>
				<path style="fill:url(#SVGID_00000114039880155715535960000000195109790744530844_);" d="M514.3,308.3H105.7
					c-6.6,0-12-5.4-12-12V91.4c0-6.6,5.4-12,12-12h414c6.6,0,12,5.4,12,12v183.9c4.4-2.3,9.4-3.6,14.7-3.6h5.3V91.4
					c0-17.7-14.3-32-32-32h-414c-17.7,0-32,14.3-32,32v204.9c0,17.7,14.3,32,32,32h408.7v-20H514.3z"/>
			</g>
			<g>
				
					<radialGradient id="SVGID_00000132785573046385336260000004435710491837608321_" cx="30" cy="573" r="1041.7269" gradientUnits="userSpaceOnUse">
					<stop  offset="0" style="stop-color:#505050"/>
					<stop  offset="0.6535" style="stop-color:#262626"/>
				</radialGradient>
				<path style="fill:url(#SVGID_00000132785573046385336260000004435710491837608321_);" d="M514.3,308.3H105.7
					c-6.6,0-12-5.4-12-12V91.4c0-6.6,5.4-12,12-12h414c6.6,0,12,5.4,12,12v183.9c4.4-2.3,9.4-3.6,14.7-3.6h5.3V91.4
					c0-17.7-14.3-32-32-32h-414c-17.7,0-32,14.3-32,32v204.9c0,17.7,14.3,32,32,32h408.7v-20H514.3z"/>
			</g>
		</g>
		<g>
			
				<radialGradient id="SVGID_00000170255360368339692690000014875492740509560479_" cx="30" cy="573" r="1041.7269" gradientUnits="userSpaceOnUse">
				<stop  offset="0" style="stop-color:#505050"/>
				<stop  offset="0.6535" style="stop-color:#262626"/>
			</radialGradient>
			<path style="fill:url(#SVGID_00000170255360368339692690000014875492740509560479_);" d="M213,291.2h-93.7c-4.4,0-8-3.6-8-8
				s3.6-8,8-8H213c4.4,0,8,3.6,8,8S217.4,291.2,213,291.2z"/>
			
				<radialGradient id="SVGID_00000011710706282250972010000011153828950471406760_" cx="30" cy="573" r="1041.7269" gradientUnits="userSpaceOnUse">
				<stop  offset="0" style="stop-color:#505050"/>
				<stop  offset="0.6535" style="stop-color:#262626"/>
			</radialGradient>
			<path style="fill:url(#SVGID_00000011710706282250972010000011153828950471406760_);" d="M213,291.2h-93.7c-4.4,0-8-3.6-8-8
				s3.6-8,8-8H213c4.4,0,8,3.6,8,8S217.4,291.2,213,291.2z"/>
		</g>
		<g>
			
				<radialGradient id="SVGID_00000121960801823765543440000012535100849916504750_" cx="30" cy="573" r="1041.7269" gradientUnits="userSpaceOnUse">
				<stop  offset="0" style="stop-color:#505050"/>
				<stop  offset="0.6535" style="stop-color:#262626"/>
			</radialGradient>
			<path style="fill:url(#SVGID_00000121960801823765543440000012535100849916504750_);" d="M506.3,164.6h-24c-4.4,0-8-3.6-8-8
				s3.6-8,8-8h24c4.4,0,8,3.6,8,8S510.8,164.6,506.3,164.6z"/>
			
				<radialGradient id="SVGID_00000084512412925367132200000004903484141637559224_" cx="30" cy="573" r="1041.7269" gradientUnits="userSpaceOnUse">
				<stop  offset="0" style="stop-color:#505050"/>
				<stop  offset="0.6535" style="stop-color:#262626"/>
			</radialGradient>
			<path style="fill:url(#SVGID_00000084512412925367132200000004903484141637559224_);" d="M506.3,164.6h-24c-4.4,0-8-3.6-8-8
				s3.6-8,8-8h24c4.4,0,8,3.6,8,8S510.8,164.6,506.3,164.6z"/>
		</g>
		<g>
			
				<radialGradient id="SVGID_00000080912710278021036330000015958807793223019416_" cx="30" cy="573" r="1041.7269" gradientUnits="userSpaceOnUse">
				<stop  offset="0" style="stop-color:#505050"/>
				<stop  offset="0.6535" style="stop-color:#262626"/>
			</radialGradient>
			<path style="fill:url(#SVGID_00000080912710278021036330000015958807793223019416_);" d="M506.3,190.5h-24c-4.4,0-8-3.6-8-8
				s3.6-8,8-8h24c4.4,0,8,3.6,8,8S510.8,190.5,506.3,190.5z"/>
			
				<radialGradient id="SVGID_00000138554608864828706260000014887336570692610483_" cx="30" cy="573" r="1041.7269" gradientUnits="userSpaceOnUse">
				<stop  offset="0" style="stop-color:#505050"/>
				<stop  offset="0.6535" style="stop-color:#262626"/>
			</radialGradient>
			<path style="fill:url(#SVGID_00000138554608864828706260000014887336570692610483_);" d="M506.3,190.5h-24c-4.4,0-8-3.6-8-8
				s3.6-8,8-8h24c4.4,0,8,3.6,8,8S510.8,190.5,506.3,190.5z"/>
		</g>
		<g>
			
				<radialGradient id="SVGID_00000044171077559493321110000008144905658327488434_" cx="30" cy="573" r="1041.7269" gradientUnits="userSpaceOnUse">
				<stop  offset="0" style="stop-color:#505050"/>
				<stop  offset="0.6535" style="stop-color:#262626"/>
			</radialGradient>
			<path style="fill:url(#SVGID_00000044171077559493321110000008144905658327488434_);" d="M506.3,138.8h-24c-4.4,0-8-3.6-8-8
				s3.6-8,8-8h24c4.4,0,8,3.6,8,8C514.3,135.2,510.8,138.8,506.3,138.8z"/>
			
				<radialGradient id="SVGID_00000139262154350062320440000006574545308919867327_" cx="30" cy="573" r="1041.7269" gradientUnits="userSpaceOnUse">
				<stop  offset="0" style="stop-color:#505050"/>
				<stop  offset="0.6535" style="stop-color:#262626"/>
			</radialGradient>
			<path style="fill:url(#SVGID_00000139262154350062320440000006574545308919867327_);" d="M506.3,138.8h-24c-4.4,0-8-3.6-8-8
				s3.6-8,8-8h24c4.4,0,8,3.6,8,8C514.3,135.2,510.8,138.8,506.3,138.8z"/>
		</g>
		<g>
			
				<radialGradient id="SVGID_00000107586293225052409820000004656182028911695765_" cx="30" cy="573" r="1041.7269" gradientUnits="userSpaceOnUse">
				<stop  offset="0" style="stop-color:#505050"/>
				<stop  offset="0.6535" style="stop-color:#262626"/>
			</radialGradient>
			<path style="fill:url(#SVGID_00000107586293225052409820000004656182028911695765_);" d="M960.3,291.7c6.6,0,12,5.4,12,12v204.9
				c0,6.6-5.4,12-12,12h-414c-6.6,0-12-5.4-12-12V303.7c0-6.6,5.4-12,12-12H960.3 M960.3,271.7h-414c-17.7,0-32,14.3-32,32v204.9
				c0,17.7,14.3,32,32,32h414c17.7,0,32-14.3,32-32V303.7C992.3,286,978,271.7,960.3,271.7L960.3,271.7z"/>
			
				<radialGradient id="SVGID_00000053519724660208127080000015531558445731912066_" cx="30" cy="573" r="1041.7269" gradientUnits="userSpaceOnUse">
				<stop  offset="0" style="stop-color:#505050"/>
				<stop  offset="0.6535" style="stop-color:#262626"/>
			</radialGradient>
			<path style="fill:url(#SVGID_00000053519724660208127080000015531558445731912066_);" d="M960.3,291.7c6.6,0,12,5.4,12,12v204.9
				c0,6.6-5.4,12-12,12h-414c-6.6,0-12-5.4-12-12V303.7c0-6.6,5.4-12,12-12H960.3 M960.3,271.7h-414c-17.7,0-32,14.3-32,32v204.9
				c0,17.7,14.3,32,32,32h414c17.7,0,32-14.3,32-32V303.7C992.3,286,978,271.7,960.3,271.7L960.3,271.7z"/>
		</g>
		<g>
			
				<radialGradient id="SVGID_00000137125819134965288400000006739093488154058679_" cx="30" cy="573" r="1041.7269" gradientUnits="userSpaceOnUse">
				<stop  offset="0" style="stop-color:#505050"/>
				<stop  offset="0.6535" style="stop-color:#262626"/>
			</radialGradient>
			<path style="fill:url(#SVGID_00000137125819134965288400000006739093488154058679_);" d="M944.4,330.4h-77.8
				c-5.8,0-10.5-4.7-10.5-10.5c0-5.8,4.7-10.5,10.5-10.5h77.8c5.8,0,10.5,4.7,10.5,10.5C954.9,325.7,950.3,330.4,944.4,330.4z"/>
			
				<radialGradient id="SVGID_00000132075515412064794060000017348709248112689054_" cx="30" cy="573" r="1041.7269" gradientUnits="userSpaceOnUse">
				<stop  offset="0" style="stop-color:#505050"/>
				<stop  offset="0.6535" style="stop-color:#262626"/>
			</radialGradient>
			<path style="fill:url(#SVGID_00000132075515412064794060000017348709248112689054_);" d="M944.4,330.4h-77.8
				c-5.8,0-10.5-4.7-10.5-10.5c0-5.8,4.7-10.5,10.5-10.5h77.8c5.8,0,10.5,4.7,10.5,10.5C954.9,325.7,950.3,330.4,944.4,330.4z"/>
		</g>
		<g>
			
				<radialGradient id="SVGID_00000039822010531574448440000008180949443944364959_" cx="30" cy="573" r="1041.7269" gradientUnits="userSpaceOnUse">
				<stop  offset="0" style="stop-color:#505050"/>
				<stop  offset="0.6535" style="stop-color:#262626"/>
			</radialGradient>
			<path style="fill:url(#SVGID_00000039822010531574448440000008180949443944364959_);" d="M944.4,398.4h-31.6
				c-5.8,0-10.5-4.7-10.5-10.5c0-5.8,4.7-10.5,10.5-10.5h31.6c5.8,0,10.5,4.7,10.5,10.5C954.9,393.7,950.3,398.4,944.4,398.4z"/>
			
				<radialGradient id="SVGID_00000170276225893812974300000007891370081956318899_" cx="30" cy="573" r="1041.7269" gradientUnits="userSpaceOnUse">
				<stop  offset="0" style="stop-color:#505050"/>
				<stop  offset="0.6535" style="stop-color:#262626"/>
			</radialGradient>
			<path style="fill:url(#SVGID_00000170276225893812974300000007891370081956318899_);" d="M944.4,398.4h-31.6
				c-5.8,0-10.5-4.7-10.5-10.5c0-5.8,4.7-10.5,10.5-10.5h31.6c5.8,0,10.5,4.7,10.5,10.5C954.9,393.7,950.3,398.4,944.4,398.4z"/>
		</g>
		<g>
			
				<radialGradient id="SVGID_00000050649881534625503650000013425059225260253858_" cx="30" cy="573" r="1041.7269" gradientUnits="userSpaceOnUse">
				<stop  offset="0" style="stop-color:#505050"/>
				<stop  offset="0.6535" style="stop-color:#262626"/>
			</radialGradient>
			<path style="fill:url(#SVGID_00000050649881534625503650000013425059225260253858_);" d="M944.4,432.6h-31.6
				c-5.8,0-10.5-4.7-10.5-10.5c0-5.8,4.7-10.5,10.5-10.5h31.6c5.8,0,10.5,4.7,10.5,10.5C954.9,427.9,950.3,432.6,944.4,432.6z"/>
			
				<radialGradient id="SVGID_00000075138255931064413410000010028716314119647400_" cx="30" cy="573" r="1041.7269" gradientUnits="userSpaceOnUse">
				<stop  offset="0" style="stop-color:#505050"/>
				<stop  offset="0.6535" style="stop-color:#262626"/>
			</radialGradient>
			<path style="fill:url(#SVGID_00000075138255931064413410000010028716314119647400_);" d="M944.4,432.6h-31.6
				c-5.8,0-10.5-4.7-10.5-10.5c0-5.8,4.7-10.5,10.5-10.5h31.6c5.8,0,10.5,4.7,10.5,10.5C954.9,427.9,950.3,432.6,944.4,432.6z"/>
		</g>
		<g>
			
				<radialGradient id="SVGID_00000083810114370093510230000011650190976385137546_" cx="30" cy="573" r="1041.7269" gradientUnits="userSpaceOnUse">
				<stop  offset="0" style="stop-color:#505050"/>
				<stop  offset="0.6535" style="stop-color:#262626"/>
			</radialGradient>
			<path style="fill:url(#SVGID_00000083810114370093510230000011650190976385137546_);" d="M944.4,364.4h-31.6
				c-5.8,0-10.5-4.7-10.5-10.5c0-5.8,4.7-10.5,10.5-10.5h31.6c5.8,0,10.5,4.7,10.5,10.5C954.9,359.7,950.3,364.4,944.4,364.4z"/>
			
				<radialGradient id="SVGID_00000103977209550711911900000009459344297425856421_" cx="30" cy="573" r="1041.7269" gradientUnits="userSpaceOnUse">
				<stop  offset="0" style="stop-color:#505050"/>
				<stop  offset="0.6535" style="stop-color:#262626"/>
			</radialGradient>
			<path style="fill:url(#SVGID_00000103977209550711911900000009459344297425856421_);" d="M944.4,364.4h-31.6
				c-5.8,0-10.5-4.7-10.5-10.5c0-5.8,4.7-10.5,10.5-10.5h31.6c5.8,0,10.5,4.7,10.5,10.5C954.9,359.7,950.3,364.4,944.4,364.4z"/>
		</g>
		<g>
			
				<radialGradient id="SVGID_00000081605332835684748120000002084610372698737557_" cx="30" cy="573" r="1041.7269" gradientUnits="userSpaceOnUse">
				<stop  offset="0" style="stop-color:#505050"/>
				<stop  offset="0.6535" style="stop-color:#262626"/>
			</radialGradient>
			<path style="fill:url(#SVGID_00000081605332835684748120000002084610372698737557_);" d="M691.2,503.5H562.9c-6,0-11-4.9-11-11
				s4.9-11,11-11h128.3c6,0,11,4.9,11,11S697.2,503.5,691.2,503.5z"/>
			
				<radialGradient id="SVGID_00000155143475432011438050000009369482207514207413_" cx="30" cy="573" r="1041.7269" gradientUnits="userSpaceOnUse">
				<stop  offset="0" style="stop-color:#505050"/>
				<stop  offset="0.6535" style="stop-color:#262626"/>
			</radialGradient>
			<path style="fill:url(#SVGID_00000155143475432011438050000009369482207514207413_);" d="M691.2,503.5H562.9c-6,0-11-4.9-11-11
				s4.9-11,11-11h128.3c6,0,11,4.9,11,11S697.2,503.5,691.2,503.5z"/>
		</g>
	</g>
</g>
</svg>
