<?xml version="1.0" encoding="utf-8"?>
<!-- Generator: Adobe Illustrator 26.5.0, SVG Export Plug-In . SVG Version: 6.00 Build 0)  -->
<svg version="1.1" xmlns="http://www.w3.org/2000/svg" xmlns:xlink="http://www.w3.org/1999/xlink" x="0px" y="0px"
	 viewBox="0 0 1066 600" style="enable-background:new 0 0 1066 600;" xml:space="preserve">
<style type="text/css">
	.st0{fill:url(#SVGID_1_);}
	.st1{fill:#FFFFFF;}
	.st2{fill:url(#Warning_00000089573041944079961140000018314569782264638615_);}
	.st3{fill:url(#Deaf_00000070103983483640800300000009067248837790977676_);}
	.st4{fill:#231F20;}
	.st5{fill:url(#SVGID_00000180352145580494097990000002971923878710705814_);}
	.st6{fill:url(#SVGID_00000013913473967890802370000013167457008123381650_);}
	.st7{fill:url(#SVGID_00000116200287473759281490000015733961023630673834_);}
	.st8{fill:url(#SVGID_00000097488646117308310470000014703084170561519277_);}
	.st9{fill:url(#SVGID_00000097479463963084174230000017114319808004960909_);}
	.st10{fill:url(#SVGID_00000116917655166352866330000001388455794675997825_);}
	.st11{fill:url(#SVGID_00000162341284506878171430000017915629427151749271_);}
	.st12{fill:url(#SVGID_00000048485443350203681470000014341957791913623954_);}
	.st13{fill:url(#SVGID_00000132810588242703745760000013104650540400697997_);}
	.st14{fill:url(#SVGID_00000016796009350679254120000012888559156820241060_);}
	.st15{fill:url(#SVGID_00000030464467572000381080000005799460505486284730_);}
	.st16{fill:url(#SVGID_00000034091053645688999990000007316076272392854674_);}
	.st17{fill:url(#SVGID_00000149383001622778005580000004397106214815060887_);}
	.st18{fill:url(#SVGID_00000033334931479604783410000003133115295340286353_);}
	.st19{fill:url(#SVGID_00000121266319130677516730000014864615105191737234_);}
	.st20{fill:url(#SVGID_00000088102796935051790860000005634859911409668031_);}
	.st21{fill:url(#SVGID_00000080895083566354882870000016221599737765836462_);}
	.st22{fill:url(#SVGID_00000039828026692810798950000017197527517687255477_);}
	.st23{fill:url(#SVGID_00000068669369947214313840000017234795778703661223_);}
	.st24{fill:url(#SVGID_00000147942696290682977130000013570114122161551768_);}
	.st25{fill:url(#SVGID_00000008864492033895947750000010765830531177803945_);}
	.st26{fill:url(#SVGID_00000160902896837617933410000006606141980901287346_);}
	.st27{fill:url(#SVGID_00000113329780470788838180000008119623479559676854_);}
	.st28{fill:url(#SVGID_00000107556310880230483790000016533590990124328076_);}
	.st29{fill:url(#SVGID_00000117652258970099151480000017418059275988605875_);}
	.st30{fill:url(#SVGID_00000070107829005371114170000001077314446852611467_);}
	.st31{fill:url(#SVGID_00000150062493106432929650000015202409926459513273_);}
</style>
<g id="Layer_2">
	<radialGradient id="SVGID_1_" cx="-18.6667" cy="637.3333" r="1280.8921" gradientUnits="userSpaceOnUse">
		<stop  offset="1.275023e-02" style="stop-color:#3CC0C4"/>
		<stop  offset="0.2988" style="stop-color:#4AAFC4"/>
		<stop  offset="0.5917" style="stop-color:#51A3C3"/>
		<stop  offset="0.856" style="stop-color:#559CC3"/>
		<stop  offset="1" style="stop-color:#5699C2"/>
	</radialGradient>
	<rect class="st0" width="1066" height="600"/>
</g>
<g id="Layer_1">
	<g>
		<g>
			<path id="Warning_00000039815193703648001800000014988463183542439814_" class="st1" d="M871.4,494c2.4,0,4.7,1.3,5.9,3.4
				l37.1,63.3c1.3,2.1,1.3,4.8,0,6.9c-1.2,2.1-3.5,3.5-6,3.5h-74.3c-2.5,0-4.7-1.3-6-3.5c-1.2-2.1-1.2-4.8,0-6.9l37.1-63.3
				C866.7,495.3,868.9,494,871.4,494z M871.4,516c-2.3,0-4.1,1.8-4.1,4.1v19.3c0,2.3,1.8,4.1,4.1,4.1c2.3,0,4.1-1.8,4.1-4.1v-19.3
				C875.5,517.8,873.7,516,871.4,516z M876.9,554.5c0-3-2.5-5.5-5.5-5.5s-5.5,2.5-5.5,5.5s2.5,5.5,5.5,5.5S876.9,557.6,876.9,554.5z
				"/>
			<path id="Deaf_00000174579508595337966990000008563747053160557739_" class="st1" d="M1039.9,494.2l-7.6,7.6
				c-2.4,2.4-6.2,2.4-8.6,0c-2.4-2.4-2.4-6.2,0-8.6l7.6-7.6c2.4-2.4,6.2-2.4,8.6,0C1042.2,487.9,1042.2,491.8,1039.9,494.2z
				 M978.9,555.1l-24.4,24.4c-2.4,2.4-6.2,2.4-8.6,0c-2.4-2.4-2.4-6.2,0-8.6l24.4-24.4c2.4-2.4,6.2-2.4,8.6,0
				C981.3,548.8,981.3,552.7,978.9,555.1z M989.9,508.2c-11,0-20,8.3-21.2,18.9c-0.4,3.4-3.4,5.7-6.7,5.4c-3.3-0.4-5.7-3.4-5.4-6.7
				c1.8-16.8,16-29.8,33.3-29.8c18.5,0,33.5,15,33.5,33.5c0,8.8-3.4,16.7-8.9,22.7c-2.3,2.5-3.3,4.7-3.3,6.6v1.1
				c0,11.8-9.5,21.3-21.3,21.3c-3.4,0-6.1-2.7-6.1-6.1c0-3.4,2.7-6.1,6.1-6.1c5,0,9.1-4.1,9.1-9.1v-1.2c0-6.3,3.3-11.3,6.5-14.8
				c3.5-3.8,5.6-8.9,5.6-14.4C1011.2,517.7,1001.6,508.2,989.9,508.2z M989.9,523.4c-3.4,0-6.1,2.7-6.1,6.1c0,2.5-2,4.6-4.6,4.6
				c-2.5,0-4.6-2-4.6-4.6c0-8.4,6.8-15.2,15.2-15.2c8.4,0,15.2,6.8,15.2,15.2c0,2.5-2,4.6-4.6,4.6c-2.5,0-4.6-2-4.6-4.6
				C996,526.1,993.2,523.4,989.9,523.4z"/>
		</g>
		<g>
			
				<radialGradient id="Warning_00000105427877334615586650000002032811882389175174_" cx="810.551" cy="600.2551" r="297.3129" gradientUnits="userSpaceOnUse">
				<stop  offset="0" style="stop-color:#DCDDDE"/>
				<stop  offset="1" style="stop-color:#D4D4D4"/>
			</radialGradient>
			
				<path id="Warning_00000118397444982087855130000010534261327440689085_" style="fill:url(#Warning_00000105427877334615586650000002032811882389175174_);" d="
				M871.4,494c2.4,0,4.7,1.3,5.9,3.4l37.1,63.3c1.3,2.1,1.3,4.8,0,6.9c-1.2,2.1-3.5,3.5-6,3.5h-74.3c-2.5,0-4.7-1.3-6-3.5
				c-1.2-2.1-1.2-4.8,0-6.9l37.1-63.3C866.7,495.3,868.9,494,871.4,494z M871.4,516c-2.3,0-4.1,1.8-4.1,4.1v19.3
				c0,2.3,1.8,4.1,4.1,4.1c2.3,0,4.1-1.8,4.1-4.1v-19.3C875.5,517.8,873.7,516,871.4,516z M876.9,554.5c0-3-2.5-5.5-5.5-5.5
				s-5.5,2.5-5.5,5.5s2.5,5.5,5.5,5.5S876.9,557.6,876.9,554.5z"/>
			
				<radialGradient id="Deaf_00000052072060016591783450000014444307324259702186_" cx="810.551" cy="600.2551" r="297.3129" gradientUnits="userSpaceOnUse">
				<stop  offset="0" style="stop-color:#DCDDDE"/>
				<stop  offset="1" style="stop-color:#D4D4D4"/>
			</radialGradient>
			
				<path id="Deaf_00000134238290654293487660000016389344189669946771_" style="fill:url(#Deaf_00000052072060016591783450000014444307324259702186_);" d="
				M1039.9,494.2l-7.6,7.6c-2.4,2.4-6.2,2.4-8.6,0c-2.4-2.4-2.4-6.2,0-8.6l7.6-7.6c2.4-2.4,6.2-2.4,8.6,0
				C1042.2,487.9,1042.2,491.8,1039.9,494.2z M978.9,555.1l-24.4,24.4c-2.4,2.4-6.2,2.4-8.6,0c-2.4-2.4-2.4-6.2,0-8.6l24.4-24.4
				c2.4-2.4,6.2-2.4,8.6,0C981.3,548.8,981.3,552.7,978.9,555.1z M989.9,508.2c-11,0-20,8.3-21.2,18.9c-0.4,3.4-3.4,5.7-6.7,5.4
				c-3.3-0.4-5.7-3.4-5.4-6.7c1.8-16.8,16-29.8,33.3-29.8c18.5,0,33.5,15,33.5,33.5c0,8.8-3.4,16.7-8.9,22.7
				c-2.3,2.5-3.3,4.7-3.3,6.6v1.1c0,11.8-9.5,21.3-21.3,21.3c-3.4,0-6.1-2.7-6.1-6.1c0-3.4,2.7-6.1,6.1-6.1c5,0,9.1-4.1,9.1-9.1
				v-1.2c0-6.3,3.3-11.3,6.5-14.8c3.5-3.8,5.6-8.9,5.6-14.4C1011.2,517.7,1001.6,508.2,989.9,508.2z M989.9,523.4
				c-3.4,0-6.1,2.7-6.1,6.1c0,2.5-2,4.6-4.6,4.6c-2.5,0-4.6-2-4.6-4.6c0-8.4,6.8-15.2,15.2-15.2c8.4,0,15.2,6.8,15.2,15.2
				c0,2.5-2,4.6-4.6,4.6c-2.5,0-4.6-2-4.6-4.6C996,526.1,993.2,523.4,989.9,523.4z"/>
		</g>
	</g>
	<g>
		<g>
			<g>
				<g>
					<path d="M974.4,210.4c0-31-25.1-56.1-56.1-56.1H912c-26.5,0-48.5,19.3-52.7,44.6c-0.6,3.6-1.9,7.2-4.2,10l-11.7,14.6
						c-1.7,2.2-2.7,4.8-2.7,7.6c0,6.7,5.5,12.2,12.2,12.2h5.6v8.9h17.8c4.9,0,8.9,4,8.9,8.9c0,4.9-4,8.9-8.9,8.9h-17.8
						c0,9.8,8,17.8,17.8,17.8h17.8c0,4.9,4,8.9,8.9,8.9h44.5c4.9,0,8.9-4,8.9-8.9v-29c0-4.7,2-9.2,4.9-12.9
						C969.3,235.9,974.4,222.9,974.4,210.4z M880.8,216.6c-4.9,0-8.9-4-8.9-8.9c0-4.9,4-8.9,8.9-8.9c4.9,0,8.9,4,8.9,8.9
						C889.7,212.6,885.7,216.6,880.8,216.6z"/>
					<path d="M811.8,215c-13.1,10.7-21.5,27-21.5,45.2c0,18.3,8.4,34.6,21.5,45.2c2.1,1.7,5.1,1.4,6.8-0.7c1.7-2.1,1.4-5.1-0.7-6.8
						c-11-8.9-17.9-22.5-17.9-37.7c0-15.2,7-28.8,17.9-37.7c2.1-1.7,2.4-4.8,0.7-6.8C816.9,213.6,813.9,213.3,811.8,215L811.8,215z
						 M824,230c-8.7,7.1-14.3,18-14.3,30.2c0,12.2,5.6,23,14.3,30.2c2.1,1.7,5.1,1.4,6.8-0.7s1.4-5.1-0.7-6.8
						c-6.6-5.3-10.8-13.5-10.8-22.6c0-9.1,4.2-17.3,10.8-22.6c2.1-1.7,2.4-4.8,0.7-6.8C829.2,228.7,826.1,228.3,824,230L824,230z
						 M836.3,245.1c-4.4,3.6-7.2,9-7.2,15.1c0,6.1,2.8,11.5,7.2,15.1c2.1,1.7,5.1,1.4,6.8-0.7c1.7-2.1,1.4-5.1-0.7-6.8
						c-2.2-1.8-3.6-4.5-3.6-7.5c0-3,1.4-5.7,3.6-7.5c2.1-1.7,2.4-4.8,0.7-6.8C841.4,243.7,838.3,243.4,836.3,245.1L836.3,245.1z"/>
				</g>
				<g>
					<path class="st4" d="M974.4,210.4c0-31-25.1-56.1-56.1-56.1H912c-26.5,0-48.5,19.3-52.7,44.6c-0.6,3.6-1.9,7.2-4.2,10
						l-11.7,14.6c-1.7,2.2-2.7,4.8-2.7,7.6c0,6.7,5.5,12.2,12.2,12.2h5.6v8.9h17.8c4.9,0,8.9,4,8.9,8.9c0,4.9-4,8.9-8.9,8.9h-17.8
						c0,9.8,8,17.8,17.8,17.8h17.8c0,4.9,4,8.9,8.9,8.9h44.5c4.9,0,8.9-4,8.9-8.9v-29c0-4.7,2-9.2,4.9-12.9
						C969.3,235.9,974.4,222.9,974.4,210.4z M880.8,216.6c-4.9,0-8.9-4-8.9-8.9c0-4.9,4-8.9,8.9-8.9c4.9,0,8.9,4,8.9,8.9
						C889.7,212.6,885.7,216.6,880.8,216.6z"/>
					<path class="st4" d="M811.8,215c-13.1,10.7-21.5,27-21.5,45.2c0,18.3,8.4,34.6,21.5,45.2c2.1,1.7,5.1,1.4,6.8-0.7
						c1.7-2.1,1.4-5.1-0.7-6.8c-11-8.9-17.9-22.5-17.9-37.7c0-15.2,7-28.8,17.9-37.7c2.1-1.7,2.4-4.8,0.7-6.8
						C816.9,213.6,813.9,213.3,811.8,215L811.8,215z M824,230c-8.7,7.1-14.3,18-14.3,30.2c0,12.2,5.6,23,14.3,30.2
						c2.1,1.7,5.1,1.4,6.8-0.7s1.4-5.1-0.7-6.8c-6.6-5.3-10.8-13.5-10.8-22.6c0-9.1,4.2-17.3,10.8-22.6c2.1-1.7,2.4-4.8,0.7-6.8
						C829.2,228.7,826.1,228.3,824,230L824,230z M836.3,245.1c-4.4,3.6-7.2,9-7.2,15.1c0,6.1,2.8,11.5,7.2,15.1
						c2.1,1.7,5.1,1.4,6.8-0.7c1.7-2.1,1.4-5.1-0.7-6.8c-2.2-1.8-3.6-4.5-3.6-7.5c0-3,1.4-5.7,3.6-7.5c2.1-1.7,2.4-4.8,0.7-6.8
						C841.4,243.7,838.3,243.4,836.3,245.1L836.3,245.1z"/>
				</g>
			</g>
			<g id="Player_00000134210143634198973520000006402830882349579668_">
				<g>
					<g>
						<path d="M499.2,343.9c-72.8,0-131.8,59-131.8,131.8c0,12.1,9.8,22,22,22h287.3c12.1,0,22-9.8,22-22
							c0-72.8-59-131.8-131.8-131.8H499.2z"/>
					</g>
					<path d="M533,124.4c-48.3,0-88.2,36.5-94,83.7c4.3-1.7,8.9-2.8,13.8-2.8c12.1,0,21.9,9.9,21.9,22.1v58.9
						c0,12.2-9.8,22.1-21.9,22.1c-20.1,0-36.4-16.5-36.4-36.8v-7.4v-22.1v-22.1c0-65.1,52.2-117.8,116.6-117.8
						S649.6,155,649.6,220.1v22.1v22.1v7.4c0,20.3-16.3,36.8-36.4,36.8c-12.1,0-21.9-9.9-21.9-22.1v-58.9c0-12.2,9.8-22.1,21.9-22.1
						c4.9,0,9.6,1,13.8,2.8C621.2,160.9,581.3,124.4,533,124.4z"/>
					<g>
						<path d="M581.7,286.4v-58.9c0-17.5,14.1-31.7,31.5-31.7c0.5,0,1,0,1.5,0c-10.5-36-43.5-61.8-81.7-61.8s-71.2,25.8-81.7,61.8
							c0.5,0,1,0,1.5,0c17.4,0,31.5,14.2,31.5,31.7v58.9c0,2.8-0.4,5.4-1,8c14.4,8.9,31.5,14.1,49.7,14.1s35.3-5.2,49.7-14.1
							C582,291.8,581.7,289.1,581.7,286.4z"/>
					</g>
				</g>
				<g>
					<g>
						<path class="st4" d="M499.2,343.9c-72.8,0-131.8,59-131.8,131.8c0,12.1,9.8,22,22,22h287.3c12.1,0,22-9.8,22-22
							c0-72.8-59-131.8-131.8-131.8H499.2z"/>
						<path class="st4" d="M566.8,344.9c34.9,0,67.8,13.6,92.5,38.3c24.7,24.7,38.3,57.6,38.3,92.5c0,11.6-9.4,21-21,21H389.4
							c-11.6,0-21-9.4-21-21c0-34.9,13.6-67.8,38.3-92.5c24.7-24.7,57.6-38.3,92.5-38.3H566.8 M566.8,343.9h-67.6
							c-72.8,0-131.8,59-131.8,131.8c0,12.1,9.8,22,22,22h287.3c12.1,0,22-9.8,22-22C698.6,402.9,639.6,343.9,566.8,343.9
							L566.8,343.9z"/>
					</g>
					<path class="st4" d="M533,124.4c-48.3,0-88.2,36.5-94,83.7c4.3-1.7,8.9-2.8,13.8-2.8c12.1,0,21.9,9.9,21.9,22.1v58.9
						c0,12.2-9.8,22.1-21.9,22.1c-20.1,0-36.4-16.5-36.4-36.8v-7.4v-22.1v-22.1c0-65.1,52.2-117.8,116.6-117.8
						S649.6,155,649.6,220.1v22.1v22.1v7.4c0,20.3-16.3,36.8-36.4,36.8c-12.1,0-21.9-9.9-21.9-22.1v-58.9c0-12.2,9.8-22.1,21.9-22.1
						c4.9,0,9.6,1,13.8,2.8C621.2,160.9,581.3,124.4,533,124.4z"/>
					<g>
						<path class="st4" d="M581.7,286.4v-58.9c0-17.5,14.1-31.7,31.5-31.7c0.5,0,1,0,1.5,0c-10.5-36-43.5-61.8-81.7-61.8
							s-71.2,25.8-81.7,61.8c0.5,0,1,0,1.5,0c17.4,0,31.5,14.2,31.5,31.7v58.9c0,2.8-0.4,5.4-1,8c14.4,8.9,31.5,14.1,49.7,14.1
							s35.3-5.2,49.7-14.1C582,291.8,581.7,289.1,581.7,286.4z"/>
						<path class="st4" d="M533,135c18.4,0,35.9,5.9,50.6,17.2c14,10.7,24.5,25.8,29.7,42.6c-0.1,0-0.1,0-0.2,0
							c-17.9,0-32.5,14.7-32.5,32.7v58.9c0,2.5,0.3,5.1,0.9,7.5c-14.6,8.9-31.4,13.6-48.6,13.6s-33.9-4.7-48.6-13.6
							c0.6-2.5,0.9-5,0.9-7.5v-58.9c0-18-14.6-32.7-32.5-32.7c-0.1,0-0.1,0-0.2,0c5.2-16.8,15.7-31.9,29.7-42.6
							C497.1,140.9,514.6,135,533,135 M533,134c-38.2,0-71.2,25.8-81.7,61.8c0.5,0,1,0,1.5,0c17.4,0,31.5,14.2,31.5,31.7v58.9
							c0,2.8-0.4,5.4-1,8c14.4,8.9,31.5,14.1,49.7,14.1s35.3-5.2,49.7-14.1c-0.7-2.6-1-5.2-1-8v-58.9c0-17.5,14.1-31.7,31.5-31.7
							c0.5,0,1,0,1.5,0C604.2,159.8,571.2,134,533,134L533,134z"/>
					</g>
				</g>
			</g>
			<g>
				<g>
					<path d="M200.2,178.3h-31.3c-9.5,0-17.1,7.7-17.1,17.1v209.2c0,9.5,7.7,17.1,17.1,17.1h31.3c9.5,0,17.1-7.7,17.1-17.1V195.4
						C217.3,186,209.6,178.3,200.2,178.3z M186.7,404.8c0,0.9-0.5,1.7-1.3,2c-0.8,0.4-1.7,0.2-2.4-0.4l-9.4-8.4h-4.7
						c-2.5,0-4.5-2-4.5-4.5v-4.5c0-2.5,2-4.5,4.5-4.5h4.7l9.4-8.4c0.7-0.6,1.6-0.7,2.4-0.4c0.8,0.4,1.3,1.2,1.3,2V404.8z
						 M204.1,397.6c-0.7,0.6-1.7,0.7-2.4,0l-3.8-3.8l-3.8,3.8c-0.7,0.7-1.7,0.7-2.4,0c-0.6-0.7-0.7-1.7,0-2.4l3.8-3.8l-3.8-3.8
						c-0.7-0.7-0.7-1.7,0-2.4c0.7-0.6,1.7-0.7,2.4,0l3.8,3.8l3.8-3.8c0.7-0.7,1.7-0.7,2.4,0c0.6,0.7,0.7,1.7,0,2.4l-3.8,3.8l3.8,3.8
						C204.8,395.9,204.8,396.9,204.1,397.6z M209.8,244.5c-0.8-6.5-6.3-11.5-13-11.5h-24.5c-6.7,0-12.2,5-13,11.5v-49.1
						c0-5.3,4.3-9.6,9.6-9.6h31.3c5.3,0,9.6,4.3,9.6,9.6V244.5z"/>
					<path d="M199.1,194.1c4.4,3.6,7.3,9.1,7.3,15.3c0,6.2-2.8,11.7-7.3,15.3c-0.7,0.6-1.7,0.5-2.3-0.2s-0.5-1.7,0.2-2.3
						c3.7-3,6.1-7.6,6.1-12.7s-2.4-9.7-6.1-12.7c-0.7-0.6-0.8-1.6-0.2-2.3S198.4,193.6,199.1,194.1L199.1,194.1z M195,199.2
						c3,2.4,4.8,6.1,4.8,10.2c0,4.1-1.9,7.8-4.8,10.2c-0.7,0.6-1.7,0.5-2.3-0.2c-0.6-0.7-0.5-1.7,0.2-2.3c2.2-1.8,3.6-4.6,3.6-7.6
						s-1.4-5.8-3.6-7.6c-0.7-0.6-0.8-1.6-0.2-2.3C193.2,198.7,194.3,198.6,195,199.2L195,199.2z M190.8,204.3c1.5,1.2,2.4,3,2.4,5.1
						s-1,3.9-2.4,5.1c-0.7,0.6-1.7,0.5-2.3-0.2s-0.5-1.7,0.2-2.3c0.7-0.6,1.2-1.5,1.2-2.5c0-1-0.5-1.9-1.2-2.5
						c-0.7-0.6-0.8-1.6-0.2-2.3S190.1,203.7,190.8,204.3L190.8,204.3z M183.2,194.3c0.8,0.4,1.3,1.1,1.3,2v26.2c0,0.9-0.5,1.6-1.3,2
						s-1.7,0.2-2.4-0.4l-9.2-8.2H167c-2.4,0-4.4-2-4.4-4.4v-4.4c0-2.4,2-4.4,4.4-4.4h4.6l9.2-8.2
						C181.5,194.1,182.4,193.9,183.2,194.3z"/>
				</g>
				<g>
					<path class="st4" d="M200.2,178.3h-31.3c-9.5,0-17.1,7.7-17.1,17.1v209.2c0,9.5,7.7,17.1,17.1,17.1h31.3
						c9.5,0,17.1-7.7,17.1-17.1V195.4C217.3,186,209.6,178.3,200.2,178.3z M186.7,404.8c0,0.9-0.5,1.7-1.3,2
						c-0.8,0.4-1.7,0.2-2.4-0.4l-9.4-8.4h-4.7c-2.5,0-4.5-2-4.5-4.5v-4.5c0-2.5,2-4.5,4.5-4.5h4.7l9.4-8.4c0.7-0.6,1.6-0.7,2.4-0.4
						c0.8,0.4,1.3,1.2,1.3,2V404.8z M204.1,397.6c-0.7,0.6-1.7,0.7-2.4,0l-3.8-3.8l-3.8,3.8c-0.7,0.7-1.7,0.7-2.4,0
						c-0.6-0.7-0.7-1.7,0-2.4l3.8-3.8l-3.8-3.8c-0.7-0.7-0.7-1.7,0-2.4c0.7-0.6,1.7-0.7,2.4,0l3.8,3.8l3.8-3.8
						c0.7-0.7,1.7-0.7,2.4,0c0.6,0.7,0.7,1.7,0,2.4l-3.8,3.8l3.8,3.8C204.8,395.9,204.8,396.9,204.1,397.6z M209.8,244.5
						c-0.8-6.5-6.3-11.5-13-11.5h-24.5c-6.7,0-12.2,5-13,11.5v-49.1c0-5.3,4.3-9.6,9.6-9.6h31.3c5.3,0,9.6,4.3,9.6,9.6V244.5z"/>
					<path class="st4" d="M199.1,194.1c4.4,3.6,7.3,9.1,7.3,15.3c0,6.2-2.8,11.7-7.3,15.3c-0.7,0.6-1.7,0.5-2.3-0.2
						s-0.5-1.7,0.2-2.3c3.7-3,6.1-7.6,6.1-12.7s-2.4-9.7-6.1-12.7c-0.7-0.6-0.8-1.6-0.2-2.3S198.4,193.6,199.1,194.1L199.1,194.1z
						 M195,199.2c3,2.4,4.8,6.1,4.8,10.2c0,4.1-1.9,7.8-4.8,10.2c-0.7,0.6-1.7,0.5-2.3-0.2c-0.6-0.7-0.5-1.7,0.2-2.3
						c2.2-1.8,3.6-4.6,3.6-7.6s-1.4-5.8-3.6-7.6c-0.7-0.6-0.8-1.6-0.2-2.3C193.2,198.7,194.3,198.6,195,199.2L195,199.2z
						 M190.8,204.3c1.5,1.2,2.4,3,2.4,5.1s-1,3.9-2.4,5.1c-0.7,0.6-1.7,0.5-2.3-0.2s-0.5-1.7,0.2-2.3c0.7-0.6,1.2-1.5,1.2-2.5
						c0-1-0.5-1.9-1.2-2.5c-0.7-0.6-0.8-1.6-0.2-2.3S190.1,203.7,190.8,204.3L190.8,204.3z M183.2,194.3c0.8,0.4,1.3,1.1,1.3,2v26.2
						c0,0.9-0.5,1.6-1.3,2s-1.7,0.2-2.4-0.4l-9.2-8.2H167c-2.4,0-4.4-2-4.4-4.4v-4.4c0-2.4,2-4.4,4.4-4.4h4.6l9.2-8.2
						C181.5,194.1,182.4,193.9,183.2,194.3z"/>
				</g>
			</g>
		</g>
		<g>
			<g>
				<g>
					
						<radialGradient id="SVGID_00000127027679108816242320000016739924627165465512_" cx="532.5163" cy="498.7245" r="544.1735" fx="531.6018" fy="518.4677" gradientUnits="userSpaceOnUse">
						<stop  offset="0" style="stop-color:#505050"/>
						<stop  offset="0.6535" style="stop-color:#262626"/>
					</radialGradient>
					<path style="fill:url(#SVGID_00000127027679108816242320000016739924627165465512_);" d="M974.4,210.4
						c0-31-25.1-56.1-56.1-56.1H912c-26.5,0-48.5,19.3-52.7,44.6c-0.6,3.6-1.9,7.2-4.2,10l-11.7,14.6c-1.7,2.2-2.7,4.8-2.7,7.6
						c0,6.7,5.5,12.2,12.2,12.2h5.6v8.9h17.8c4.9,0,8.9,4,8.9,8.9c0,4.9-4,8.9-8.9,8.9h-17.8c0,9.8,8,17.8,17.8,17.8h17.8
						c0,4.9,4,8.9,8.9,8.9h44.5c4.9,0,8.9-4,8.9-8.9v-29c0-4.7,2-9.2,4.9-12.9C969.3,235.9,974.4,222.9,974.4,210.4z M880.8,216.6
						c-4.9,0-8.9-4-8.9-8.9c0-4.9,4-8.9,8.9-8.9c4.9,0,8.9,4,8.9,8.9C889.7,212.6,885.7,216.6,880.8,216.6z"/>
					
						<radialGradient id="SVGID_00000010291117847628328910000001364973618419074438_" cx="532.5163" cy="498.7245" r="544.1735" fx="531.6018" fy="518.4677" gradientUnits="userSpaceOnUse">
						<stop  offset="0" style="stop-color:#505050"/>
						<stop  offset="0.6535" style="stop-color:#262626"/>
					</radialGradient>
					<path style="fill:url(#SVGID_00000010291117847628328910000001364973618419074438_);" d="M811.8,215
						c-13.1,10.7-21.5,27-21.5,45.2c0,18.3,8.4,34.6,21.5,45.2c2.1,1.7,5.1,1.4,6.8-0.7c1.7-2.1,1.4-5.1-0.7-6.8
						c-11-8.9-17.9-22.5-17.9-37.7c0-15.2,7-28.8,17.9-37.7c2.1-1.7,2.4-4.8,0.7-6.8C816.9,213.6,813.9,213.3,811.8,215L811.8,215z
						 M824,230c-8.7,7.1-14.3,18-14.3,30.2c0,12.2,5.6,23,14.3,30.2c2.1,1.7,5.1,1.4,6.8-0.7s1.4-5.1-0.7-6.8
						c-6.6-5.3-10.8-13.5-10.8-22.6c0-9.1,4.2-17.3,10.8-22.6c2.1-1.7,2.4-4.8,0.7-6.8C829.2,228.7,826.1,228.3,824,230L824,230z
						 M836.3,245.1c-4.4,3.6-7.2,9-7.2,15.1c0,6.1,2.8,11.5,7.2,15.1c2.1,1.7,5.1,1.4,6.8-0.7c1.7-2.1,1.4-5.1-0.7-6.8
						c-2.2-1.8-3.6-4.5-3.6-7.5c0-3,1.4-5.7,3.6-7.5c2.1-1.7,2.4-4.8,0.7-6.8C841.4,243.7,838.3,243.4,836.3,245.1L836.3,245.1z"/>
				</g>
				<g>
					
						<radialGradient id="SVGID_00000060709862167058192770000006550880910051114637_" cx="532.5163" cy="498.7245" r="544.1735" fx="531.6018" fy="518.4677" gradientUnits="userSpaceOnUse">
						<stop  offset="0" style="stop-color:#505050"/>
						<stop  offset="0.6535" style="stop-color:#262626"/>
					</radialGradient>
					<path style="fill:url(#SVGID_00000060709862167058192770000006550880910051114637_);" d="M974.4,210.4
						c0-31-25.1-56.1-56.1-56.1H912c-26.5,0-48.5,19.3-52.7,44.6c-0.6,3.6-1.9,7.2-4.2,10l-11.7,14.6c-1.7,2.2-2.7,4.8-2.7,7.6
						c0,6.7,5.5,12.2,12.2,12.2h5.6v8.9h17.8c4.9,0,8.9,4,8.9,8.9c0,4.9-4,8.9-8.9,8.9h-17.8c0,9.8,8,17.8,17.8,17.8h17.8
						c0,4.9,4,8.9,8.9,8.9h44.5c4.9,0,8.9-4,8.9-8.9v-29c0-4.7,2-9.2,4.9-12.9C969.3,235.9,974.4,222.9,974.4,210.4z M880.8,216.6
						c-4.9,0-8.9-4-8.9-8.9c0-4.9,4-8.9,8.9-8.9c4.9,0,8.9,4,8.9,8.9C889.7,212.6,885.7,216.6,880.8,216.6z"/>
					
						<radialGradient id="SVGID_00000020392279428432231240000012719617455803578265_" cx="532.5163" cy="498.7245" r="544.1735" fx="531.6018" fy="518.4677" gradientUnits="userSpaceOnUse">
						<stop  offset="0" style="stop-color:#505050"/>
						<stop  offset="0.6535" style="stop-color:#262626"/>
					</radialGradient>
					<path style="fill:url(#SVGID_00000020392279428432231240000012719617455803578265_);" d="M811.8,215
						c-13.1,10.7-21.5,27-21.5,45.2c0,18.3,8.4,34.6,21.5,45.2c2.1,1.7,5.1,1.4,6.8-0.7c1.7-2.1,1.4-5.1-0.7-6.8
						c-11-8.9-17.9-22.5-17.9-37.7c0-15.2,7-28.8,17.9-37.7c2.1-1.7,2.4-4.8,0.7-6.8C816.9,213.6,813.9,213.3,811.8,215L811.8,215z
						 M824,230c-8.7,7.1-14.3,18-14.3,30.2c0,12.2,5.6,23,14.3,30.2c2.1,1.7,5.1,1.4,6.8-0.7s1.4-5.1-0.7-6.8
						c-6.6-5.3-10.8-13.5-10.8-22.6c0-9.1,4.2-17.3,10.8-22.6c2.1-1.7,2.4-4.8,0.7-6.8C829.2,228.7,826.1,228.3,824,230L824,230z
						 M836.3,245.1c-4.4,3.6-7.2,9-7.2,15.1c0,6.1,2.8,11.5,7.2,15.1c2.1,1.7,5.1,1.4,6.8-0.7c1.7-2.1,1.4-5.1-0.7-6.8
						c-2.2-1.8-3.6-4.5-3.6-7.5c0-3,1.4-5.7,3.6-7.5c2.1-1.7,2.4-4.8,0.7-6.8C841.4,243.7,838.3,243.4,836.3,245.1L836.3,245.1z"/>
				</g>
				<g>
					
						<radialGradient id="SVGID_00000116231164387363238350000016944863673917899392_" cx="532.5163" cy="498.7245" r="544.1735" fx="531.6018" fy="518.4677" gradientUnits="userSpaceOnUse">
						<stop  offset="0" style="stop-color:#505050"/>
						<stop  offset="0.6535" style="stop-color:#262626"/>
					</radialGradient>
					<path style="fill:url(#SVGID_00000116231164387363238350000016944863673917899392_);" d="M974.4,210.4
						c0-31-25.1-56.1-56.1-56.1H912c-26.5,0-48.5,19.3-52.7,44.6c-0.6,3.6-1.9,7.2-4.2,10l-11.7,14.6c-1.7,2.2-2.7,4.8-2.7,7.6
						c0,6.7,5.5,12.2,12.2,12.2h5.6v8.9h17.8c4.9,0,8.9,4,8.9,8.9c0,4.9-4,8.9-8.9,8.9h-17.8c0,9.8,8,17.8,17.8,17.8h17.8
						c0,4.9,4,8.9,8.9,8.9h44.5c4.9,0,8.9-4,8.9-8.9v-29c0-4.7,2-9.2,4.9-12.9C969.3,235.9,974.4,222.9,974.4,210.4z M880.8,216.6
						c-4.9,0-8.9-4-8.9-8.9c0-4.9,4-8.9,8.9-8.9c4.9,0,8.9,4,8.9,8.9C889.7,212.6,885.7,216.6,880.8,216.6z"/>
					
						<radialGradient id="SVGID_00000030458083204399109440000004842864171378333881_" cx="532.5163" cy="498.7245" r="544.1735" fx="531.6018" fy="518.4677" gradientUnits="userSpaceOnUse">
						<stop  offset="0" style="stop-color:#505050"/>
						<stop  offset="0.6535" style="stop-color:#262626"/>
					</radialGradient>
					<path style="fill:url(#SVGID_00000030458083204399109440000004842864171378333881_);" d="M811.8,215
						c-13.1,10.7-21.5,27-21.5,45.2c0,18.3,8.4,34.6,21.5,45.2c2.1,1.7,5.1,1.4,6.8-0.7c1.7-2.1,1.4-5.1-0.7-6.8
						c-11-8.9-17.9-22.5-17.9-37.7c0-15.2,7-28.8,17.9-37.7c2.1-1.7,2.4-4.8,0.7-6.8C816.9,213.6,813.9,213.3,811.8,215L811.8,215z
						 M824,230c-8.7,7.1-14.3,18-14.3,30.2c0,12.2,5.6,23,14.3,30.2c2.1,1.7,5.1,1.4,6.8-0.7s1.4-5.1-0.7-6.8
						c-6.6-5.3-10.8-13.5-10.8-22.6c0-9.1,4.2-17.3,10.8-22.6c2.1-1.7,2.4-4.8,0.7-6.8C829.2,228.7,826.1,228.3,824,230L824,230z
						 M836.3,245.1c-4.4,3.6-7.2,9-7.2,15.1c0,6.1,2.8,11.5,7.2,15.1c2.1,1.7,5.1,1.4,6.8-0.7c1.7-2.1,1.4-5.1-0.7-6.8
						c-2.2-1.8-3.6-4.5-3.6-7.5c0-3,1.4-5.7,3.6-7.5c2.1-1.7,2.4-4.8,0.7-6.8C841.4,243.7,838.3,243.4,836.3,245.1L836.3,245.1z"/>
				</g>
			</g>
			<g id="Player_00000089557929362642241940000006891124796904570298_">
				<g>
					<g>
						
							<radialGradient id="SVGID_00000121993944814657331420000004742522702060821674_" cx="532.5163" cy="498.7245" r="544.1735" fx="531.6018" fy="518.4677" gradientUnits="userSpaceOnUse">
							<stop  offset="0" style="stop-color:#505050"/>
							<stop  offset="0.6535" style="stop-color:#262626"/>
						</radialGradient>
						<path style="fill:url(#SVGID_00000121993944814657331420000004742522702060821674_);" d="M499.2,343.9
							c-72.8,0-131.8,59-131.8,131.8c0,12.1,9.8,22,22,22h287.3c12.1,0,22-9.8,22-22c0-72.8-59-131.8-131.8-131.8H499.2z"/>
						
							<radialGradient id="SVGID_00000063621581015192493770000002245848536807065513_" cx="532.5163" cy="498.7245" r="544.1735" fx="531.6018" fy="518.4677" gradientUnits="userSpaceOnUse">
							<stop  offset="0" style="stop-color:#505050"/>
							<stop  offset="0.6535" style="stop-color:#262626"/>
						</radialGradient>
						<path style="fill:url(#SVGID_00000063621581015192493770000002245848536807065513_);" d="M566.8,344.9
							c34.9,0,67.8,13.6,92.5,38.3c24.7,24.7,38.3,57.6,38.3,92.5c0,11.6-9.4,21-21,21H389.4c-11.6,0-21-9.4-21-21
							c0-34.9,13.6-67.8,38.3-92.5c24.7-24.7,57.6-38.3,92.5-38.3H566.8 M566.8,343.9h-67.6c-72.8,0-131.8,59-131.8,131.8
							c0,12.1,9.8,22,22,22h287.3c12.1,0,22-9.8,22-22C698.6,402.9,639.6,343.9,566.8,343.9L566.8,343.9z"/>
					</g>
					
						<radialGradient id="SVGID_00000048499900373483827690000000122516336628156330_" cx="532.5163" cy="498.7245" r="544.1735" fx="531.6018" fy="518.4677" gradientUnits="userSpaceOnUse">
						<stop  offset="0" style="stop-color:#505050"/>
						<stop  offset="0.6535" style="stop-color:#262626"/>
					</radialGradient>
					<path style="fill:url(#SVGID_00000048499900373483827690000000122516336628156330_);" d="M533,124.4c-48.3,0-88.2,36.5-94,83.7
						c4.3-1.7,8.9-2.8,13.8-2.8c12.1,0,21.9,9.9,21.9,22.1v58.9c0,12.2-9.8,22.1-21.9,22.1c-20.1,0-36.4-16.5-36.4-36.8v-7.4v-22.1
						v-22.1c0-65.1,52.2-117.8,116.6-117.8S649.6,155,649.6,220.1v22.1v22.1v7.4c0,20.3-16.3,36.8-36.4,36.8
						c-12.1,0-21.9-9.9-21.9-22.1v-58.9c0-12.2,9.8-22.1,21.9-22.1c4.9,0,9.6,1,13.8,2.8C621.2,160.9,581.3,124.4,533,124.4z"/>
					<g>
						
							<radialGradient id="SVGID_00000079454713121789208310000000765219343284388784_" cx="532.5163" cy="498.7245" r="544.1735" fx="531.6018" fy="518.4677" gradientUnits="userSpaceOnUse">
							<stop  offset="0" style="stop-color:#505050"/>
							<stop  offset="0.6535" style="stop-color:#262626"/>
						</radialGradient>
						<path style="fill:url(#SVGID_00000079454713121789208310000000765219343284388784_);" d="M581.7,286.4v-58.9
							c0-17.5,14.1-31.7,31.5-31.7c0.5,0,1,0,1.5,0c-10.5-36-43.5-61.8-81.7-61.8s-71.2,25.8-81.7,61.8c0.5,0,1,0,1.5,0
							c17.4,0,31.5,14.2,31.5,31.7v58.9c0,2.8-0.4,5.4-1,8c14.4,8.9,31.5,14.1,49.7,14.1s35.3-5.2,49.7-14.1
							C582,291.8,581.7,289.1,581.7,286.4z"/>
						
							<radialGradient id="SVGID_00000099622643047892566610000014727320337654343606_" cx="532.5163" cy="498.7245" r="544.1735" fx="531.6018" fy="518.4677" gradientUnits="userSpaceOnUse">
							<stop  offset="0" style="stop-color:#505050"/>
							<stop  offset="0.6535" style="stop-color:#262626"/>
						</radialGradient>
						<path style="fill:url(#SVGID_00000099622643047892566610000014727320337654343606_);" d="M533,135c18.4,0,35.9,5.9,50.6,17.2
							c14,10.7,24.5,25.8,29.7,42.6c-0.1,0-0.1,0-0.2,0c-17.9,0-32.5,14.7-32.5,32.7v58.9c0,2.5,0.3,5.1,0.9,7.5
							c-14.6,8.9-31.4,13.6-48.6,13.6s-33.9-4.7-48.6-13.6c0.6-2.5,0.9-5,0.9-7.5v-58.9c0-18-14.6-32.7-32.5-32.7
							c-0.1,0-0.1,0-0.2,0c5.2-16.8,15.7-31.9,29.7-42.6C497.1,140.9,514.6,135,533,135 M533,134c-38.2,0-71.2,25.8-81.7,61.8
							c0.5,0,1,0,1.5,0c17.4,0,31.5,14.2,31.5,31.7v58.9c0,2.8-0.4,5.4-1,8c14.4,8.9,31.5,14.1,49.7,14.1s35.3-5.2,49.7-14.1
							c-0.7-2.6-1-5.2-1-8v-58.9c0-17.5,14.1-31.7,31.5-31.7c0.5,0,1,0,1.5,0C604.2,159.8,571.2,134,533,134L533,134z"/>
					</g>
				</g>
				<g>
					<g>
						
							<radialGradient id="SVGID_00000028323652964011731180000014602679787068405946_" cx="532.5163" cy="498.7245" r="544.1735" fx="531.6018" fy="518.4677" gradientUnits="userSpaceOnUse">
							<stop  offset="0" style="stop-color:#505050"/>
							<stop  offset="0.6535" style="stop-color:#262626"/>
						</radialGradient>
						<path style="fill:url(#SVGID_00000028323652964011731180000014602679787068405946_);" d="M499.2,343.9
							c-72.8,0-131.8,59-131.8,131.8c0,12.1,9.8,22,22,22h287.3c12.1,0,22-9.8,22-22c0-72.8-59-131.8-131.8-131.8H499.2z"/>
						
							<radialGradient id="SVGID_00000026140973180033453170000003701417587234913675_" cx="532.5163" cy="498.7245" r="544.1735" fx="531.6018" fy="518.4677" gradientUnits="userSpaceOnUse">
							<stop  offset="0" style="stop-color:#505050"/>
							<stop  offset="0.6535" style="stop-color:#262626"/>
						</radialGradient>
						<path style="fill:url(#SVGID_00000026140973180033453170000003701417587234913675_);" d="M566.8,344.9
							c34.9,0,67.8,13.6,92.5,38.3c24.7,24.7,38.3,57.6,38.3,92.5c0,11.6-9.4,21-21,21H389.4c-11.6,0-21-9.4-21-21
							c0-34.9,13.6-67.8,38.3-92.5c24.7-24.7,57.6-38.3,92.5-38.3H566.8 M566.8,343.9h-67.6c-72.8,0-131.8,59-131.8,131.8
							c0,12.1,9.8,22,22,22h287.3c12.1,0,22-9.8,22-22C698.6,402.9,639.6,343.9,566.8,343.9L566.8,343.9z"/>
					</g>
					
						<radialGradient id="SVGID_00000001624351881376767130000011619268729385574828_" cx="532.5163" cy="498.7245" r="544.1735" fx="531.6018" fy="518.4677" gradientUnits="userSpaceOnUse">
						<stop  offset="0" style="stop-color:#505050"/>
						<stop  offset="0.6535" style="stop-color:#262626"/>
					</radialGradient>
					<path style="fill:url(#SVGID_00000001624351881376767130000011619268729385574828_);" d="M533,124.4c-48.3,0-88.2,36.5-94,83.7
						c4.3-1.7,8.9-2.8,13.8-2.8c12.1,0,21.9,9.9,21.9,22.1v58.9c0,12.2-9.8,22.1-21.9,22.1c-20.1,0-36.4-16.5-36.4-36.8v-7.4v-22.1
						v-22.1c0-65.1,52.2-117.8,116.6-117.8S649.6,155,649.6,220.1v22.1v22.1v7.4c0,20.3-16.3,36.8-36.4,36.8
						c-12.1,0-21.9-9.9-21.9-22.1v-58.9c0-12.2,9.8-22.1,21.9-22.1c4.9,0,9.6,1,13.8,2.8C621.2,160.9,581.3,124.4,533,124.4z"/>
					<g>
						
							<radialGradient id="SVGID_00000032650101707066202570000009910246722809366949_" cx="532.5163" cy="498.7245" r="544.1735" fx="531.6018" fy="518.4677" gradientUnits="userSpaceOnUse">
							<stop  offset="0" style="stop-color:#505050"/>
							<stop  offset="0.6535" style="stop-color:#262626"/>
						</radialGradient>
						<path style="fill:url(#SVGID_00000032650101707066202570000009910246722809366949_);" d="M581.7,286.4v-58.9
							c0-17.5,14.1-31.7,31.5-31.7c0.5,0,1,0,1.5,0c-10.5-36-43.5-61.8-81.7-61.8s-71.2,25.8-81.7,61.8c0.5,0,1,0,1.5,0
							c17.4,0,31.5,14.2,31.5,31.7v58.9c0,2.8-0.4,5.4-1,8c14.4,8.9,31.5,14.1,49.7,14.1s35.3-5.2,49.7-14.1
							C582,291.8,581.7,289.1,581.7,286.4z"/>
						
							<radialGradient id="SVGID_00000182489021084795502360000000563623214839650962_" cx="532.5163" cy="498.7245" r="544.1735" fx="531.6018" fy="518.4677" gradientUnits="userSpaceOnUse">
							<stop  offset="0" style="stop-color:#505050"/>
							<stop  offset="0.6535" style="stop-color:#262626"/>
						</radialGradient>
						<path style="fill:url(#SVGID_00000182489021084795502360000000563623214839650962_);" d="M533,135c18.4,0,35.9,5.9,50.6,17.2
							c14,10.7,24.5,25.8,29.7,42.6c-0.1,0-0.1,0-0.2,0c-17.9,0-32.5,14.7-32.5,32.7v58.9c0,2.5,0.3,5.1,0.9,7.5
							c-14.6,8.9-31.4,13.6-48.6,13.6s-33.9-4.7-48.6-13.6c0.6-2.5,0.9-5,0.9-7.5v-58.9c0-18-14.6-32.7-32.5-32.7
							c-0.1,0-0.1,0-0.2,0c5.2-16.8,15.7-31.9,29.7-42.6C497.1,140.9,514.6,135,533,135 M533,134c-38.2,0-71.2,25.8-81.7,61.8
							c0.5,0,1,0,1.5,0c17.4,0,31.5,14.2,31.5,31.7v58.9c0,2.8-0.4,5.4-1,8c14.4,8.9,31.5,14.1,49.7,14.1s35.3-5.2,49.7-14.1
							c-0.7-2.6-1-5.2-1-8v-58.9c0-17.5,14.1-31.7,31.5-31.7c0.5,0,1,0,1.5,0C604.2,159.8,571.2,134,533,134L533,134z"/>
					</g>
				</g>
				<g>
					<g>
						
							<radialGradient id="SVGID_00000154425040640362579840000013681188721709293703_" cx="532.5163" cy="498.7245" r="544.1735" fx="531.6018" fy="518.4677" gradientUnits="userSpaceOnUse">
							<stop  offset="0" style="stop-color:#505050"/>
							<stop  offset="0.6535" style="stop-color:#262626"/>
						</radialGradient>
						<path style="fill:url(#SVGID_00000154425040640362579840000013681188721709293703_);" d="M499.2,343.9
							c-72.8,0-131.8,59-131.8,131.8c0,12.1,9.8,22,22,22h287.3c12.1,0,22-9.8,22-22c0-72.8-59-131.8-131.8-131.8H499.2z"/>
						
							<radialGradient id="SVGID_00000096029120322284295890000011306255595219796892_" cx="532.5163" cy="498.7245" r="544.1735" fx="531.6018" fy="518.4677" gradientUnits="userSpaceOnUse">
							<stop  offset="0" style="stop-color:#505050"/>
							<stop  offset="0.6535" style="stop-color:#262626"/>
						</radialGradient>
						<path style="fill:url(#SVGID_00000096029120322284295890000011306255595219796892_);" d="M566.8,344.9
							c34.9,0,67.8,13.6,92.5,38.3c24.7,24.7,38.3,57.6,38.3,92.5c0,11.6-9.4,21-21,21H389.4c-11.6,0-21-9.4-21-21
							c0-34.9,13.6-67.8,38.3-92.5c24.7-24.7,57.6-38.3,92.5-38.3H566.8 M566.8,343.9h-67.6c-72.8,0-131.8,59-131.8,131.8
							c0,12.1,9.8,22,22,22h287.3c12.1,0,22-9.8,22-22C698.6,402.9,639.6,343.9,566.8,343.9L566.8,343.9z"/>
					</g>
					
						<radialGradient id="SVGID_00000083085519154476008710000018061686270672396162_" cx="532.5163" cy="498.7245" r="544.1735" fx="531.6018" fy="518.4677" gradientUnits="userSpaceOnUse">
						<stop  offset="0" style="stop-color:#505050"/>
						<stop  offset="0.6535" style="stop-color:#262626"/>
					</radialGradient>
					<path style="fill:url(#SVGID_00000083085519154476008710000018061686270672396162_);" d="M533,124.4c-48.3,0-88.2,36.5-94,83.7
						c4.3-1.7,8.9-2.8,13.8-2.8c12.1,0,21.9,9.9,21.9,22.1v58.9c0,12.2-9.8,22.1-21.9,22.1c-20.1,0-36.4-16.5-36.4-36.8v-7.4v-22.1
						v-22.1c0-65.1,52.2-117.8,116.6-117.8S649.6,155,649.6,220.1v22.1v22.1v7.4c0,20.3-16.3,36.8-36.4,36.8
						c-12.1,0-21.9-9.9-21.9-22.1v-58.9c0-12.2,9.8-22.1,21.9-22.1c4.9,0,9.6,1,13.8,2.8C621.2,160.9,581.3,124.4,533,124.4z"/>
					<g>
						
							<radialGradient id="SVGID_00000126311540116070664860000004560411454096444550_" cx="532.5163" cy="498.7245" r="544.1735" fx="531.6018" fy="518.4677" gradientUnits="userSpaceOnUse">
							<stop  offset="0" style="stop-color:#505050"/>
							<stop  offset="0.6535" style="stop-color:#262626"/>
						</radialGradient>
						<path style="fill:url(#SVGID_00000126311540116070664860000004560411454096444550_);" d="M581.7,286.4v-58.9
							c0-17.5,14.1-31.7,31.5-31.7c0.5,0,1,0,1.5,0c-10.5-36-43.5-61.8-81.7-61.8s-71.2,25.8-81.7,61.8c0.5,0,1,0,1.5,0
							c17.4,0,31.5,14.2,31.5,31.7v58.9c0,2.8-0.4,5.4-1,8c14.4,8.9,31.5,14.1,49.7,14.1s35.3-5.2,49.7-14.1
							C582,291.8,581.7,289.1,581.7,286.4z"/>
						
							<radialGradient id="SVGID_00000085235613082890576680000013491754584856602300_" cx="532.5163" cy="498.7245" r="544.1735" fx="531.6018" fy="518.4677" gradientUnits="userSpaceOnUse">
							<stop  offset="0" style="stop-color:#505050"/>
							<stop  offset="0.6535" style="stop-color:#262626"/>
						</radialGradient>
						<path style="fill:url(#SVGID_00000085235613082890576680000013491754584856602300_);" d="M533,135c18.4,0,35.9,5.9,50.6,17.2
							c14,10.7,24.5,25.8,29.7,42.6c-0.1,0-0.1,0-0.2,0c-17.9,0-32.5,14.7-32.5,32.7v58.9c0,2.5,0.3,5.1,0.9,7.5
							c-14.6,8.9-31.4,13.6-48.6,13.6s-33.9-4.7-48.6-13.6c0.6-2.5,0.9-5,0.9-7.5v-58.9c0-18-14.6-32.7-32.5-32.7
							c-0.1,0-0.1,0-0.2,0c5.2-16.8,15.7-31.9,29.7-42.6C497.1,140.9,514.6,135,533,135 M533,134c-38.2,0-71.2,25.8-81.7,61.8
							c0.5,0,1,0,1.5,0c17.4,0,31.5,14.2,31.5,31.7v58.9c0,2.8-0.4,5.4-1,8c14.4,8.9,31.5,14.1,49.7,14.1s35.3-5.2,49.7-14.1
							c-0.7-2.6-1-5.2-1-8v-58.9c0-17.5,14.1-31.7,31.5-31.7c0.5,0,1,0,1.5,0C604.2,159.8,571.2,134,533,134L533,134z"/>
					</g>
				</g>
			</g>
			<g>
				<g>
					
						<radialGradient id="SVGID_00000181765304713826506900000009095731027508173205_" cx="532.5163" cy="498.7245" r="544.1735" fx="531.6018" fy="518.4677" gradientUnits="userSpaceOnUse">
						<stop  offset="0" style="stop-color:#505050"/>
						<stop  offset="0.6535" style="stop-color:#262626"/>
					</radialGradient>
					<path style="fill:url(#SVGID_00000181765304713826506900000009095731027508173205_);" d="M200.2,178.3h-31.3
						c-9.5,0-17.1,7.7-17.1,17.1v209.2c0,9.5,7.7,17.1,17.1,17.1h31.3c9.5,0,17.1-7.7,17.1-17.1V195.4
						C217.3,186,209.6,178.3,200.2,178.3z M186.7,404.8c0,0.9-0.5,1.7-1.3,2c-0.8,0.4-1.7,0.2-2.4-0.4l-9.4-8.4h-4.7
						c-2.5,0-4.5-2-4.5-4.5v-4.5c0-2.5,2-4.5,4.5-4.5h4.7l9.4-8.4c0.7-0.6,1.6-0.7,2.4-0.4c0.8,0.4,1.3,1.2,1.3,2V404.8z
						 M204.1,397.6c-0.7,0.6-1.7,0.7-2.4,0l-3.8-3.8l-3.8,3.8c-0.7,0.7-1.7,0.7-2.4,0c-0.6-0.7-0.7-1.7,0-2.4l3.8-3.8l-3.8-3.8
						c-0.7-0.7-0.7-1.7,0-2.4c0.7-0.6,1.7-0.7,2.4,0l3.8,3.8l3.8-3.8c0.7-0.7,1.7-0.7,2.4,0c0.6,0.7,0.7,1.7,0,2.4l-3.8,3.8l3.8,3.8
						C204.8,395.9,204.8,396.9,204.1,397.6z M209.8,244.5c-0.8-6.5-6.3-11.5-13-11.5h-24.5c-6.7,0-12.2,5-13,11.5v-49.1
						c0-5.3,4.3-9.6,9.6-9.6h31.3c5.3,0,9.6,4.3,9.6,9.6V244.5z"/>
					
						<radialGradient id="SVGID_00000145741584990156150320000000704329044836716948_" cx="532.5163" cy="498.7245" r="544.1735" fx="531.6018" fy="518.4677" gradientUnits="userSpaceOnUse">
						<stop  offset="0" style="stop-color:#505050"/>
						<stop  offset="0.6535" style="stop-color:#262626"/>
					</radialGradient>
					<path style="fill:url(#SVGID_00000145741584990156150320000000704329044836716948_);" d="M199.1,194.1
						c4.4,3.6,7.3,9.1,7.3,15.3c0,6.2-2.8,11.7-7.3,15.3c-0.7,0.6-1.7,0.5-2.3-0.2s-0.5-1.7,0.2-2.3c3.7-3,6.1-7.6,6.1-12.7
						s-2.4-9.7-6.1-12.7c-0.7-0.6-0.8-1.6-0.2-2.3S198.4,193.6,199.1,194.1L199.1,194.1z M195,199.2c3,2.4,4.8,6.1,4.8,10.2
						c0,4.1-1.9,7.8-4.8,10.2c-0.7,0.6-1.7,0.5-2.3-0.2c-0.6-0.7-0.5-1.7,0.2-2.3c2.2-1.8,3.6-4.6,3.6-7.6s-1.4-5.8-3.6-7.6
						c-0.7-0.6-0.8-1.6-0.2-2.3C193.2,198.7,194.3,198.6,195,199.2L195,199.2z M190.8,204.3c1.5,1.2,2.4,3,2.4,5.1s-1,3.9-2.4,5.1
						c-0.7,0.6-1.7,0.5-2.3-0.2s-0.5-1.7,0.2-2.3c0.7-0.6,1.2-1.5,1.2-2.5c0-1-0.5-1.9-1.2-2.5c-0.7-0.6-0.8-1.6-0.2-2.3
						S190.1,203.7,190.8,204.3L190.8,204.3z M183.2,194.3c0.8,0.4,1.3,1.1,1.3,2v26.2c0,0.9-0.5,1.6-1.3,2s-1.7,0.2-2.4-0.4
						l-9.2-8.2H167c-2.4,0-4.4-2-4.4-4.4v-4.4c0-2.4,2-4.4,4.4-4.4h4.6l9.2-8.2C181.5,194.1,182.4,193.9,183.2,194.3z"/>
				</g>
				<g>
					
						<radialGradient id="SVGID_00000056399178002685031900000015371472832937468800_" cx="532.5163" cy="498.7245" r="544.1735" fx="531.6018" fy="518.4677" gradientUnits="userSpaceOnUse">
						<stop  offset="0" style="stop-color:#505050"/>
						<stop  offset="0.6535" style="stop-color:#262626"/>
					</radialGradient>
					<path style="fill:url(#SVGID_00000056399178002685031900000015371472832937468800_);" d="M200.2,178.3h-31.3
						c-9.5,0-17.1,7.7-17.1,17.1v209.2c0,9.5,7.7,17.1,17.1,17.1h31.3c9.5,0,17.1-7.7,17.1-17.1V195.4
						C217.3,186,209.6,178.3,200.2,178.3z M186.7,404.8c0,0.9-0.5,1.7-1.3,2c-0.8,0.4-1.7,0.2-2.4-0.4l-9.4-8.4h-4.7
						c-2.5,0-4.5-2-4.5-4.5v-4.5c0-2.5,2-4.5,4.5-4.5h4.7l9.4-8.4c0.7-0.6,1.6-0.7,2.4-0.4c0.8,0.4,1.3,1.2,1.3,2V404.8z
						 M204.1,397.6c-0.7,0.6-1.7,0.7-2.4,0l-3.8-3.8l-3.8,3.8c-0.7,0.7-1.7,0.7-2.4,0c-0.6-0.7-0.7-1.7,0-2.4l3.8-3.8l-3.8-3.8
						c-0.7-0.7-0.7-1.7,0-2.4c0.7-0.6,1.7-0.7,2.4,0l3.8,3.8l3.8-3.8c0.7-0.7,1.7-0.7,2.4,0c0.6,0.7,0.7,1.7,0,2.4l-3.8,3.8l3.8,3.8
						C204.8,395.9,204.8,396.9,204.1,397.6z M209.8,244.5c-0.8-6.5-6.3-11.5-13-11.5h-24.5c-6.7,0-12.2,5-13,11.5v-49.1
						c0-5.3,4.3-9.6,9.6-9.6h31.3c5.3,0,9.6,4.3,9.6,9.6V244.5z"/>
					
						<radialGradient id="SVGID_00000007413237722901444770000014390357717795495081_" cx="532.5163" cy="498.7245" r="544.1735" fx="531.6018" fy="518.4677" gradientUnits="userSpaceOnUse">
						<stop  offset="0" style="stop-color:#505050"/>
						<stop  offset="0.6535" style="stop-color:#262626"/>
					</radialGradient>
					<path style="fill:url(#SVGID_00000007413237722901444770000014390357717795495081_);" d="M199.1,194.1
						c4.4,3.6,7.3,9.1,7.3,15.3c0,6.2-2.8,11.7-7.3,15.3c-0.7,0.6-1.7,0.5-2.3-0.2s-0.5-1.7,0.2-2.3c3.7-3,6.1-7.6,6.1-12.7
						s-2.4-9.7-6.1-12.7c-0.7-0.6-0.8-1.6-0.2-2.3S198.4,193.6,199.1,194.1L199.1,194.1z M195,199.2c3,2.4,4.8,6.1,4.8,10.2
						c0,4.1-1.9,7.8-4.8,10.2c-0.7,0.6-1.7,0.5-2.3-0.2c-0.6-0.7-0.5-1.7,0.2-2.3c2.2-1.8,3.6-4.6,3.6-7.6s-1.4-5.8-3.6-7.6
						c-0.7-0.6-0.8-1.6-0.2-2.3C193.2,198.7,194.3,198.6,195,199.2L195,199.2z M190.8,204.3c1.5,1.2,2.4,3,2.4,5.1s-1,3.9-2.4,5.1
						c-0.7,0.6-1.7,0.5-2.3-0.2s-0.5-1.7,0.2-2.3c0.7-0.6,1.2-1.5,1.2-2.5c0-1-0.5-1.9-1.2-2.5c-0.7-0.6-0.8-1.6-0.2-2.3
						S190.1,203.7,190.8,204.3L190.8,204.3z M183.2,194.3c0.8,0.4,1.3,1.1,1.3,2v26.2c0,0.9-0.5,1.6-1.3,2s-1.7,0.2-2.4-0.4
						l-9.2-8.2H167c-2.4,0-4.4-2-4.4-4.4v-4.4c0-2.4,2-4.4,4.4-4.4h4.6l9.2-8.2C181.5,194.1,182.4,193.9,183.2,194.3z"/>
				</g>
				<g>
					
						<radialGradient id="SVGID_00000040554599613532659840000013033105363092819124_" cx="532.5163" cy="498.7245" r="544.1735" fx="531.6018" fy="518.4677" gradientUnits="userSpaceOnUse">
						<stop  offset="0" style="stop-color:#505050"/>
						<stop  offset="0.6535" style="stop-color:#262626"/>
					</radialGradient>
					<path style="fill:url(#SVGID_00000040554599613532659840000013033105363092819124_);" d="M200.2,178.3h-31.3
						c-9.5,0-17.1,7.7-17.1,17.1v209.2c0,9.5,7.7,17.1,17.1,17.1h31.3c9.5,0,17.1-7.7,17.1-17.1V195.4
						C217.3,186,209.6,178.3,200.2,178.3z M186.7,404.8c0,0.9-0.5,1.7-1.3,2c-0.8,0.4-1.7,0.2-2.4-0.4l-9.4-8.4h-4.7
						c-2.5,0-4.5-2-4.5-4.5v-4.5c0-2.5,2-4.5,4.5-4.5h4.7l9.4-8.4c0.7-0.6,1.6-0.7,2.4-0.4c0.8,0.4,1.3,1.2,1.3,2V404.8z
						 M204.1,397.6c-0.7,0.6-1.7,0.7-2.4,0l-3.8-3.8l-3.8,3.8c-0.7,0.7-1.7,0.7-2.4,0c-0.6-0.7-0.7-1.7,0-2.4l3.8-3.8l-3.8-3.8
						c-0.7-0.7-0.7-1.7,0-2.4c0.7-0.6,1.7-0.7,2.4,0l3.8,3.8l3.8-3.8c0.7-0.7,1.7-0.7,2.4,0c0.6,0.7,0.7,1.7,0,2.4l-3.8,3.8l3.8,3.8
						C204.8,395.9,204.8,396.9,204.1,397.6z M209.8,244.5c-0.8-6.5-6.3-11.5-13-11.5h-24.5c-6.7,0-12.2,5-13,11.5v-49.1
						c0-5.3,4.3-9.6,9.6-9.6h31.3c5.3,0,9.6,4.3,9.6,9.6V244.5z"/>
					
						<radialGradient id="SVGID_00000093882530174074689430000006649615931005139120_" cx="532.5163" cy="498.7245" r="544.1735" fx="531.6018" fy="518.4677" gradientUnits="userSpaceOnUse">
						<stop  offset="0" style="stop-color:#505050"/>
						<stop  offset="0.6535" style="stop-color:#262626"/>
					</radialGradient>
					<path style="fill:url(#SVGID_00000093882530174074689430000006649615931005139120_);" d="M199.1,194.1
						c4.4,3.6,7.3,9.1,7.3,15.3c0,6.2-2.8,11.7-7.3,15.3c-0.7,0.6-1.7,0.5-2.3-0.2s-0.5-1.7,0.2-2.3c3.7-3,6.1-7.6,6.1-12.7
						s-2.4-9.7-6.1-12.7c-0.7-0.6-0.8-1.6-0.2-2.3S198.4,193.6,199.1,194.1L199.1,194.1z M195,199.2c3,2.4,4.8,6.1,4.8,10.2
						c0,4.1-1.9,7.8-4.8,10.2c-0.7,0.6-1.7,0.5-2.3-0.2c-0.6-0.7-0.5-1.7,0.2-2.3c2.2-1.8,3.6-4.6,3.6-7.6s-1.4-5.8-3.6-7.6
						c-0.7-0.6-0.8-1.6-0.2-2.3C193.2,198.7,194.3,198.6,195,199.2L195,199.2z M190.8,204.3c1.5,1.2,2.4,3,2.4,5.1s-1,3.9-2.4,5.1
						c-0.7,0.6-1.7,0.5-2.3-0.2s-0.5-1.7,0.2-2.3c0.7-0.6,1.2-1.5,1.2-2.5c0-1-0.5-1.9-1.2-2.5c-0.7-0.6-0.8-1.6-0.2-2.3
						S190.1,203.7,190.8,204.3L190.8,204.3z M183.2,194.3c0.8,0.4,1.3,1.1,1.3,2v26.2c0,0.9-0.5,1.6-1.3,2s-1.7,0.2-2.4-0.4
						l-9.2-8.2H167c-2.4,0-4.4-2-4.4-4.4v-4.4c0-2.4,2-4.4,4.4-4.4h4.6l9.2-8.2C181.5,194.1,182.4,193.9,183.2,194.3z"/>
				</g>
			</g>
		</g>
	</g>
</g>
</svg>
