<?xml version="1.0" encoding="utf-8"?>
<!-- Generator: Adobe Illustrator 26.5.0, SVG Export Plug-In . SVG Version: 6.00 Build 0)  -->
<svg version="1.1" xmlns="http://www.w3.org/2000/svg" xmlns:xlink="http://www.w3.org/1999/xlink" x="0px" y="0px"
	 viewBox="0 0 1066 600" style="enable-background:new 0 0 1066 600;" xml:space="preserve">
<style type="text/css">
	.st0{fill:url(#SVGID_1_);}
	.st1{fill:url(#SVGID_00000180331496504598118670000008330495837298397877_);}
	.st2{fill:url(#SVGID_00000082327690038458113920000010150117757731316151_);}
</style>
<g id="Layer_2">
	<radialGradient id="SVGID_1_" cx="-18.6667" cy="637.3333" r="1280.8921" gradientUnits="userSpaceOnUse">
		<stop  offset="1.275023e-02" style="stop-color:#3CC0C4"/>
		<stop  offset="0.2988" style="stop-color:#4AAFC4"/>
		<stop  offset="0.5917" style="stop-color:#51A3C3"/>
		<stop  offset="0.856" style="stop-color:#559CC3"/>
		<stop  offset="1" style="stop-color:#5699C2"/>
	</radialGradient>
	<rect class="st0" width="1066" height="600"/>
</g>
<g id="Layer_1">
	<g>
		
			<radialGradient id="SVGID_00000088840061330188565490000013163177116833275267_" cx="117.6667" cy="565.6667" r="930.7225" gradientUnits="userSpaceOnUse">
			<stop  offset="0" style="stop-color:#505050"/>
			<stop  offset="0.6578" style="stop-color:#262626"/>
		</radialGradient>
		<path style="fill:url(#SVGID_00000088840061330188565490000013163177116833275267_);" d="M823,104H243c-25.4,0-46,20.6-46,46v300
			c0,25.4,20.6,46,46,46h580c25.4,0,46-20.6,46-46V150C869,124.6,848.4,104,823,104z M837,450c0,7.7-6.3,14-14,14H549V299
			c0-8.3-6.7-15-15-15H229V150c0-7.7,6.3-14,14-14h580c7.7,0,14,6.3,14,14V450z"/>
		
			<radialGradient id="SVGID_00000149353465822293092650000007212126084228886199_" cx="117.6667" cy="565.6667" r="930.7225" gradientUnits="userSpaceOnUse">
			<stop  offset="0" style="stop-color:#505050"/>
			<stop  offset="0.6535" style="stop-color:#262626"/>
		</radialGradient>
		<path style="fill:url(#SVGID_00000149353465822293092650000007212126084228886199_);" d="M771,184.5c-0.5-1-1.4-1.7-2.4-2.1
			l-69-20.9c-2.1-0.6-4.3,0.6-5,2.7l-3.5,11.5c-0.3,1-0.2,2.1,0.3,3c0.5,0.9,1.4,1.6,2.4,1.9l38.4,11.7l-151.8,74.2
			c-2,1-2.8,3.4-1.8,5.4l5.3,10.8c0.5,1,1.3,1.7,2.3,2c0.4,0.1,0.9,0.2,1.3,0.2c0.6,0,1.2-0.1,1.8-0.4L741,210.2l-14.4,37.5
			c-0.4,1-0.4,2.1,0.1,3.1c0.4,1,1.2,1.7,2.2,2.1l11.2,4.3c2.1,0.8,4.4-0.2,5.2-2.3l25.9-67.3C771.5,186.6,771.5,185.5,771,184.5z"
			/>
	</g>
</g>
</svg>
